999
dxflib 2.2.0.0
  0
SECTION
  2
HEADER
  9
$ACADVER
  1
AC1015
  9
$HANDSEED
  5
FFFF
  9
$DIMASZ
 40
2.5
  9
$PLIMMIN
 10
0.0
 20
0.0
  9
$DIMEXE
 40
1.25
  9
$DIMGAP
 40
0.625
  9
$PLIMMAX
 10
210.0
 20
297.0
  9
$INSUNITS
 70
4
  9
$DIMSTYLE
  2
Standard
  9
$CLAYER
  8
electronics_mount
  9
$DIMEXO
 40
0.625
  9
$DIMTXT
 40
2.5
  9
$CLAYER
  8
0
  0
ENDSEC
  0
SECTION
  2
TABLES
  0
TABLE
  2
VPORT
  5
8
100
AcDbSymbolTable
 70
1
  0
VPORT
  5
30
100
AcDbSymbolTableRecord
100
AcDbViewportTableRecord
  2
*Active
 70
0
 10
0.0
 20
0.0
 11
1.0
 21
1.0
 12
286.3055555555554861
 22
148.5
 13
0.0
 23
0.0
 14
10.0
 24
10.0
 15
10.0
 25
10.0
 16
0.0
 26
0.0
 36
1.0
 17
0.0
 27
0.0
 37
0.0
 40
297.0
 41
1.92798353909465
 42
50.0
 43
0.0
 44
0.0
 50
0.0
 51
0.0
 71
0
 72
100
 73
1
 74
3
 75
1
 76
1
 77
0
 78
0
281
0
 65
1
110
0.0
120
0.0
130
0.0
111
1.0
121
0.0
131
0.0
112
0.0
122
1.0
132
0.0
 79
0
146
0.0
  0
ENDTAB
  0
TABLE
  2
LTYPE
  5
5
100
AcDbSymbolTable
 70
21
  0
LTYPE
  5
14
100
AcDbSymbolTableRecord
100
AcDbLinetypeTableRecord
  2
ByBlock
 70
0
  3

 72
65
 73
0
 40
0.0
  0
LTYPE
  5
15
100
AcDbSymbolTableRecord
100
AcDbLinetypeTableRecord
  2
ByLayer
 70
0
  3

 72
65
 73
0
 40
0.0
  0
LTYPE
  5
16
100
AcDbSymbolTableRecord
100
AcDbLinetypeTableRecord
  2
CONTINUOUS
 70
0
  3
Solid line
 72
65
 73
0
 40
0.0
  0
LTYPE
  5
31
100
AcDbSymbolTableRecord
100
AcDbLinetypeTableRecord
  2
DOT
 70
0
  3
Dot . . . . . . . . . . . . . . . . . . . . . .
 72
65
 73
2
 40
6.3499999999999996
 49
0.0
 74
0
 49
-6.3499999999999996
 74
0
  0
LTYPE
  5
32
100
AcDbSymbolTableRecord
100
AcDbLinetypeTableRecord
  2
DOT2
 70
0
  3
Dot (.5x) .....................................
 72
65
 73
2
 40
3.1749999999999998
 49
0.0
 74
0
 49
-3.1749999999999998
 74
0
  0
LTYPE
  5
33
100
AcDbSymbolTableRecord
100
AcDbLinetypeTableRecord
  2
DOTX2
 70
0
  3
Dot (2x) .  .  .  .  .  .  .  .  .  .  .  .  .
 72
65
 73
2
 40
12.6999999999999993
 49
0.0
 74
0
 49
-12.6999999999999993
 74
0
  0
LTYPE
  5
34
100
AcDbSymbolTableRecord
100
AcDbLinetypeTableRecord
  2
DASHED
 70
0
  3
Dashed __ __ __ __ __ __ __ __ __ __ __ __ __ _
 72
65
 73
2
 40
19.0500000000000007
 49
12.6999999999999993
 74
0
 49
-6.3499999999999996
 74
0
  0
LTYPE
  5
35
100
AcDbSymbolTableRecord
100
AcDbLinetypeTableRecord
  2
DASHED2
 70
0
  3
Dashed (.5x) _ _ _ _ _ _ _ _ _ _ _ _ _ _ _ _ _
 72
65
 73
2
 40
9.5250000000000004
 49
6.3499999999999996
 74
0
 49
-3.1749999999999998
 74
0
  0
LTYPE
  5
36
100
AcDbSymbolTableRecord
100
AcDbLinetypeTableRecord
  2
DASHEDX2
 70
0
  3
Dashed (2x) ____  ____  ____  ____  ____  ___
 72
65
 73
2
 40
38.1000000000000014
 49
25.3999999999999986
 74
0
 49
-12.6999999999999993
 74
0
  0
LTYPE
  5
37
100
AcDbSymbolTableRecord
100
AcDbLinetypeTableRecord
  2
DASHDOT
 70
0
  3
Dash dot __ . __ . __ . __ . __ . __ . __ . __
 72
65
 73
4
 40
25.3999999999999986
 49
12.6999999999999993
 74
0
 49
-6.3499999999999996
 74
0
 49
0.0
 74
0
 49
-6.3499999999999996
 74
0
  0
LTYPE
  5
38
100
AcDbSymbolTableRecord
100
AcDbLinetypeTableRecord
  2
DASHDOT2
 70
0
  3
Dash dot (.5x) _._._._._._._._._._._._._._._.
 72
65
 73
4
 40
12.6999999999999993
 49
6.3499999999999996
 74
0
 49
-3.1749999999999998
 74
0
 49
0.0
 74
0
 49
-3.1749999999999998
 74
0
  0
LTYPE
  5
39
100
AcDbSymbolTableRecord
100
AcDbLinetypeTableRecord
  2
DASHDOTX2
 70
0
  3
Dash dot (2x) ____  .  ____  .  ____  .  ___
 72
65
 73
4
 40
50.7999999999999972
 49
25.3999999999999986
 74
0
 49
-12.6999999999999993
 74
0
 49
0.0
 74
0
 49
-12.6999999999999993
 74
0
  0
LTYPE
  5
3A
100
AcDbSymbolTableRecord
100
AcDbLinetypeTableRecord
  2
DIVIDE
 70
0
  3
Divide ____ . . ____ . . ____ . . ____ . . ____
 72
65
 73
6
 40
31.75
 49
12.6999999999999993
 74
0
 49
-6.3499999999999996
 74
0
 49
0.0
 74
0
 49
-6.3499999999999996
 74
0
 49
0.0
 74
0
 49
-6.3499999999999996
 74
0
  0
LTYPE
  5
3B
100
AcDbSymbolTableRecord
100
AcDbLinetypeTableRecord
  2
DIVIDE2
 70
0
  3
Divide (.5x) __..__..__..__..__..__..__..__.._
 72
65
 73
6
 40
15.875
 49
6.3499999999999996
 74
0
 49
-3.1749999999999998
 74
0
 49
0.0
 74
0
 49
-3.1749999999999998
 74
0
 49
0.0
 74
0
 49
-3.1749999999999998
 74
0
  0
LTYPE
  5
3C
100
AcDbSymbolTableRecord
100
AcDbLinetypeTableRecord
  2
DIVIDEX2
 70
0
  3
Divide (2x) ________  .  .  ________  .  .  _
 72
65
 73
6
 40
63.5
 49
25.3999999999999986
 74
0
 49
-12.6999999999999993
 74
0
 49
0.0
 74
0
 49
-12.6999999999999993
 74
0
 49
0.0
 74
0
 49
-12.6999999999999993
 74
0
  0
LTYPE
  5
3D
100
AcDbSymbolTableRecord
100
AcDbLinetypeTableRecord
  2
CENTER
 70
0
  3
Center ____ _ ____ _ ____ _ ____ _ ____ _ ____
 72
65
 73
4
 40
50.7999999999999972
 49
31.75
 74
0
 49
-6.3499999999999996
 74
0
 49
6.3499999999999996
 74
0
 49
-6.3499999999999996
 74
0
  0
LTYPE
  5
3E
100
AcDbSymbolTableRecord
100
AcDbLinetypeTableRecord
  2
CENTER2
 70
0
  3
Center (.5x) ___ _ ___ _ ___ _ ___ _ ___ _ ___
 72
65
 73
4
 40
28.5749999999999993
 49
19.0500000000000007
 74
0
 49
-3.1749999999999998
 74
0
 49
3.1749999999999998
 74
0
 49
-3.1749999999999998
 74
0
  0
LTYPE
  5
3F
100
AcDbSymbolTableRecord
100
AcDbLinetypeTableRecord
  2
CENTERX2
 70
0
  3
Center (2x) ________  __  ________  __  _____
 72
65
 73
4
 40
101.5999999999999943
 49
63.5
 74
0
 49
-12.6999999999999993
 74
0
 49
12.6999999999999993
 74
0
 49
-12.6999999999999993
 74
0
  0
LTYPE
  5
40
100
AcDbSymbolTableRecord
100
AcDbLinetypeTableRecord
  2
BORDER
 70
0
  3
Border __ __ . __ __ . __ __ . __ __ . __ __ .
 72
65
 73
6
 40
44.4500000000000028
 49
12.6999999999999993
 74
0
 49
-6.3499999999999996
 74
0
 49
12.6999999999999993
 74
0
 49
-6.3499999999999996
 74
0
 49
0.0
 74
0
 49
-6.3499999999999996
 74
0
  0
LTYPE
  5
41
100
AcDbSymbolTableRecord
100
AcDbLinetypeTableRecord
  2
BORDER2
 70
0
  3
Border (.5x) __.__.__.__.__.__.__.__.__.__.__.
 72
65
 73
6
 40
22.2250000000000014
 49
6.3499999999999996
 74
0
 49
-3.1749999999999998
 74
0
 49
6.3499999999999996
 74
0
 49
-3.1749999999999998
 74
0
 49
0.0
 74
0
 49
-3.1749999999999998
 74
0
  0
LTYPE
  5
42
100
AcDbSymbolTableRecord
100
AcDbLinetypeTableRecord
  2
BORDERX2
 70
0
  3
Border (2x) ____  ____  .  ____  ____  .  ___
 72
65
 73
6
 40
88.9000000000000057
 49
25.3999999999999986
 74
0
 49
-12.6999999999999993
 74
0
 49
25.3999999999999986
 74
0
 49
-12.6999999999999993
 74
0
 49
0.0
 74
0
 49
-12.6999999999999993
 74
0
  0
ENDTAB
  0
TABLE
  2
LAYER
  5
2
100
AcDbSymbolTable
 70
6
  0
LAYER
  5
10
100
AcDbSymbolTableRecord
100
AcDbLayerTableRecord
  2
0
 70
0
 62
7
420
0
  6
CONTINUOUS
370
25
390
F
  0
LAYER
  5
43
100
AcDbSymbolTableRecord
100
AcDbLayerTableRecord
  2
em_drawings
 70
0
 62
5
420
255
  6
CONTINUOUS
370
0
390
F
  0
LAYER
  5
44
100
AcDbSymbolTableRecord
100
AcDbLayerTableRecord
  2
em_text
 70
0
 62
1
420
16711680
  6
CONTINUOUS
370
0
390
F
  0
LAYER
  5
45
100
AcDbSymbolTableRecord
100
AcDbLayerTableRecord
  2
l3
 70
0
 62
7
420
0
  6
CONTINUOUS
370
0
390
F
  0
LAYER
  5
46
100
AcDbSymbolTableRecord
100
AcDbLayerTableRecord
  2
holes
 70
0
 62
7
420
0
  6
CONTINUOUS
370
0
390
F
  0
LAYER
  5
47
100
AcDbSymbolTableRecord
100
AcDbLayerTableRecord
  2
Drawings
 70
1
 62
-5
420
255
  6
CONTINUOUS
370
0
390
F
  0
ENDTAB
  0
TABLE
  2
STYLE
  5
3
100
AcDbSymbolTable
 70
1
  0
STYLE
  5
11
100
AcDbSymbolTableRecord
100
AcDbTextStyleTableRecord
  2
Standard
 70
0
 40
0.0
 41
0.75
 50
0.0
 71
0
 42
2.5
  3
txt
  4

  0
ENDTAB
  0
TABLE
  2
VIEW
  5
6
100
AcDbSymbolTable
 70
0
  0
ENDTAB
  0
TABLE
  2
UCS
  5
7
100
AcDbSymbolTable
 70
0
  0
ENDTAB
  0
TABLE
  2
APPID
  5
9
100
AcDbSymbolTable
 70
1
  0
APPID
  5
12
100
AcDbSymbolTableRecord
100
AcDbRegAppTableRecord
  2
ACAD
 70
0
  0
ENDTAB
  0
TABLE
  2
DIMSTYLE
  5
A
100
AcDbSymbolTable
 70
1
100
AcDbDimStyleTable
 71
0
  0
DIMSTYLE
105
27
100
AcDbSymbolTableRecord
100
AcDbDimStyleTableRecord
  2
Standard
 41
2.5
 42
0.625
 43
3.75
 44
1.25
 70
0
 73
0
 74
0
 77
1
 78
8
140
2.5
141
2.5
143
0.03937007874016
147
0.625
171
3
172
1
271
2
272
2
274
3
278
44
283
0
284
8
340
11
  0
ENDTAB
  0
TABLE
  2
BLOCK_RECORD
  5
1
100
AcDbSymbolTable
 70
1
  0
BLOCK_RECORD
  5
1F
100
AcDbSymbolTableRecord
100
AcDbBlockTableRecord
  2
*Model_Space
340
22
  0
BLOCK_RECORD
  5
1B
100
AcDbSymbolTableRecord
100
AcDbBlockTableRecord
  2
*Paper_Space
340
1E
  0
BLOCK_RECORD
  5
23
100
AcDbSymbolTableRecord
100
AcDbBlockTableRecord
  2
*Paper_Space0
340
26
  0
ENDTAB
  0
ENDSEC
  0
SECTION
  2
BLOCKS
  0
BLOCK
  5
20
100
AcDbEntity
  8
0
100
AcDbBlockBegin
  2
*Model_Space
 70
0
 10
0.0
 20
0.0
 30
0.0
  3
*Model_Space
  1

  0
ENDBLK
  5
21
100
AcDbEntity
  8
0
100
AcDbBlockEnd
  0
BLOCK
  5
1C
100
AcDbEntity
 67
1
  8
0
100
AcDbBlockBegin
  2
*Paper_Space
 70
0
 10
0.0
 20
0.0
 30
0.0
  3
*Paper_Space
  1

  0
ENDBLK
  5
1D
100
AcDbEntity
 67
1
  8
0
100
AcDbBlockEnd
  0
BLOCK
  5
24
100
AcDbEntity
  8
0
100
AcDbBlockBegin
  2
*Paper_Space0
 70
0
 10
0.0
 20
0.0
 30
0.0
  3
*Paper_Space0
  1

  0
ENDBLK
  5
25
100
AcDbEntity
  8
0
100
AcDbBlockEnd
  0
ENDSEC
  0
SECTION
  2
ENTITIES
  0
MTEXT
  5
48
100
AcDbEntity
100
AcDbMText
  8
em_drawings
 62
256
370
-1
  6
ByLayer
 10
250.0
 20
220.0
 30
0.0
 40
8.0
 41
100.0
 71
5
 72
2
  1
This\~is\~a\~mounting\~board\~that\~allows\~your\Pelectronics\~to\~hang\~upside-down\~inside\Pyour\~Thing-O-Matic.\~Like\~a\~bat!\~It's\~a\Pbat-board.
  7
normal
 50
0.0
 73
0
 44
1.0
  0
LINE
  5
49
100
AcDbEntity
100
AcDbLine
  8
Drawings
 62
256
370
-1
  6
ByLayer
 10
105.3822562112060552
 20
239.6685896880141513
 30
0.0
 11
105.3824011212233529
 21
182.4285896881976612
 31
0.0
  0
LINE
  5
4A
100
AcDbEntity
100
AcDbLine
  8
Drawings
 62
256
370
-1
  6
ByLayer
 10
48.1422562113894514
 20
239.6684447779968821
 30
0.0
 11
105.3822562112060552
 21
239.6685896880141513
 31
0.0
  0
LINE
  5
4B
100
AcDbEntity
100
AcDbLine
  8
Drawings
 62
256
370
-1
  6
ByLayer
 10
105.3824011212233529
 20
182.4285896881976612
 30
0.0
 11
48.1424011214067775
 21
182.4284447781803635
 31
0.0
  0
LINE
  5
4C
100
AcDbEntity
100
AcDbLine
  8
Drawings
 62
256
370
-1
  6
ByLayer
 10
48.1424011214067775
 20
182.4284447781803635
 30
0.0
 11
48.1422562113894514
 21
239.6684447779968821
 31
0.0
  0
LINE
  5
4D
100
AcDbEntity
100
AcDbLine
  8
Drawings
 62
256
370
-1
  6
ByLayer
 10
105.3824289690609532
 20
171.4285896882326199
 30
0.0
 11
105.3825738790783078
 21
114.1885896884161582
 31
0.0
  0
LINE
  5
4E
100
AcDbEntity
100
AcDbLine
  8
Drawings
 62
256
370
-1
  6
ByLayer
 10
48.1424289692443779
 20
171.4284447782153791
 30
0.0
 11
105.3824289690609532
 21
171.4285896882326199
 31
0.0
  0
LINE
  5
4F
100
AcDbEntity
100
AcDbLine
  8
Drawings
 62
256
370
-1
  6
ByLayer
 10
105.3825738790783078
 20
114.1885896884161582
 30
0.0
 11
48.1425738792617324
 21
114.1884447783988605
 31
0.0
  0
LINE
  5
50
100
AcDbEntity
100
AcDbLine
  8
Drawings
 62
256
370
-1
  6
ByLayer
 10
48.1425738792617324
 20
114.1884447783988605
 30
0.0
 11
48.1424289692443779
 21
171.4284447782153791
 31
0.0
  0
LINE
  5
51
100
AcDbEntity
100
AcDbLine
  8
l3
 62
256
370
-1
  6
ByLayer
 10
-126.2335167936315372
 20
119.2084872288851187
 30
0.0
 11
-126.2335167936315656
 21
74.2084872288851187
 31
0.0
  0
LINE
  5
52
100
AcDbEntity
100
AcDbLine
  8
l3
 62
256
370
-1
  6
ByLayer
 10
-180.6179019791897531
 20
119.2084872288851045
 30
0.0
 11
-126.2335167936315372
 21
119.2084872288851187
 31
0.0
  0
LINE
  5
53
100
AcDbEntity
100
AcDbLine
  8
l3
 62
256
370
-1
  6
ByLayer
 10
-180.6182767503368609
 20
74.2084872288851471
 30
0.0
 11
-126.2335167936315656
 21
74.2084872288851187
 31
0.0
  0
LINE
  5
54
100
AcDbEntity
100
AcDbLine
  8
Drawings
 62
256
370
-1
  6
ByLayer
 10
-123.9103602949051037
 20
18.778295295937852
 30
0.0
 11
-123.9243212011097626
 21
93.1782939860797512
 31
0.0
  0
LINE
  5
55
100
AcDbEntity
100
AcDbLine
  8
Drawings
 62
256
370
-1
  6
ByLayer
 10
-51.7603615651505606
 20
18.7918339973178661
 30
0.0
 11
-123.9103602949051037
 21
18.778295295937852
 31
0.0
  0
LINE
  5
56
100
AcDbEntity
100
AcDbLine
  8
Drawings
 62
256
370
-1
  6
ByLayer
 10
-123.9243212011097626
 20
93.1782939860797512
 30
0.0
 11
-51.77432247135539
 21
93.1918326874597085
 31
0.0
  0
LINE
  5
57
100
AcDbEntity
100
AcDbLine
  8
Drawings
 62
256
370
-1
  6
ByLayer
 10
-51.77432247135539
 20
93.1918326874597085
 30
0.0
 11
-51.7603615651505606
 21
18.7918339973178661
 31
0.0
  0
LINE
  5
58
100
AcDbEntity
100
AcDbLine
  8
Drawings
 62
256
370
-1
  6
ByLayer
 10
46.1542907222899714
 20
121.5019516565429853
 30
0.0
 11
-41.8457092777104549
 21
121.5019516565431275
 31
0.0
  0
LINE
  5
59
100
AcDbEntity
100
AcDbLine
  8
Drawings
 62
256
370
-1
  6
ByLayer
 10
46.1542907222899714
 20
121.5019516565429853
 30
0.0
 11
46.1542907222899856
 21
18.5019516565429711
 31
0.0
  0
LINE
  5
5A
100
AcDbEntity
100
AcDbLine
  8
Drawings
 62
256
370
-1
  6
ByLayer
 10
-41.8457092777104549
 20
121.5019516565431275
 30
0.0
 11
-41.8457092777104549
 21
18.5019516565431417
 31
0.0
  0
LINE
  5
5B
100
AcDbEntity
100
AcDbLine
  8
Drawings
 62
256
370
-1
  6
ByLayer
 10
46.1542907222899856
 20
18.5019516565429711
 30
0.0
 11
-41.8457092777104549
 21
18.5019516565431417
 31
0.0
  0
LINE
  5
5C
100
AcDbEntity
100
AcDbLine
  8
Drawings
 62
256
370
-1
  6
ByLayer
 10
-119.3745242997462697
 20
240.3909165531132146
 30
0.0
 11
-119.374379389728972
 21
183.1509165532966961
 31
0.0
  0
LINE
  5
5D
100
AcDbEntity
100
AcDbLine
  8
Drawings
 62
256
370
-1
  6
ByLayer
 10
-176.6145242995629019
 20
240.3907716430959169
 30
0.0
 11
-119.3745242997462697
 21
240.3909165531132146
 31
0.0
  0
LINE
  5
5E
100
AcDbEntity
100
AcDbLine
  8
Drawings
 62
256
370
-1
  6
ByLayer
 10
-119.374379389728972
 20
183.1509165532966961
 30
0.0
 11
-176.6143793895454905
 21
183.1507716432794552
 31
0.0
  0
LINE
  5
5F
100
AcDbEntity
100
AcDbLine
  8
Drawings
 62
256
370
-1
  6
ByLayer
 10
-176.6143793895454905
 20
183.1507716432794552
 30
0.0
 11
-176.6145242995629019
 21
240.3907716430959169
 31
0.0
  0
LINE
  5
60
100
AcDbEntity
100
AcDbLine
  8
Drawings
 62
256
370
-1
  6
ByLayer
 10
-119.3743724024540143
 20
180.3909165533058001
 30
0.0
 11
-119.3742274924366598
 21
123.15091655348931
 31
0.0
  0
LINE
  5
61
100
AcDbEntity
100
AcDbLine
  8
Drawings
 62
256
370
-1
  6
ByLayer
 10
-176.6143724022705896
 20
180.3907716432884172
 30
0.0
 11
-119.3743724024540143
 21
180.3909165533058001
 31
0.0
  0
LINE
  5
62
100
AcDbEntity
100
AcDbLine
  8
Drawings
 62
256
370
-1
  6
ByLayer
 10
-119.3742274924366598
 20
123.15091655348931
 30
0.0
 11
-176.614227492253292
 21
123.1507716434719839
 31
0.0
  0
LINE
  5
63
100
AcDbEntity
100
AcDbLine
  8
Drawings
 62
256
370
-1
  6
ByLayer
 10
-176.614227492253292
 20
123.1507716434719839
 30
0.0
 11
-176.6143724022705896
 21
180.3907716432884172
 31
0.0
  0
LINE
  5
64
100
AcDbEntity
100
AcDbLine
  8
l3
 62
256
370
-1
  6
ByLayer
 10
-180.6183537439681572
 20
253.2309647714100151
 30
0.0
 11
-149.0828746176857749
 21
253.2208130056340565
 31
0.0
  0
ARC
  5
65
100
AcDbEntity
  8
l3
 62
256
370
-1
  6
ByLayer
100
AcDbCircle
 10
-149.0804602500755891
 20
260.7208126170226024
 30
0.0
 40
7.5
100
AcDbArc
 50
269.9815555897807258
 51
359.981555589780271
  0
LINE
  5
66
100
AcDbEntity
100
AcDbLine
  8
l3
 62
256
370
-1
  6
ByLayer
 10
-141.5804606386871853
 20
260.7183982494121892
 30
0.0
 11
-141.5716117484308825
 21
288.2066205085095589
 31
0.0
  0
LINE
  5
67
100
AcDbEntity
100
AcDbLine
  8
l3
 62
256
370
-1
  6
ByLayer
 10
68.345578919835944
 20
260.7183982494123029
 30
0.0
 11
68.3367300295797548
 21
288.2066205085101274
 31
0.0
  0
ARC
  5
68
100
AcDbEntity
  8
l3
 62
256
370
-1
  6
ByLayer
100
AcDbCircle
 10
75.8455785312245325
 20
260.7208126170224887
 30
0.0
 40
7.5
100
AcDbArc
 50
180.018444410219729
 51
270.0184444102192742
  0
LINE
  5
69
100
AcDbEntity
100
AcDbLine
  8
l3
 62
256
370
-1
  6
ByLayer
 10
107.3810343218874266
 20
253.2309639866745954
 30
0.0
 11
75.847992898834633
 21
253.2208130056340849
 31
0.0
  0
LINE
  5
6A
100
AcDbEntity
100
AcDbLine
  8
l3
 62
256
370
-1
  6
ByLayer
 10
107.3795544883000161
 20
38.2322212136708117
 30
0.0
 11
75.8821633788499099
 21
38.2321414741970926
 31
0.0
  0
ARC
  5
6B
100
AcDbEntity
  8
l3
 62
256
370
-1
  6
ByLayer
100
AcDbCircle
 10
75.8821823659992845
 20
30.7321414742211658
 30
0.0
 40
7.5
100
AcDbArc
 50
90.0001450512299641
 51
180.0001450510921472
  0
LINE
  5
6C
100
AcDbEntity
100
AcDbLine
  8
l3
 62
256
370
-1
  6
ByLayer
 10
68.3821823660232155
 20
30.7321224870595131
 30
0.0
 11
68.3822520155789562
 21
3.2202871463079532
 31
0.0
  0
LINE
  5
6D
100
AcDbEntity
100
AcDbLine
  8
l3
 62
256
370
-1
  6
ByLayer
 10
-141.6170640848745848
 20
30.7321224870592999
 30
0.0
 11
-141.617133734430297
 21
3.2202871463075553
 31
0.0
  0
ARC
  5
6E
100
AcDbEntity
  8
l3
 62
256
370
-1
  6
ByLayer
100
AcDbCircle
 10
-149.1170640848505968
 20
30.7321414742214216
 30
0.0
 40
7.5
100
AcDbArc
 50
359.9998549489079096
 51
89.9998549487700217
  0
LINE
  5
6F
100
AcDbEntity
100
AcDbLine
  8
l3
 62
256
370
-1
  6
ByLayer
 10
-180.6186053527347894
 20
38.2322212242262367
 30
0.0
 11
-149.1170450977012365
 21
38.2321414741974195
 31
0.0
  0
LINE
  5
70
100
AcDbEntity
100
AcDbLine
  8
l3
 62
256
370
-1
  6
ByLayer
 10
-180.6179019791897531
 20
119.2084872288851045
 30
0.0
 11
-180.6167858068019996
 21
253.2309642666665184
 31
0.0
  0
LINE
  5
71
100
AcDbEntity
100
AcDbLine
  8
l3
 62
256
370
-1
  6
ByLayer
 10
-180.6185763695918922
 20
38.2322212241528661
 30
0.0
 11
-180.6182767503368609
 21
74.2084872288851471
 31
0.0
  0
LINE
  5
72
100
AcDbEntity
100
AcDbLine
  8
l3
 62
256
370
-1
  6
ByLayer
 10
68.3822520155469107
 20
3.2202998044158164
 30
0.0
 11
-141.6171337343982657
 21
3.2202998044155038
 31
0.0
  0
LINE
  5
73
100
AcDbEntity
100
AcDbLine
  8
l3
 62
256
370
-1
  6
ByLayer
 10
107.3794279080076706
 20
253.2309634695447471
 30
0.0
 11
107.3795639818688414
 21
38.2322212136948565
 31
0.0
  0
ARC
  5
74
100
AcDbEntity
  8
l3
 62
256
370
-1
  6
ByLayer
100
AcDbCircle
 10
-101.6192051695972225
 20
139.2082300869165294
 30
0.0
 40
5.0
100
AcDbArc
 50
0.0
 51
90.0
  0
LINE
  5
75
100
AcDbEntity
100
AcDbLine
  8
l3
 62
256
370
-1
  6
ByLayer
 10
-110.6185359214230459
 20
144.2082300869162736
 30
0.0
 11
-101.6192051695972225
 21
144.2082300869164726
 31
0.0
  0
LINE
  5
76
100
AcDbEntity
100
AcDbLine
  8
l3
 62
256
370
-1
  6
ByLayer
 10
-115.6185359214230175
 20
288.208230086916501
 30
0.0
 11
-115.6185359214230459
 21
149.2082300869165579
 31
0.0
  0
ARC
  5
77
100
AcDbEntity
  8
l3
 62
256
370
-1
  6
ByLayer
100
AcDbCircle
 10
-110.6185359214230459
 20
149.2082300869164158
 30
0.0
 40
5.0
100
AcDbArc
 50
180.0
 51
270.0
  0
LINE
  5
78
100
AcDbEntity
100
AcDbLine
  8
l3
 62
256
370
-1
  6
ByLayer
 10
-96.6192051695972225
 20
139.2082300869164726
 30
0.0
 11
-96.6192051695972225
 21
120.7082301959046617
 31
0.0
  0
ARC
  5
79
100
AcDbEntity
  8
l3
 62
256
370
-1
  6
ByLayer
100
AcDbCircle
 10
-91.6192051695972509
 20
120.7082301959046617
 30
0.0
 40
5.0
100
AcDbArc
 50
180.0
 51
270.0
  0
LINE
  5
7A
100
AcDbEntity
100
AcDbLine
  8
l3
 62
256
370
-1
  6
ByLayer
 10
-91.6192051695972509
 20
115.7082301959046617
 30
0.0
 11
-51.6192051695972225
 21
115.7082301959046333
 31
0.0
  0
ARC
  5
7B
100
AcDbEntity
  8
l3
 62
256
370
-1
  6
ByLayer
100
AcDbCircle
 10
-51.6192051695972225
 20
120.7082301959046333
 30
0.0
 40
5.0
100
AcDbArc
 50
270.0
 51
0.0
  0
LINE
  5
7C
100
AcDbEntity
100
AcDbLine
  8
l3
 62
256
370
-1
  6
ByLayer
 10
-46.6192051695972225
 20
120.7082301959046333
 30
0.0
 11
-46.6192051695972225
 21
139.2082300869164726
 31
0.0
  0
ARC
  5
7D
100
AcDbEntity
  8
l3
 62
256
370
-1
  6
ByLayer
100
AcDbCircle
 10
-41.6192051695972225
 20
139.2082300869164726
 30
0.0
 40
5.0
100
AcDbArc
 50
90.0
 51
180.0
  0
LINE
  5
7E
100
AcDbEntity
100
AcDbLine
  8
l3
 62
256
370
-1
  6
ByLayer
 10
-41.6192051695972225
 20
144.2082300869164726
 30
0.0
 11
37.3814640785769541
 21
144.2082300869162168
 31
0.0
  0
LINE
  5
7F
100
AcDbEntity
100
AcDbLine
  8
l3
 62
256
370
-1
  6
ByLayer
 10
42.3814640785769541
 20
149.2082300869164726
 30
0.0
 11
42.3814640785771246
 21
288.208230086916501
 31
0.0
  0
ARC
  5
80
100
AcDbEntity
  8
l3
 62
256
370
-1
  6
ByLayer
100
AcDbCircle
 10
37.3814640785769541
 20
149.2082300869163589
 30
0.0
 40
5.0
100
AcDbArc
 50
270.0
 51
0.0
  0
LINE
  5
81
100
AcDbEntity
100
AcDbLine
  8
l3
 62
256
370
-1
  6
ByLayer
 10
-141.5716117484308825
 20
288.2066205085095589
 30
0.0
 11
-115.6185359214229607
 21
288.2066205085096726
 31
0.0
  0
LINE
  5
82
100
AcDbEntity
100
AcDbLine
  8
l3
 62
256
370
-1
  6
ByLayer
 10
42.3814640785771388
 20
288.2066205085100137
 30
0.0
 11
68.3367300295797548
 21
288.2066205085101274
 31
0.0
  0
CIRCLE
  5
83
100
AcDbEntity
100
AcDbCircle
  8
holes
 62
256
370
-1
  6
ByLayer
 10
100.3823884631316616
 20
187.4285770300738534
 30
0.0
 40
1.5
  0
CIRCLE
  5
84
100
AcDbEntity
100
AcDbCircle
  8
holes
 62
256
370
-1
  6
ByLayer
 10
100.3822688693298062
 20
234.6685770299224885
 30
0.0
 40
1.5
  0
CIRCLE
  5
85
100
AcDbEntity
100
AcDbCircle
  8
holes
 62
256
370
-1
  6
ByLayer
 10
53.1422688694811569
 20
234.668457436120633
 30
0.0
 40
1.5
  0
CIRCLE
  5
86
100
AcDbEntity
100
AcDbCircle
  8
holes
 62
256
370
-1
  6
ByLayer
 10
53.1423884632830266
 20
187.4284574362720548
 30
0.0
 40
1.5
  0
CIRCLE
  5
87
100
AcDbEntity
100
AcDbCircle
  8
holes
 62
256
370
-1
  6
ByLayer
 10
100.3825612209865881
 20
119.1885770302922793
 30
0.0
 40
1.5
  0
CIRCLE
  5
88
100
AcDbEntity
100
AcDbCircle
  8
holes
 62
256
370
-1
  6
ByLayer
 10
100.3824416271847326
 20
166.4285770301410992
 30
0.0
 40
1.5
  0
CIRCLE
  5
89
100
AcDbEntity
100
AcDbCircle
  8
holes
 62
256
370
-1
  6
ByLayer
 10
53.1424416273360976
 20
166.42845743633913
 30
0.0
 40
1.5
  0
CIRCLE
  5
8A
100
AcDbEntity
100
AcDbCircle
  8
holes
 62
256
370
-1
  6
ByLayer
 10
53.1425612211379672
 20
119.1884574364905376
 30
0.0
 40
1.5
  0
CIRCLE
  5
8B
100
AcDbEntity
100
AcDbCircle
  8
holes
 62
256
370
-1
  6
ByLayer
 10
-165.7335167936319635
 20
49.7042509961340784
 30
0.0
 40
1.5
  0
CIRCLE
  5
8C
100
AcDbEntity
100
AcDbCircle
  8
holes
 62
256
370
-1
  6
ByLayer
 10
-145.7335167936320204
 20
49.7042509961341068
 30
0.0
 40
1.5
  0
CIRCLE
  5
8D
100
AcDbEntity
100
AcDbCircle
  8
holes
 62
256
370
-1
  6
ByLayer
 10
-145.7335167936320204
 20
69.7042509961342063
 30
0.0
 40
1.5
  0
CIRCLE
  5
8E
100
AcDbEntity
100
AcDbCircle
  8
holes
 62
256
370
-1
  6
ByLayer
 10
-165.7335167936319635
 20
69.7042509961340926
 30
0.0
 40
1.5
  0
CIRCLE
  5
8F
100
AcDbEntity
100
AcDbCircle
  8
holes
 62
256
370
-1
  6
ByLayer
 10
-165.7335167936302582
 20
221.7072432276254403
 30
0.0
 40
1.5
  0
CIRCLE
  5
90
100
AcDbEntity
100
AcDbCircle
  8
holes
 62
256
370
-1
  6
ByLayer
 10
-145.7335167936302582
 20
221.7072432276253551
 30
0.0
 40
1.5
  0
CIRCLE
  5
91
100
AcDbEntity
100
AcDbCircle
  8
holes
 62
256
370
-1
  6
ByLayer
 10
-145.733516793630173
 20
241.7072432276255256
 30
0.0
 40
1.5
  0
CIRCLE
  5
92
100
AcDbEntity
100
AcDbCircle
  8
holes
 62
256
370
-1
  6
ByLayer
 10
-165.7335167936301445
 20
241.7072432276255256
 30
0.0
 40
1.5
  0
CIRCLE
  5
93
100
AcDbEntity
100
AcDbCircle
  8
holes
 62
256
370
-1
  6
ByLayer
 10
98.3716329125498419
 20
96.7084872288852466
 30
0.0
 40
2.0
  0
CIRCLE
  5
94
100
AcDbEntity
100
AcDbCircle
  8
holes
 62
256
370
-1
  6
ByLayer
 10
92.4981723518916965
 20
49.7045778685880038
 30
0.0
 40
1.5
  0
CIRCLE
  5
95
100
AcDbEntity
100
AcDbCircle
  8
holes
 62
256
370
-1
  6
ByLayer
 10
72.4981723519558159
 20
49.7045272361571477
 30
0.0
 40
1.5
  0
CIRCLE
  5
96
100
AcDbEntity
100
AcDbCircle
  8
holes
 62
256
370
-1
  6
ByLayer
 10
72.4981217195249314
 20
69.7045272360932557
 30
0.0
 40
1.5
  0
CIRCLE
  5
97
100
AcDbEntity
100
AcDbCircle
  8
holes
 62
256
370
-1
  6
ByLayer
 10
92.4981217194608689
 20
69.7045778685242254
 30
0.0
 40
1.5
  0
CIRCLE
  5
98
100
AcDbEntity
100
AcDbCircle
  8
holes
 62
256
370
-1
  6
ByLayer
 10
92.4977369054088854
 20
221.707570099528283
 30
0.0
 40
1.5
  0
CIRCLE
  5
99
100
AcDbEntity
100
AcDbCircle
  8
holes
 62
256
370
-1
  6
ByLayer
 10
72.4977369054729621
 20
221.7075194670973985
 30
0.0
 40
1.5
  0
CIRCLE
  5
9A
100
AcDbEntity
100
AcDbCircle
  8
holes
 62
256
370
-1
  6
ByLayer
 10
72.4976862730419924
 20
241.7075194670332792
 30
0.0
 40
1.5
  0
CIRCLE
  5
9B
100
AcDbEntity
100
AcDbCircle
  8
holes
 62
256
370
-1
  6
ByLayer
 10
92.4976862729779157
 20
241.7075700994642773
 30
0.0
 40
1.5
  0
CIRCLE
  5
9C
100
AcDbEntity
100
AcDbCircle
  8
holes
 62
256
370
-1
  6
ByLayer
 10
-123.6174408594255851
 20
160.6382134073496388
 30
0.0
 40
1.5
  0
CIRCLE
  5
9D
100
AcDbEntity
100
AcDbCircle
  8
holes
 62
256
370
-1
  6
ByLayer
 10
-123.6174408594256136
 20
141.6382134073496957
 30
0.0
 40
1.5
  0
CIRCLE
  5
9E
100
AcDbEntity
100
AcDbCircle
  8
holes
 62
256
370
-1
  6
ByLayer
 10
-118.9112986158770013
 20
23.7792334408535879
 30
0.0
 40
1.5
  0
CIRCLE
  5
9F
100
AcDbEntity
100
AcDbCircle
  8
holes
 62
256
370
-1
  6
ByLayer
 10
-118.9233830561940408
 20
88.1792323070517341
 30
0.0
 40
1.5
  0
CIRCLE
  5
A0
100
AcDbEntity
100
AcDbCircle
  8
holes
 62
256
370
-1
  6
ByLayer
 10
-56.7733841503834924
 20
88.1908945425438731
 30
0.0
 40
1.5
  0
CIRCLE
  5
A1
100
AcDbEntity
100
AcDbCircle
  8
holes
 62
256
370
-1
  6
ByLayer
 10
-56.7612997100665098
 20
23.7908956763458121
 30
0.0
 40
1.5
  0
CIRCLE
  5
A2
100
AcDbEntity
100
AcDbCircle
  8
holes
 62
256
370
-1
  6
ByLayer
 10
41.1542907222900141
 20
23.5019516565430138
 30
0.0
 40
1.5
  0
CIRCLE
  5
A3
100
AcDbEntity
100
AcDbCircle
  8
holes
 62
256
370
-1
  6
ByLayer
 10
41.1542907222899714
 20
116.5019516565431417
 30
0.0
 40
1.5
  0
CIRCLE
  5
A4
100
AcDbEntity
100
AcDbCircle
  8
holes
 62
256
370
-1
  6
ByLayer
 10
-36.8457092777103981
 20
23.5019516565431275
 30
0.0
 40
1.5
  0
CIRCLE
  5
A5
100
AcDbEntity
100
AcDbCircle
  8
holes
 62
256
370
-1
  6
ByLayer
 10
-36.8457092777104549
 20
116.5019516565431275
 30
0.0
 40
1.5
  0
CIRCLE
  5
A6
100
AcDbEntity
100
AcDbCircle
  8
holes
 62
256
370
-1
  6
ByLayer
 10
-124.3743920478206633
 20
188.1509038951729167
 30
0.0
 40
1.5
  0
CIRCLE
  5
A7
100
AcDbEntity
100
AcDbCircle
  8
holes
 62
256
370
-1
  6
ByLayer
 10
-124.3745116416225187
 20
235.3909038950215233
 30
0.0
 40
1.5
  0
CIRCLE
  5
A8
100
AcDbEntity
100
AcDbCircle
  8
holes
 62
256
370
-1
  6
ByLayer
 10
-171.6145116414712106
 20
235.3907843012196679
 30
0.0
 40
1.5
  0
CIRCLE
  5
A9
100
AcDbEntity
100
AcDbCircle
  8
holes
 62
256
370
-1
  6
ByLayer
 10
-171.6143920476692415
 20
188.1507843013710612
 30
0.0
 40
1.5
  0
CIRCLE
  5
AA
100
AcDbEntity
100
AcDbCircle
  8
holes
 62
256
370
-1
  6
ByLayer
 10
-124.3742401505284079
 20
128.1509038953655022
 30
0.0
 40
1.5
  0
CIRCLE
  5
AB
100
AcDbEntity
100
AcDbCircle
  8
holes
 62
256
370
-1
  6
ByLayer
 10
-124.3743597443302633
 20
175.3909038952141088
 30
0.0
 40
1.5
  0
CIRCLE
  5
AC
100
AcDbEntity
100
AcDbCircle
  8
holes
 62
256
370
-1
  6
ByLayer
 10
-171.6143597441788984
 20
175.3907843014121966
 30
0.0
 40
1.5
  0
CIRCLE
  5
AD
100
AcDbEntity
100
AcDbCircle
  8
holes
 62
256
370
-1
  6
ByLayer
 10
-171.6142401503770429
 20
128.1507843015637604
 30
0.0
 40
1.5
  0
ARC
  5
AE
100
AcDbEntity
  8
em_text
 62
256
370
-1
  6
ByLayer
100
AcDbCircle
 10
64.8726479938412126
 20
204.6976327485641036
 30
0.0
 40
3.5751199999999996
100
AcDbArc
 50
105.1808699999999988
 51
164.4518510000000049
  0
ARC
  5
AF
100
AcDbEntity
  8
em_text
 62
256
370
-1
  6
ByLayer
100
AcDbCircle
 10
62.9008496218041628
 20
205.2462395019947508
 30
0.0
 40
1.5284177777777777
100
AcDbArc
 50
164.4518510000000049
 51
286.1073299999999904
  0
LINE
  5
B0
100
AcDbEntity
100
AcDbLine
  8
em_text
 62
256
370
-1
  6
ByLayer
 10
63.3249194718535406
 20
203.7778527606317027
 30
0.0
 11
64.9265628431537749
 21
204.2403691063180702
 31
0.0
  0
ARC
  5
B1
100
AcDbEntity
  8
em_text
 62
256
370
-1
  6
ByLayer
100
AcDbCircle
 10
65.4835807103140723
 20
202.3114132342091978
 30
0.0
 40
2.0077599999999998
100
AcDbArc
 50
336.921447999999998
 51
106.1073110000000099
  0
ARC
  5
B2
100
AcDbEntity
  8
em_text
 62
256
370
-1
  6
ByLayer
100
AcDbCircle
 10
64.0416328486344355
 20
202.9257947461561855
 30
0.0
 40
3.5751199999999996
100
AcDbArc
 50
276.799301000000014
 51
336.921447999999998
  0
LINE
  5
B3
100
AcDbEntity
100
AcDbLine
  8
em_text
 62
256
370
-1
  6
ByLayer
 10
66.0397735754459063
 20
210.8584532705995684
 30
0.0
 11
70.0397942979619188
 21
203.9302612550528977
 31
0.0
  0
LINE
  5
B4
100
AcDbEntity
100
AcDbLine
  8
em_text
 62
256
370
-1
  6
ByLayer
 10
66.7446257859443648
 20
207.9205679017437944
 30
0.0
 11
68.6302438691084973
 21
209.8061859849079269
 31
0.0
  0
LINE
  5
B5
100
AcDbEntity
100
AcDbLine
  8
em_text
 62
256
370
-1
  6
ByLayer
 10
75.1014085732089143
 20
208.9918755302998647
 30
0.0
 11
73.4063780807218791
 21
207.2968450378128296
 31
0.0
  0
ARC
  5
B6
100
AcDbEntity
  8
em_text
 62
256
370
-1
  6
ByLayer
100
AcDbCircle
 10
72.777838719667173
 20
207.9253843988675499
 30
0.0
 40
0.8888888888888888
100
AcDbArc
 50
210.0
 51
315.0
  0
LINE
  5
B7
100
AcDbEntity
100
AcDbLine
  8
em_text
 62
256
370
-1
  6
ByLayer
 10
72.0080269662037011
 20
207.4809297602604659
 30
0.0
 11
70.2616492076940489
 21
210.5058697162403973
 31
0.0
  0
ARC
  5
B8
100
AcDbEntity
  8
em_text
 62
256
370
-1
  6
ByLayer
100
AcDbCircle
 10
71.0314666180117342
 20
210.9503174409145174
 30
0.0
 40
0.8888888888888888
100
AcDbArc
 50
135.0
 51
210.0
  0
LINE
  5
B9
100
AcDbEntity
100
AcDbLine
  8
em_text
 62
256
370
-1
  6
ByLayer
 10
70.4028442897613758
 20
211.5787864055608054
 30
0.0
 11
71.6156524705142772
 21
212.7915945863136926
 31
0.0
  0
ARC
  5
BA
100
AcDbEntity
  8
em_text
 62
256
370
-1
  6
ByLayer
100
AcDbCircle
 10
72.2441981169625933
 20
212.1630489398653765
 30
0.0
 40
0.8888888888888888
100
AcDbArc
 50
30.0000000000000178
 51
135.0
  0
LINE
  5
BB
100
AcDbEntity
100
AcDbLine
  8
em_text
 62
256
370
-1
  6
ByLayer
 10
73.013926274691002
 20
212.6074325535246601
 30
0.0
 11
73.7680999688514021
 21
211.3012919345094076
 31
0.0
  0
LINE
  5
BC
100
AcDbEntity
100
AcDbLine
  8
em_text
 62
256
370
-1
  6
ByLayer
 10
73.7680999688514021
 20
211.3012919345094076
 30
0.0
 11
71.2539425246325635
 21
208.7871344902905548
 31
0.0
  0
LINE
  5
BD
100
AcDbEntity
100
AcDbLine
  8
em_text
 62
256
370
-1
  6
ByLayer
 10
77.5345139812016555
 20
207.7822433589383593
 30
0.0
 11
73.5345699404876996
 21
214.710512056287115
 31
0.0
  0
LINE
  5
BE
100
AcDbEntity
100
AcDbLine
  8
em_text
 62
256
370
-1
  6
ByLayer
 10
73.5345699404876996
 20
214.710512056287115
 30
0.0
 11
75.2295237511726924
 21
216.4054658669720936
 31
0.0
  0
ARC
  5
BF
100
AcDbEntity
  8
em_text
 62
256
370
-1
  6
ByLayer
100
AcDbCircle
 10
75.8580568268337885
 20
215.7769327913109976
 30
0.0
 40
0.88888
100
AcDbArc
 50
30.0000000000000178
 51
135.0
  0
LINE
  5
C0
100
AcDbEntity
100
AcDbLine
  8
em_text
 62
256
370
-1
  6
ByLayer
 10
76.6278742371514738
 20
216.2213805159851177
 30
0.0
 11
78.3743286774632111
 21
213.1965172418072143
 31
0.0
  0
ARC
  5
C1
100
AcDbEntity
  8
em_text
 62
256
370
-1
  6
ByLayer
100
AcDbCircle
 10
77.6045238379327174
 20
212.7520569463458742
 30
0.0
 40
0.88888
100
AcDbArc
 50
315.0
 51
30.0000000000000178
  0
LINE
  5
C2
100
AcDbEntity
100
AcDbLine
  8
em_text
 62
256
370
-1
  6
ByLayer
 10
78.2330569135938276
 20
212.1235238706847781
 30
0.0
 11
76.2011990914505475
 21
210.091666048541498
 31
0.0
  0
LINE
  5
C3
100
AcDbEntity
100
AcDbLine
  8
em_text
 62
256
370
-1
  6
ByLayer
 10
81.1483789764664891
 20
211.3961083542031929
 30
0.0
 11
77.148434935752519
 21
218.3243770515519486
 31
0.0
  0
LINE
  5
C4
100
AcDbEntity
100
AcDbLine
  8
em_text
 62
256
370
-1
  6
ByLayer
 10
77.148434935752519
 20
218.3243770515519486
 30
0.0
 11
78.8433887464375118
 21
220.0193308622369273
 31
0.0
  0
ARC
  5
C5
100
AcDbEntity
  8
em_text
 62
256
370
-1
  6
ByLayer
100
AcDbCircle
 10
79.4719218220986079
 20
219.3907977865758312
 30
0.0
 40
0.88888
100
AcDbArc
 50
30.0000000000000178
 51
135.0
  0
LINE
  5
C6
100
AcDbEntity
100
AcDbLine
  8
em_text
 62
256
370
-1
  6
ByLayer
 10
80.2417392324162932
 20
219.8352455112499513
 30
0.0
 11
81.9881936727280447
 21
216.8103822370720195
 31
0.0
  0
ARC
  5
C7
100
AcDbEntity
  8
em_text
 62
256
370
-1
  6
ByLayer
100
AcDbCircle
 10
81.2183888331975368
 20
216.3659219416107078
 30
0.0
 40
0.88888
100
AcDbArc
 50
315.0
 51
30.0000000000000178
  0
LINE
  5
C8
100
AcDbEntity
100
AcDbLine
  8
em_text
 62
256
370
-1
  6
ByLayer
 10
81.846921908858647
 20
215.7373888659496117
 30
0.0
 11
79.8150640867153669
 21
213.7055310438063316
 31
0.0
  0
LINE
  5
C9
100
AcDbEntity
100
AcDbLine
  8
em_text
 62
256
370
-1
  6
ByLayer
 10
85.9430865261990249
 20
219.8335534832899612
 30
0.0
 11
84.2480560337119897
 21
218.138522990802926
 31
0.0
  0
ARC
  5
CA
100
AcDbEntity
  8
em_text
 62
256
370
-1
  6
ByLayer
100
AcDbCircle
 10
83.6195166726572836
 20
218.7670623518576463
 30
0.0
 40
0.8888888888888888
100
AcDbArc
 50
210.0
 51
315.0
  0
LINE
  5
CB
100
AcDbEntity
100
AcDbLine
  8
em_text
 62
256
370
-1
  6
ByLayer
 10
82.8497049191938117
 20
218.3226077132505623
 30
0.0
 11
81.1033271606841595
 21
221.3475476692304937
 31
0.0
  0
ARC
  5
CC
100
AcDbEntity
  8
em_text
 62
256
370
-1
  6
ByLayer
100
AcDbCircle
 10
81.8731445710018448
 20
221.7919953939046138
 30
0.0
 40
0.8888888888888888
100
AcDbArc
 50
135.0
 51
210.0
  0
LINE
  5
CD
100
AcDbEntity
100
AcDbLine
  8
em_text
 62
256
370
-1
  6
ByLayer
 10
81.2445222427514864
 20
222.4204643585509018
 30
0.0
 11
82.4573304235043878
 21
223.633272539303789
 31
0.0
  0
ARC
  5
CE
100
AcDbEntity
  8
em_text
 62
256
370
-1
  6
ByLayer
100
AcDbCircle
 10
83.0858760699527039
 20
223.0047268928554729
 30
0.0
 40
0.8888888888888888
100
AcDbArc
 50
30.0000000000000178
 51
135.0
  0
LINE
  5
CF
100
AcDbEntity
100
AcDbLine
  8
em_text
 62
256
370
-1
  6
ByLayer
 10
83.8556042276811127
 20
223.4491105065147565
 30
0.0
 11
84.6097779218415127
 21
222.142969887499504
 31
0.0
  0
LINE
  5
D0
100
AcDbEntity
100
AcDbLine
  8
em_text
 62
256
370
-1
  6
ByLayer
 10
84.6097779218415127
 20
222.142969887499504
 30
0.0
 11
82.0956204776226741
 21
219.6288124432806512
 31
0.0
  0
LINE
  5
D1
100
AcDbEntity
100
AcDbLine
  8
em_text
 62
256
370
-1
  6
ByLayer
 10
87.0428770444406581
 20
220.9333440015316228
 30
0.0
 11
84.3762478934778102
 21
225.5521900092772398
 31
0.0
  0
LINE
  5
D2
100
AcDbEntity
100
AcDbLine
  8
em_text
 62
256
370
-1
  6
ByLayer
 10
84.3762478934778102
 20
225.5521900092772398
 30
0.0
 11
85.4427390249101393
 21
226.6186811407095547
 31
0.0
  0
ARC
  5
D3
100
AcDbEntity
  8
em_text
 62
256
370
-1
  6
ByLayer
100
AcDbCircle
 10
86.0712783859648454
 20
225.9901417796548628
 30
0.0
 40
0.8888888888888888
100
AcDbArc
 50
30.0000000000000178
 51
135.0
  0
ARC
  5
D4
100
AcDbEntity
  8
em_text
 62
256
370
-1
  6
ByLayer
100
AcDbCircle
 10
76.4577051060049655
 20
198.1807562623522472
 30
0.0
 40
3.5751199999999996
100
AcDbArc
 50
105.1808699999999988
 51
164.4518510000000049
  0
ARC
  5
D5
100
AcDbEntity
  8
em_text
 62
256
370
-1
  6
ByLayer
100
AcDbCircle
 10
74.4859067339679228
 20
198.7293630157828943
 30
0.0
 40
1.5284177777777777
100
AcDbArc
 50
164.4518510000000049
 51
286.1073299999999904
  0
LINE
  5
D6
100
AcDbEntity
100
AcDbLine
  8
em_text
 62
256
370
-1
  6
ByLayer
 10
74.9099765840172864
 20
197.2609762744198463
 30
0.0
 11
76.5116199553175278
 21
197.7234926201062137
 31
0.0
  0
ARC
  5
D7
100
AcDbEntity
  8
em_text
 62
256
370
-1
  6
ByLayer
100
AcDbCircle
 10
77.0686378224778252
 20
195.7945367479973413
 30
0.0
 40
2.0077599999999998
100
AcDbArc
 50
336.921447999999998
 51
106.1073110000000099
  0
ARC
  5
D8
100
AcDbEntity
  8
em_text
 62
256
370
-1
  6
ByLayer
100
AcDbCircle
 10
75.6266899607981884
 20
196.4089182599443291
 30
0.0
 40
3.5751199999999996
100
AcDbArc
 50
276.799301000000014
 51
336.921447999999998
  0
LINE
  5
D9
100
AcDbEntity
100
AcDbLine
  8
em_text
 62
256
370
-1
  6
ByLayer
 10
77.6248306876096734
 20
204.341576784387712
 30
0.0
 11
81.6248514101256859
 21
197.4133847688410413
 31
0.0
  0
LINE
  5
DA
100
AcDbEntity
100
AcDbLine
  8
em_text
 62
256
370
-1
  6
ByLayer
 10
78.3296828981081319
 20
201.403691415531938
 30
0.0
 11
80.2153009812722644
 21
203.2893094986960705
 31
0.0
  0
LINE
  5
DB
100
AcDbEntity
100
AcDbLine
  8
em_text
 62
256
370
-1
  6
ByLayer
 10
81.8199487707183408
 20
204.8939572881421327
 30
0.0
 11
83.2007095826780443
 21
206.2747181001018362
 31
0.0
  0
ARC
  5
DC
100
AcDbEntity
  8
em_text
 62
256
370
-1
  6
ByLayer
100
AcDbCircle
 10
83.8292489437327504
 20
205.6461787390471159
 30
0.0
 40
0.8888888888888888
100
AcDbArc
 50
30.0000000000000178
 51
135.0
  0
LINE
  5
DD
100
AcDbEntity
100
AcDbLine
  8
em_text
 62
256
370
-1
  6
ByLayer
 10
84.5990600686568257
 20
206.0906327491148602
 30
0.0
 11
86.6864656853726814
 21
202.4749990440880083
 31
0.0
  0
LINE
  5
DE
100
AcDbEntity
100
AcDbLine
  8
em_text
 62
256
370
-1
  6
ByLayer
 10
86.6864656853726814
 20
202.4749990440880083
 30
0.0
 11
84.9914351928856462
 21
200.7799685516009731
 31
0.0
  0
ARC
  5
DF
100
AcDbEntity
  8
em_text
 62
256
370
-1
  6
ByLayer
100
AcDbCircle
 10
84.3628958318309401
 20
201.4085079126556934
 30
0.0
 40
0.8888888888888888
100
AcDbArc
 50
210.0
 51
315.0
  0
LINE
  5
E0
100
AcDbEntity
100
AcDbLine
  8
em_text
 62
256
370
-1
  6
ByLayer
 10
83.5930777929738866
 20
200.9640595594422052
 30
0.0
 11
83.180027495002534
 21
201.6795642550318064
 31
0.0
  0
ARC
  5
E1
100
AcDbEntity
  8
em_text
 62
256
370
-1
  6
ByLayer
100
AcDbCircle
 10
83.9498386199266093
 20
202.1240182650995507
 30
0.0
 40
0.8888888888888888
100
AcDbArc
 50
135.0
 51
210.0
  0
LINE
  5
E2
100
AcDbEntity
100
AcDbLine
  8
em_text
 62
256
370
-1
  6
ByLayer
 10
83.3212992588719032
 20
202.752557626154271
 30
0.0
 11
85.3531570810151692
 21
204.7844154482975512
 31
0.0
  0
LINE
  5
E3
100
AcDbEntity
100
AcDbLine
  8
em_text
 62
256
370
-1
  6
ByLayer
 10
87.0052451358155992
 20
210.079253653239391
 30
0.0
 11
85.6019260461876712
 21
208.6759345636114631
 31
0.0
  0
ARC
  5
E4
100
AcDbEntity
  8
em_text
 62
256
370
-1
  6
ByLayer
100
AcDbCircle
 10
86.2304654072423773
 20
208.0473952025567712
 30
0.0
 40
0.8888888888888888
100
AcDbArc
 50
135.0
 51
210.0
  0
LINE
  5
E5
100
AcDbEntity
100
AcDbLine
  8
em_text
 62
256
370
-1
  6
ByLayer
 10
85.4606542823182878
 20
207.6029411924890269
 30
0.0
 11
87.20703204082794
 21
204.5780012365090954
 31
0.0
  0
ARC
  5
E6
100
AcDbEntity
  8
em_text
 62
256
370
-1
  6
ByLayer
100
AcDbCircle
 10
87.9768437942914119
 20
205.0224558751161794
 30
0.0
 40
0.8888888888888888
100
AcDbArc
 50
210.0
 51
315.0
  0
LINE
  5
E7
100
AcDbEntity
100
AcDbLine
  8
em_text
 62
256
370
-1
  6
ByLayer
 10
88.605383155346118
 20
204.3939165140614591
 30
0.0
 11
89.6718742867784471
 21
205.4604076454938024
 31
0.0
  0
LINE
  5
E8
100
AcDbEntity
100
AcDbLine
  8
em_text
 62
256
370
-1
  6
ByLayer
 10
86.9622316731811793
 20
213.6789777699592321
 30
0.0
 11
90.9622523956971918
 21
206.7507857544125329
 31
0.0
  0
LINE
  5
E9
100
AcDbEntity
100
AcDbLine
  8
em_text
 62
256
370
-1
  6
ByLayer
 10
89.6289437913396796
 20
209.0602021586220474
 30
0.0
 11
90.8097806889531824
 21
213.8837892063769743
 31
0.0
  0
LINE
  5
EA
100
AcDbEntity
100
AcDbLine
  8
em_text
 62
256
370
-1
  6
ByLayer
 10
93.4764098399160304
 20
209.2649431986313573
 30
0.0
 11
90.0225558810310815
 21
210.668064298360548
 31
0.0
  0
LINE
  5
EB
100
AcDbEntity
100
AcDbLine
  8
em_text
 62
256
370
-1
  6
ByLayer
 10
90.7667860824995785
 20
217.4835321792776028
 30
0.0
 11
93.4334604882964328
 21
212.8647188555787864
 31
0.0
  0
LINE
  5
EC
100
AcDbEntity
100
AcDbLine
  8
em_text
 62
256
370
-1
  6
ByLayer
 10
94.7667879488347609
 20
210.5553213075500878
 30
0.0
 11
94.5445772858242748
 21
210.9402293841695553
 31
0.0
  0
ARC
  5
ED
100
AcDbEntity
  8
em_text
 62
256
370
-1
  6
ByLayer
100
AcDbCircle
 10
65.5106315183472816
 20
139.6233132489446405
 30
0.0
 40
3.5751199999999996
100
AcDbArc
 50
105.1808699999999988
 51
164.4518510000000049
  0
ARC
  5
EE
100
AcDbEntity
  8
em_text
 62
256
370
-1
  6
ByLayer
100
AcDbCircle
 10
63.5388331463102318
 20
140.1719200023752876
 30
0.0
 40
1.5284177777777777
100
AcDbArc
 50
164.4518510000000049
 51
286.1073299999999904
  0
LINE
  5
EF
100
AcDbEntity
100
AcDbLine
  8
em_text
 62
256
370
-1
  6
ByLayer
 10
63.9629029963596096
 20
138.7035332610122396
 30
0.0
 11
65.5645463676598439
 21
139.166049606698607
 31
0.0
  0
ARC
  5
F0
100
AcDbEntity
  8
em_text
 62
256
370
-1
  6
ByLayer
100
AcDbCircle
 10
66.1215642348201413
 20
137.2370937345897346
 30
0.0
 40
2.0077599999999998
100
AcDbArc
 50
336.921447999999998
 51
106.1073110000000099
  0
ARC
  5
F1
100
AcDbEntity
  8
em_text
 62
256
370
-1
  6
ByLayer
100
AcDbCircle
 10
64.6796163731405045
 20
137.8514752465367224
 30
0.0
 40
3.5751199999999996
100
AcDbArc
 50
276.799301000000014
 51
336.921447999999998
  0
LINE
  5
F2
100
AcDbEntity
100
AcDbLine
  8
em_text
 62
256
370
-1
  6
ByLayer
 10
66.6777570999519753
 20
145.7841337709801053
 30
0.0
 11
70.6777778224679878
 21
138.8559417554334345
 31
0.0
  0
LINE
  5
F3
100
AcDbEntity
100
AcDbLine
  8
em_text
 62
256
370
-1
  6
ByLayer
 10
67.3826093104504338
 20
142.8462484021243313
 30
0.0
 11
69.2682273936145663
 21
144.7318664852884353
 31
0.0
  0
LINE
  5
F4
100
AcDbEntity
100
AcDbLine
  8
em_text
 62
256
370
-1
  6
ByLayer
 10
75.7393920977149833
 20
143.9175560306804016
 30
0.0
 11
74.0443616052279481
 21
142.2225255381933664
 31
0.0
  0
ARC
  5
F5
100
AcDbEntity
  8
em_text
 62
256
370
-1
  6
ByLayer
100
AcDbCircle
 10
73.415822244173242
 20
142.8510648992480867
 30
0.0
 40
0.8888888888888888
100
AcDbArc
 50
210.0
 51
315.0
  0
LINE
  5
F6
100
AcDbEntity
100
AcDbLine
  8
em_text
 62
256
370
-1
  6
ByLayer
 10
72.6460104907097985
 20
142.4066102606410027
 30
0.0
 11
70.8996327322001179
 21
145.4315502166209342
 31
0.0
  0
ARC
  5
F7
100
AcDbEntity
  8
em_text
 62
256
370
-1
  6
ByLayer
100
AcDbCircle
 10
71.6694501425178032
 20
145.8759979412950543
 30
0.0
 40
0.8888888888888888
100
AcDbArc
 50
135.0
 51
210.0
  0
LINE
  5
F8
100
AcDbEntity
100
AcDbLine
  8
em_text
 62
256
370
-1
  6
ByLayer
 10
71.0408278142674448
 20
146.5044669059413422
 30
0.0
 11
72.2536359950203462
 21
147.7172750866942295
 31
0.0
  0
ARC
  5
F9
100
AcDbEntity
  8
em_text
 62
256
370
-1
  6
ByLayer
100
AcDbCircle
 10
72.8821816414686623
 20
147.0887294402459133
 30
0.0
 40
0.8888888888888888
100
AcDbArc
 50
30.0000000000000178
 51
135.0
  0
LINE
  5
FA
100
AcDbEntity
100
AcDbLine
  8
em_text
 62
256
370
-1
  6
ByLayer
 10
73.651909799197071
 20
147.5331130539051969
 30
0.0
 11
74.4060834933574711
 21
146.2269724348899445
 31
0.0
  0
LINE
  5
FB
100
AcDbEntity
100
AcDbLine
  8
em_text
 62
256
370
-1
  6
ByLayer
 10
74.4060834933574711
 20
146.2269724348899445
 30
0.0
 11
71.8919260491386325
 21
143.7128149906710917
 31
0.0
  0
LINE
  5
FC
100
AcDbEntity
100
AcDbLine
  8
em_text
 62
256
370
-1
  6
ByLayer
 10
78.1724975057077245
 20
142.7079238593188961
 30
0.0
 11
74.1725534649937686
 21
149.6361925566676518
 31
0.0
  0
LINE
  5
FD
100
AcDbEntity
100
AcDbLine
  8
em_text
 62
256
370
-1
  6
ByLayer
 10
74.1725534649937686
 20
149.6361925566676518
 30
0.0
 11
75.8675072756787614
 21
151.3311463673526305
 31
0.0
  0
ARC
  5
FE
100
AcDbEntity
  8
em_text
 62
256
370
-1
  6
ByLayer
100
AcDbCircle
 10
76.4960403513398575
 20
150.7026132916915344
 30
0.0
 40
0.88888
100
AcDbArc
 50
30.0000000000000178
 51
135.0
  0
LINE
  5
FF
100
AcDbEntity
100
AcDbLine
  8
em_text
 62
256
370
-1
  6
ByLayer
 10
77.2658577616575428
 20
151.1470610163656545
 30
0.0
 11
79.0123122019693085
 21
148.1221977421877511
 31
0.0
  0
ARC
  5
100
100
AcDbEntity
  8
em_text
 62
256
370
-1
  6
ByLayer
100
AcDbCircle
 10
78.2425073624387863
 20
147.677737446726411
 30
0.0
 40
0.88888
100
AcDbArc
 50
315.0
 51
30.0000000000000178
  0
LINE
  5
101
100
AcDbEntity
100
AcDbLine
  8
em_text
 62
256
370
-1
  6
ByLayer
 10
78.8710404380998966
 20
147.0492043710653149
 30
0.0
 11
76.8391826159566165
 21
145.0173465489220348
 31
0.0
  0
LINE
  5
102
100
AcDbEntity
100
AcDbLine
  8
em_text
 62
256
370
-1
  6
ByLayer
 10
81.7863625009725581
 20
146.3217888545837297
 30
0.0
 11
77.786418460258588
 21
153.2500575519324855
 31
0.0
  0
LINE
  5
103
100
AcDbEntity
100
AcDbLine
  8
em_text
 62
256
370
-1
  6
ByLayer
 10
77.786418460258588
 20
153.2500575519324855
 30
0.0
 11
79.4813722709435808
 21
154.9450113626174641
 31
0.0
  0
ARC
  5
104
100
AcDbEntity
  8
em_text
 62
256
370
-1
  6
ByLayer
100
AcDbCircle
 10
80.1099053466046769
 20
154.316478286956368
 30
0.0
 40
0.88888
100
AcDbArc
 50
30.0000000000000178
 51
135.0
  0
LINE
  5
105
100
AcDbEntity
100
AcDbLine
  8
em_text
 62
256
370
-1
  6
ByLayer
 10
80.8797227569223622
 20
154.7609260116304881
 30
0.0
 11
82.6261771972340995
 21
151.7360627374525848
 31
0.0
  0
ARC
  5
106
100
AcDbEntity
  8
em_text
 62
256
370
-1
  6
ByLayer
100
AcDbCircle
 10
81.8563723577036058
 20
151.2916024419912446
 30
0.0
 40
0.88888
100
AcDbArc
 50
315.0
 51
30.0000000000000178
  0
LINE
  5
107
100
AcDbEntity
100
AcDbLine
  8
em_text
 62
256
370
-1
  6
ByLayer
 10
82.484905433364716
 20
150.6630693663301486
 30
0.0
 11
80.4530476112214359
 21
148.6312115441868684
 31
0.0
  0
LINE
  5
108
100
AcDbEntity
100
AcDbLine
  8
em_text
 62
256
370
-1
  6
ByLayer
 10
86.5810700507050939
 20
154.759233983670498
 30
0.0
 11
84.8860395582180587
 21
153.0642034911834628
 31
0.0
  0
ARC
  5
109
100
AcDbEntity
  8
em_text
 62
256
370
-1
  6
ByLayer
100
AcDbCircle
 10
84.2575001971633526
 20
153.6927428522381831
 30
0.0
 40
0.8888888888888888
100
AcDbArc
 50
210.0
 51
315.0
  0
LINE
  5
10A
100
AcDbEntity
100
AcDbLine
  8
em_text
 62
256
370
-1
  6
ByLayer
 10
83.4876884436999092
 20
153.2482882136310991
 30
0.0
 11
81.7413106851902285
 21
156.2732281696110306
 31
0.0
  0
ARC
  5
10B
100
AcDbEntity
  8
em_text
 62
256
370
-1
  6
ByLayer
100
AcDbCircle
 10
82.5111280955079138
 20
156.7176758942851507
 30
0.0
 40
0.8888888888888888
100
AcDbArc
 50
135.0
 51
210.0
  0
LINE
  5
10C
100
AcDbEntity
100
AcDbLine
  8
em_text
 62
256
370
-1
  6
ByLayer
 10
81.8825057672575554
 20
157.3461448589314386
 30
0.0
 11
83.0953139480104568
 21
158.5589530396843259
 31
0.0
  0
ARC
  5
10D
100
AcDbEntity
  8
em_text
 62
256
370
-1
  6
ByLayer
100
AcDbCircle
 10
83.7238595944587729
 20
157.9304073932360097
 30
0.0
 40
0.8888888888888888
100
AcDbArc
 50
30.0000000000000178
 51
135.0
  0
LINE
  5
10E
100
AcDbEntity
100
AcDbLine
  8
em_text
 62
256
370
-1
  6
ByLayer
 10
84.4935877521871816
 20
158.3747910068952933
 30
0.0
 11
85.2477614463475817
 21
157.0686503878800409
 31
0.0
  0
LINE
  5
10F
100
AcDbEntity
100
AcDbLine
  8
em_text
 62
256
370
-1
  6
ByLayer
 10
85.2477614463475817
 20
157.0686503878800409
 30
0.0
 11
82.7336040021287431
 21
154.5544929436611881
 31
0.0
  0
LINE
  5
110
100
AcDbEntity
100
AcDbLine
  8
em_text
 62
256
370
-1
  6
ByLayer
 10
87.6808605689467271
 20
155.859024501912188
 30
0.0
 11
85.0142314179838792
 21
160.4778705096578051
 31
0.0
  0
LINE
  5
111
100
AcDbEntity
100
AcDbLine
  8
em_text
 62
256
370
-1
  6
ByLayer
 10
85.0142314179838792
 20
160.4778705096578051
 30
0.0
 11
86.0807225494162083
 21
161.54436164109012
 31
0.0
  0
ARC
  5
112
100
AcDbEntity
  8
em_text
 62
256
370
-1
  6
ByLayer
100
AcDbCircle
 10
86.7092619104709144
 20
160.9158222800354281
 30
0.0
 40
0.8888888888888888
100
AcDbArc
 50
30.0000000000000178
 51
135.0
  0
ARC
  5
113
100
AcDbEntity
  8
em_text
 62
256
370
-1
  6
ByLayer
100
AcDbCircle
 10
77.0956886305110345
 20
133.106436762732784
 30
0.0
 40
3.5751199999999996
100
AcDbArc
 50
105.1808699999999988
 51
164.4518510000000049
  0
ARC
  5
114
100
AcDbEntity
  8
em_text
 62
256
370
-1
  6
ByLayer
100
AcDbCircle
 10
75.1238902584739918
 20
133.6550435161634311
 30
0.0
 40
1.5284177777777777
100
AcDbArc
 50
164.4518510000000049
 51
286.1073299999999904
  0
LINE
  5
115
100
AcDbEntity
100
AcDbLine
  8
em_text
 62
256
370
-1
  6
ByLayer
 10
75.5479601085233554
 20
132.1866567748003831
 30
0.0
 11
77.1496034798235968
 21
132.6491731204867506
 31
0.0
  0
ARC
  5
116
100
AcDbEntity
  8
em_text
 62
256
370
-1
  6
ByLayer
100
AcDbCircle
 10
77.7066213469838942
 20
130.7202172483778781
 30
0.0
 40
2.0077599999999998
100
AcDbArc
 50
336.921447999999998
 51
106.1073110000000099
  0
ARC
  5
117
100
AcDbEntity
  8
em_text
 62
256
370
-1
  6
ByLayer
100
AcDbCircle
 10
76.2646734853042574
 20
131.3345987603248659
 30
0.0
 40
3.5751199999999996
100
AcDbArc
 50
276.799301000000014
 51
336.921447999999998
  0
LINE
  5
118
100
AcDbEntity
100
AcDbLine
  8
em_text
 62
256
370
-1
  6
ByLayer
 10
78.2628142121157424
 20
139.2672572847682488
 30
0.0
 11
82.2628349346317549
 21
132.3390652692215781
 31
0.0
  0
LINE
  5
119
100
AcDbEntity
100
AcDbLine
  8
em_text
 62
256
370
-1
  6
ByLayer
 10
78.9676664226142009
 20
136.3293719159124748
 30
0.0
 11
80.8532845057783334
 21
138.2149899990765789
 31
0.0
  0
LINE
  5
11A
100
AcDbEntity
100
AcDbLine
  8
em_text
 62
256
370
-1
  6
ByLayer
 10
82.4579322952244098
 20
139.8196377885226696
 30
0.0
 11
83.8386931071841133
 21
141.200398600482373
 31
0.0
  0
ARC
  5
11B
100
AcDbEntity
  8
em_text
 62
256
370
-1
  6
ByLayer
100
AcDbCircle
 10
84.4672324682388194
 20
140.5718592394276527
 30
0.0
 40
0.8888888888888888
100
AcDbArc
 50
30.0000000000000178
 51
135.0
  0
LINE
  5
11C
100
AcDbEntity
100
AcDbLine
  8
em_text
 62
256
370
-1
  6
ByLayer
 10
85.2370435931628947
 20
141.016313249495397
 30
0.0
 11
87.3244492098787504
 21
137.4006795444685451
 31
0.0
  0
LINE
  5
11D
100
AcDbEntity
100
AcDbLine
  8
em_text
 62
256
370
-1
  6
ByLayer
 10
87.3244492098787504
 20
137.4006795444685451
 30
0.0
 11
85.6294187173917152
 21
135.70564905198151
 31
0.0
  0
ARC
  5
11E
100
AcDbEntity
  8
em_text
 62
256
370
-1
  6
ByLayer
100
AcDbCircle
 10
85.0008793563370091
 20
136.3341884130362303
 30
0.0
 40
0.8888888888888888
100
AcDbArc
 50
210.0
 51
315.0
  0
LINE
  5
11F
100
AcDbEntity
100
AcDbLine
  8
em_text
 62
256
370
-1
  6
ByLayer
 10
84.2310613174799556
 20
135.8897400598227421
 30
0.0
 11
83.818011019508603
 21
136.6052447554123432
 31
0.0
  0
ARC
  5
120
100
AcDbEntity
  8
em_text
 62
256
370
-1
  6
ByLayer
100
AcDbCircle
 10
84.5878221444326783
 20
137.0496987654800876
 30
0.0
 40
0.8888888888888888
100
AcDbArc
 50
135.0
 51
210.0
  0
LINE
  5
121
100
AcDbEntity
100
AcDbLine
  8
em_text
 62
256
370
-1
  6
ByLayer
 10
83.9592827833779722
 20
137.6782381265348079
 30
0.0
 11
85.9911406055212382
 21
139.710095948678088
 31
0.0
  0
LINE
  5
122
100
AcDbEntity
100
AcDbLine
  8
em_text
 62
256
370
-1
  6
ByLayer
 10
87.6432286603216681
 20
145.0049341536199563
 30
0.0
 11
86.2399095706937402
 21
143.6016150639919999
 31
0.0
  0
ARC
  5
123
100
AcDbEntity
  8
em_text
 62
256
370
-1
  6
ByLayer
100
AcDbCircle
 10
86.8684489317484463
 20
142.9730757029373081
 30
0.0
 40
0.8888888888888888
100
AcDbArc
 50
135.0
 51
210.0
  0
LINE
  5
124
100
AcDbEntity
100
AcDbLine
  8
em_text
 62
256
370
-1
  6
ByLayer
 10
86.0986378068243567
 20
142.5286216928695637
 30
0.0
 11
87.8450155653340374
 21
139.5036817368896322
 31
0.0
  0
ARC
  5
125
100
AcDbEntity
  8
em_text
 62
256
370
-1
  6
ByLayer
100
AcDbCircle
 10
88.6148273187974809
 20
139.9481363754967163
 30
0.0
 40
0.8888888888888888
100
AcDbArc
 50
210.0
 51
315.0
  0
LINE
  5
126
100
AcDbEntity
100
AcDbLine
  8
em_text
 62
256
370
-1
  6
ByLayer
 10
89.243366679852187
 20
139.319597014441996
 30
0.0
 11
90.3098578112845161
 21
140.3860881458743393
 31
0.0
  0
LINE
  5
127
100
AcDbEntity
100
AcDbLine
  8
em_text
 62
256
370
-1
  6
ByLayer
 10
87.6002151976872483
 20
148.6046582703397689
 30
0.0
 11
91.6002359202032608
 21
141.6764662547930698
 31
0.0
  0
LINE
  5
128
100
AcDbEntity
100
AcDbLine
  8
em_text
 62
256
370
-1
  6
ByLayer
 10
90.2669273158457486
 20
143.9858826590025842
 30
0.0
 11
91.4477642134592514
 21
148.8094697067575112
 31
0.0
  0
LINE
  5
129
100
AcDbEntity
100
AcDbLine
  8
em_text
 62
256
370
-1
  6
ByLayer
 10
94.1143933644220994
 20
144.1906236990118941
 30
0.0
 11
90.6605394055371505
 21
145.5937447987410849
 31
0.0
  0
LINE
  5
12A
100
AcDbEntity
100
AcDbLine
  8
em_text
 62
256
370
-1
  6
ByLayer
 10
91.4047696070056475
 20
152.4092126796581397
 30
0.0
 11
94.0714440128025018
 21
147.7903993559593232
 31
0.0
  0
LINE
  5
12B
100
AcDbEntity
100
AcDbLine
  8
em_text
 62
256
370
-1
  6
ByLayer
 10
95.4047714733408299
 20
145.4810018079306246
 30
0.0
 11
95.1825608103303438
 21
145.8659098845500921
 31
0.0
  0
ARC
  5
12C
100
AcDbEntity
  8
em_text
 62
256
370
-1
  6
ByLayer
100
AcDbCircle
 10
-157.1456185342723018
 20
202.7836821750458967
 30
0.0
 40
3.5751199999999996
100
AcDbArc
 50
105.1808699999999988
 51
164.4518510000000049
  0
ARC
  5
12D
100
AcDbEntity
  8
em_text
 62
256
370
-1
  6
ByLayer
100
AcDbCircle
 10
-159.1174169063093586
 20
203.3322889284765438
 30
0.0
 40
1.5284177777777777
100
AcDbArc
 50
164.4518510000000049
 51
286.1073299999999904
  0
LINE
  5
12E
100
AcDbEntity
100
AcDbLine
  8
em_text
 62
256
370
-1
  6
ByLayer
 10
-158.693347056259995
 20
201.8639021871134958
 30
0.0
 11
-157.0917036849597537
 21
202.3264185327998632
 31
0.0
  0
ARC
  5
12F
100
AcDbEntity
  8
em_text
 62
256
370
-1
  6
ByLayer
100
AcDbCircle
 10
-156.534685817799442
 20
200.3974626606910192
 30
0.0
 40
2.0077599999999998
100
AcDbArc
 50
336.921447999999998
 51
106.1073110000000099
  0
ARC
  5
130
100
AcDbEntity
  8
em_text
 62
256
370
-1
  6
ByLayer
100
AcDbCircle
 10
-157.9766336794791073
 20
201.0118441726379501
 30
0.0
 40
3.5751199999999996
100
AcDbArc
 50
276.799301000000014
 51
336.921447999999998
  0
LINE
  5
131
100
AcDbEntity
100
AcDbLine
  8
em_text
 62
256
370
-1
  6
ByLayer
 10
-155.9784929526676081
 20
208.9445026970813615
 30
0.0
 11
-151.9784722301515956
 21
202.0163106815346907
 31
0.0
  0
LINE
  5
132
100
AcDbEntity
100
AcDbLine
  8
em_text
 62
256
370
-1
  6
ByLayer
 10
-155.2736407421691638
 20
206.006617328225559
 30
0.0
 11
-153.3880226590050313
 21
207.89223541138972
 31
0.0
  0
LINE
  5
133
100
AcDbEntity
100
AcDbLine
  8
em_text
 62
256
370
-1
  6
ByLayer
 10
-146.9168579549046285
 20
207.0779249567816578
 30
0.0
 11
-148.6118884473916353
 21
205.382894464294651
 31
0.0
  0
ARC
  5
134
100
AcDbEntity
  8
em_text
 62
256
370
-1
  6
ByLayer
100
AcDbCircle
 10
-149.2404278084463556
 20
206.0114338253493429
 30
0.0
 40
0.8888888888888888
100
AcDbArc
 50
210.0
 51
315.0
  0
LINE
  5
135
100
AcDbEntity
100
AcDbLine
  8
em_text
 62
256
370
-1
  6
ByLayer
 10
-150.0102395619098274
 20
205.5669791867422589
 30
0.0
 11
-151.7566173204194797
 21
208.5919191427221904
 31
0.0
  0
ARC
  5
136
100
AcDbEntity
  8
em_text
 62
256
370
-1
  6
ByLayer
100
AcDbCircle
 10
-150.9867999101018086
 20
209.0363668673963105
 30
0.0
 40
0.8888888888888888
100
AcDbArc
 50
135.0
 51
210.0
  0
LINE
  5
137
100
AcDbEntity
100
AcDbLine
  8
em_text
 62
256
370
-1
  6
ByLayer
 10
-151.6154222383521528
 20
209.6648358320425984
 30
0.0
 11
-150.4026140575992656
 21
210.8776440127954572
 31
0.0
  0
ARC
  5
138
100
AcDbEntity
  8
em_text
 62
256
370
-1
  6
ByLayer
100
AcDbCircle
 10
-149.7740684111509495
 20
210.2490983663471411
 30
0.0
 40
0.8888888888888888
100
AcDbArc
 50
30.0000000000000178
 51
135.0
  0
LINE
  5
139
100
AcDbEntity
100
AcDbLine
  8
em_text
 62
256
370
-1
  6
ByLayer
 10
-149.0043402534225265
 20
210.6934819800064531
 30
0.0
 11
-148.2501665592621123
 21
209.3873413609912006
 31
0.0
  0
LINE
  5
13A
100
AcDbEntity
100
AcDbLine
  8
em_text
 62
256
370
-1
  6
ByLayer
 10
-148.2501665592621123
 20
209.3873413609912006
 30
0.0
 11
-150.7643240034809651
 21
206.8731839167723763
 31
0.0
  0
LINE
  5
13B
100
AcDbEntity
100
AcDbLine
  8
em_text
 62
256
370
-1
  6
ByLayer
 10
-144.4837525469118589
 20
205.8682927854201523
 30
0.0
 11
-148.4836965876258148
 21
212.7965614827688796
 31
0.0
  0
LINE
  5
13C
100
AcDbEntity
100
AcDbLine
  8
em_text
 62
256
370
-1
  6
ByLayer
 10
-148.4836965876258148
 20
212.7965614827688796
 30
0.0
 11
-146.7887427769408077
 21
214.4915152934538867
 31
0.0
  0
ARC
  5
13D
100
AcDbEntity
  8
em_text
 62
256
370
-1
  6
ByLayer
100
AcDbCircle
 10
-146.1602097012797117
 20
213.8629822177927906
 30
0.0
 40
0.88888
100
AcDbArc
 50
30.0000000000000178
 51
135.0
  0
LINE
  5
13E
100
AcDbEntity
100
AcDbLine
  8
em_text
 62
256
370
-1
  6
ByLayer
 10
-145.3903922909620405
 20
214.3074299424669107
 30
0.0
 11
-143.6439378506503033
 21
211.2825666682890073
 31
0.0
  0
ARC
  5
13F
100
AcDbEntity
  8
em_text
 62
256
370
-1
  6
ByLayer
100
AcDbCircle
 10
-144.4137426901807828
 20
210.8381063728276672
 30
0.0
 40
0.88888
100
AcDbArc
 50
315.0
 51
30.0000000000000178
  0
LINE
  5
140
100
AcDbEntity
100
AcDbLine
  8
em_text
 62
256
370
-1
  6
ByLayer
 10
-143.7852096145196867
 20
210.2095732971665711
 30
0.0
 11
-145.8170674366629669
 21
208.177715475023291
 31
0.0
  0
LINE
  5
141
100
AcDbEntity
100
AcDbLine
  8
em_text
 62
256
370
-1
  6
ByLayer
 10
-140.8698875516470252
 20
209.4821577806849859
 30
0.0
 11
-144.8698315923609812
 21
216.4104264780337132
 31
0.0
  0
LINE
  5
142
100
AcDbEntity
100
AcDbLine
  8
em_text
 62
256
370
-1
  6
ByLayer
 10
-144.8698315923609812
 20
216.4104264780337132
 30
0.0
 11
-143.1748777816760025
 21
218.1053802887187203
 31
0.0
  0
ARC
  5
143
100
AcDbEntity
  8
em_text
 62
256
370
-1
  6
ByLayer
100
AcDbCircle
 10
-142.5463447060149065
 20
217.4768472130576242
 30
0.0
 40
0.88888
100
AcDbArc
 50
30.0000000000000178
 51
135.0
  0
LINE
  5
144
100
AcDbEntity
100
AcDbLine
  8
em_text
 62
256
370
-1
  6
ByLayer
 10
-141.7765272956972069
 20
217.9212949377317443
 30
0.0
 11
-140.0300728553854412
 21
214.896431663553841
 31
0.0
  0
ARC
  5
145
100
AcDbEntity
  8
em_text
 62
256
370
-1
  6
ByLayer
100
AcDbCircle
 10
-140.7998776949159492
 20
214.4519713680925008
 30
0.0
 40
0.88888
100
AcDbArc
 50
315.0
 51
30.0000000000000178
  0
LINE
  5
146
100
AcDbEntity
100
AcDbLine
  8
em_text
 62
256
370
-1
  6
ByLayer
 10
-140.1713446192548531
 20
213.8234382924314048
 30
0.0
 11
-142.2032024413981333
 21
211.7915804702881246
 31
0.0
  0
LINE
  5
147
100
AcDbEntity
100
AcDbLine
  8
em_text
 62
256
370
-1
  6
ByLayer
 10
-136.0751800019145037
 20
217.9196029097717542
 30
0.0
 11
-137.7702104944015105
 21
216.2245724172847474
 31
0.0
  0
ARC
  5
148
100
AcDbEntity
  8
em_text
 62
256
370
-1
  6
ByLayer
100
AcDbCircle
 10
-138.3987498554562308
 20
216.8531117783394393
 30
0.0
 40
0.8888888888888888
100
AcDbArc
 50
210.0
 51
315.0
  0
LINE
  5
149
100
AcDbEntity
100
AcDbLine
  8
em_text
 62
256
370
-1
  6
ByLayer
 10
-139.1685616089197026
 20
216.4086571397323553
 30
0.0
 11
-140.9149393674293549
 21
219.4335970957122868
 31
0.0
  0
ARC
  5
14A
100
AcDbEntity
  8
em_text
 62
256
370
-1
  6
ByLayer
100
AcDbCircle
 10
-140.1451219571116837
 20
219.8780448203864069
 30
0.0
 40
0.8888888888888888
100
AcDbArc
 50
135.0
 51
210.0
  0
LINE
  5
14B
100
AcDbEntity
100
AcDbLine
  8
em_text
 62
256
370
-1
  6
ByLayer
 10
-140.773744285362028
 20
220.5065137850326948
 30
0.0
 11
-139.5609361046091408
 21
221.7193219657855536
 31
0.0
  0
ARC
  5
14C
100
AcDbEntity
  8
em_text
 62
256
370
-1
  6
ByLayer
100
AcDbCircle
 10
-138.9323904581608247
 20
221.0907763193372375
 30
0.0
 40
0.8888888888888888
100
AcDbArc
 50
30.0000000000000178
 51
135.0
  0
LINE
  5
14D
100
AcDbEntity
100
AcDbLine
  8
em_text
 62
256
370
-1
  6
ByLayer
 10
-138.1626623004324017
 20
221.5351599329965495
 30
0.0
 11
-137.4084886062719875
 21
220.229019313981297
 31
0.0
  0
LINE
  5
14E
100
AcDbEntity
100
AcDbLine
  8
em_text
 62
256
370
-1
  6
ByLayer
 10
-137.4084886062719875
 20
220.229019313981297
 30
0.0
 11
-139.9226460504908403
 21
217.7148618697624727
 31
0.0
  0
LINE
  5
14F
100
AcDbEntity
100
AcDbLine
  8
em_text
 62
256
370
-1
  6
ByLayer
 10
-134.9753894836728421
 20
219.0193934280134158
 30
0.0
 11
-137.64201863463569
 21
223.6382394357590044
 31
0.0
  0
LINE
  5
150
100
AcDbEntity
100
AcDbLine
  8
em_text
 62
256
370
-1
  6
ByLayer
 10
-137.64201863463569
 20
223.6382394357590044
 30
0.0
 11
-136.5755275032033751
 21
224.7047305671913477
 31
0.0
  0
ARC
  5
151
100
AcDbEntity
  8
em_text
 62
256
370
-1
  6
ByLayer
100
AcDbCircle
 10
-135.9469881421486548
 20
224.0761912061366274
 30
0.0
 40
0.8888888888888888
100
AcDbArc
 50
30.0000000000000178
 51
135.0
  0
ARC
  5
152
100
AcDbEntity
  8
em_text
 62
256
370
-1
  6
ByLayer
100
AcDbCircle
 10
-145.5605614221085489
 20
196.2668056888340402
 30
0.0
 40
3.5751199999999996
100
AcDbArc
 50
105.1808699999999988
 51
164.4518510000000049
  0
ARC
  5
153
100
AcDbEntity
  8
em_text
 62
256
370
-1
  6
ByLayer
100
AcDbCircle
 10
-147.5323597941456057
 20
196.8154124422646873
 30
0.0
 40
1.5284177777777777
100
AcDbArc
 50
164.4518510000000049
 51
286.1073299999999904
  0
LINE
  5
154
100
AcDbEntity
100
AcDbLine
  8
em_text
 62
256
370
-1
  6
ByLayer
 10
-147.1082899440962422
 20
195.3470257009016393
 30
0.0
 11
-145.5066465727960008
 21
195.8095420465880068
 31
0.0
  0
ARC
  5
155
100
AcDbEntity
  8
em_text
 62
256
370
-1
  6
ByLayer
100
AcDbCircle
 10
-144.9496287056356891
 20
193.8805861744791628
 30
0.0
 40
2.0077599999999998
100
AcDbArc
 50
336.921447999999998
 51
106.1073110000000099
  0
ARC
  5
156
100
AcDbEntity
  8
em_text
 62
256
370
-1
  6
ByLayer
100
AcDbCircle
 10
-146.3915765673153544
 20
194.4949676864260937
 30
0.0
 40
3.5751199999999996
100
AcDbArc
 50
276.799301000000014
 51
336.921447999999998
  0
LINE
  5
157
100
AcDbEntity
100
AcDbLine
  8
em_text
 62
256
370
-1
  6
ByLayer
 10
-144.3934358405038267
 20
202.427626210869505
 30
0.0
 11
-140.3934151179878143
 21
195.4994341953228343
 31
0.0
  0
LINE
  5
158
100
AcDbEntity
100
AcDbLine
  8
em_text
 62
256
370
-1
  6
ByLayer
 10
-143.6885836300053825
 20
199.4897408420137026
 30
0.0
 11
-141.80296554684125
 21
201.3753589251778635
 31
0.0
  0
LINE
  5
159
100
AcDbEntity
100
AcDbLine
  8
em_text
 62
256
370
-1
  6
ByLayer
 10
-140.1983177573951593
 20
202.9800067146239257
 30
0.0
 11
-138.8175569454354843
 21
204.3607675265836008
 31
0.0
  0
ARC
  5
15A
100
AcDbEntity
  8
em_text
 62
256
370
-1
  6
ByLayer
100
AcDbCircle
 10
-138.1890175843807924
 20
203.7322281655289089
 30
0.0
 40
0.8888888888888888
100
AcDbArc
 50
30.0000000000000178
 51
135.0
  0
LINE
  5
15B
100
AcDbEntity
100
AcDbLine
  8
em_text
 62
256
370
-1
  6
ByLayer
 10
-137.4192064594566887
 20
204.1766821755966532
 30
0.0
 11
-135.3318008427408472
 21
200.5610484705698013
 31
0.0
  0
LINE
  5
15C
100
AcDbEntity
100
AcDbLine
  8
em_text
 62
256
370
-1
  6
ByLayer
 10
-135.3318008427408472
 20
200.5610484705698013
 30
0.0
 11
-137.026831335227854
 21
198.8660179780827946
 31
0.0
  0
ARC
  5
15D
100
AcDbEntity
  8
em_text
 62
256
370
-1
  6
ByLayer
100
AcDbCircle
 10
-137.6553706962825743
 20
199.4945573391374865
 30
0.0
 40
0.8888888888888888
100
AcDbArc
 50
210.0
 51
315.0
  0
LINE
  5
15E
100
AcDbEntity
100
AcDbLine
  8
em_text
 62
256
370
-1
  6
ByLayer
 10
-138.4251887351396135
 20
199.0501089859239983
 30
0.0
 11
-138.8382390331109946
 21
199.7656136815135994
 31
0.0
  0
ARC
  5
15F
100
AcDbEntity
  8
em_text
 62
256
370
-1
  6
ByLayer
100
AcDbCircle
 10
-138.0684279081869192
 20
200.2100676915813438
 30
0.0
 40
0.8888888888888888
100
AcDbArc
 50
135.0
 51
210.0
  0
LINE
  5
160
100
AcDbEntity
100
AcDbLine
  8
em_text
 62
256
370
-1
  6
ByLayer
 10
-138.6969672692416111
 20
200.8386070526360641
 30
0.0
 11
-136.665109447098331
 21
202.8704648747793442
 31
0.0
  0
LINE
  5
161
100
AcDbEntity
100
AcDbLine
  8
em_text
 62
256
370
-1
  6
ByLayer
 10
-135.013021392297901
 20
208.1653030797211841
 30
0.0
 11
-136.4163404819258574
 21
206.7619839900932561
 31
0.0
  0
ARC
  5
162
100
AcDbEntity
  8
em_text
 62
256
370
-1
  6
ByLayer
100
AcDbCircle
 10
-135.7878011208711371
 20
206.1334446290385642
 30
0.0
 40
0.8888888888888888
100
AcDbArc
 50
135.0
 51
210.0
  0
LINE
  5
163
100
AcDbEntity
100
AcDbLine
  8
em_text
 62
256
370
-1
  6
ByLayer
 10
-136.5576122457952124
 20
205.6889906189708199
 30
0.0
 11
-134.8112344872855601
 21
202.6640506629908884
 31
0.0
  0
ARC
  5
164
100
AcDbEntity
  8
em_text
 62
256
370
-1
  6
ByLayer
100
AcDbCircle
 10
-134.0414227338220883
 20
203.1085053015979724
 30
0.0
 40
0.8888888888888888
100
AcDbArc
 50
210.0
 51
315.0
  0
LINE
  5
165
100
AcDbEntity
100
AcDbLine
  8
em_text
 62
256
370
-1
  6
ByLayer
 10
-133.412883372767368
 20
202.4799659405432806
 30
0.0
 11
-132.3463922413350531
 21
203.5464570719755955
 31
0.0
  0
LINE
  5
166
100
AcDbEntity
100
AcDbLine
  8
em_text
 62
256
370
-1
  6
ByLayer
 10
-135.0560348549323351
 20
211.7650271964410251
 30
0.0
 11
-131.0560141324163226
 21
204.836835180894326
 31
0.0
  0
LINE
  5
167
100
AcDbEntity
100
AcDbLine
  8
em_text
 62
256
370
-1
  6
ByLayer
 10
-132.3893227367738348
 20
207.1462515851038688
 30
0.0
 11
-131.2084858391603461
 21
211.9698386328587674
 31
0.0
  0
LINE
  5
168
100
AcDbEntity
100
AcDbLine
  8
em_text
 62
256
370
-1
  6
ByLayer
 10
-128.5418566881974982
 20
207.3509926251131503
 30
0.0
 11
-131.9957106470824328
 21
208.7541137248423695
 31
0.0
  0
LINE
  5
169
100
AcDbEntity
100
AcDbLine
  8
em_text
 62
256
370
-1
  6
ByLayer
 10
-131.2514804456139359
 20
215.5695816057593959
 30
0.0
 11
-128.5848060398170958
 21
210.9507682820605794
 31
0.0
  0
LINE
  5
16A
100
AcDbEntity
100
AcDbLine
  8
em_text
 62
256
370
-1
  6
ByLayer
 10
-127.2514785792787535
 20
208.6413707340318808
 30
0.0
 11
-127.4736892422892396
 21
209.0262788106513483
 31
0.0
  0
ARC
  5
16B
100
AcDbEntity
  8
em_text
 62
256
370
-1
  6
ByLayer
100
AcDbCircle
 10
-162.2494867303208821
 20
149.1930661165357321
 30
0.0
 40
3.5751199999999996
100
AcDbArc
 50
105.1808699999999988
 51
164.4518510000000049
  0
ARC
  5
16C
100
AcDbEntity
  8
em_text
 62
256
370
-1
  6
ByLayer
100
AcDbCircle
 10
-164.221285102357939
 20
149.7416728699663793
 30
0.0
 40
1.5284177777777777
100
AcDbArc
 50
164.4518510000000049
 51
286.1073299999999904
  0
LINE
  5
16D
100
AcDbEntity
100
AcDbLine
  8
em_text
 62
256
370
-1
  6
ByLayer
 10
-163.7972152523085754
 20
148.2732861286033312
 30
0.0
 11
-162.195571881008334
 21
148.7358024742896987
 31
0.0
  0
ARC
  5
16E
100
AcDbEntity
  8
em_text
 62
256
370
-1
  6
ByLayer
100
AcDbCircle
 10
-161.6385540138480224
 20
146.8068466021808547
 30
0.0
 40
2.0077599999999998
100
AcDbArc
 50
336.921447999999998
 51
106.1073110000000099
  0
ARC
  5
16F
100
AcDbEntity
  8
em_text
 62
256
370
-1
  6
ByLayer
100
AcDbCircle
 10
-163.0805018755276876
 20
147.4212281141277856
 30
0.0
 40
3.5751199999999996
100
AcDbArc
 50
276.799301000000014
 51
336.921447999999998
  0
LINE
  5
170
100
AcDbEntity
100
AcDbLine
  8
em_text
 62
256
370
-1
  6
ByLayer
 10
-161.0823611487161884
 20
155.353886638571197
 30
0.0
 11
-157.0823404262001759
 21
148.4256946230245262
 31
0.0
  0
LINE
  5
171
100
AcDbEntity
100
AcDbLine
  8
em_text
 62
256
370
-1
  6
ByLayer
 10
-160.3775089382177441
 20
152.4160012697153945
 30
0.0
 11
-158.4918908550536116
 21
154.301619352879527
 31
0.0
  0
LINE
  5
172
100
AcDbEntity
100
AcDbLine
  8
em_text
 62
256
370
-1
  6
ByLayer
 10
-152.0207261509532088
 20
153.4873088982714933
 30
0.0
 11
-153.7157566434402156
 21
151.7922784057844865
 31
0.0
  0
ARC
  5
173
100
AcDbEntity
  8
em_text
 62
256
370
-1
  6
ByLayer
100
AcDbCircle
 10
-154.3442960044949359
 20
152.4208177668391784
 30
0.0
 40
0.8888888888888888
100
AcDbArc
 50
210.0
 51
315.0
  0
LINE
  5
174
100
AcDbEntity
100
AcDbLine
  8
em_text
 62
256
370
-1
  6
ByLayer
 10
-155.1141077579583794
 20
151.9763631282320944
 30
0.0
 11
-156.86048551646806
 21
155.0013030842120259
 31
0.0
  0
ARC
  5
175
100
AcDbEntity
  8
em_text
 62
256
370
-1
  6
ByLayer
100
AcDbCircle
 10
-156.0906681061503889
 20
155.4457508088861459
 30
0.0
 40
0.8888888888888888
100
AcDbArc
 50
135.0
 51
210.0
  0
LINE
  5
176
100
AcDbEntity
100
AcDbLine
  8
em_text
 62
256
370
-1
  6
ByLayer
 10
-156.7192904344007331
 20
156.0742197735324339
 30
0.0
 11
-155.5064822536478459
 21
157.2870279542852927
 31
0.0
  0
ARC
  5
177
100
AcDbEntity
  8
em_text
 62
256
370
-1
  6
ByLayer
100
AcDbCircle
 10
-154.8779366071995298
 20
156.6584823078369766
 30
0.0
 40
0.8888888888888888
100
AcDbArc
 50
30.0000000000000178
 51
135.0
  0
LINE
  5
178
100
AcDbEntity
100
AcDbLine
  8
em_text
 62
256
370
-1
  6
ByLayer
 10
-154.1082084494711069
 20
157.1028659214962886
 30
0.0
 11
-153.3540347553106926
 21
155.7967253024810361
 31
0.0
  0
LINE
  5
179
100
AcDbEntity
100
AcDbLine
  8
em_text
 62
256
370
-1
  6
ByLayer
 10
-153.3540347553106926
 20
155.7967253024810361
 30
0.0
 11
-155.8681921995295454
 21
153.2825678582622118
 31
0.0
  0
LINE
  5
17A
100
AcDbEntity
100
AcDbLine
  8
em_text
 62
256
370
-1
  6
ByLayer
 10
-149.5876207429604392
 20
152.2776767269099878
 30
0.0
 11
-153.5875647836743951
 21
159.2059454242587151
 31
0.0
  0
LINE
  5
17B
100
AcDbEntity
100
AcDbLine
  8
em_text
 62
256
370
-1
  6
ByLayer
 10
-153.5875647836743951
 20
159.2059454242587151
 30
0.0
 11
-151.8926109729894165
 21
160.9008992349437221
 31
0.0
  0
ARC
  5
17C
100
AcDbEntity
  8
em_text
 62
256
370
-1
  6
ByLayer
100
AcDbCircle
 10
-151.2640778973283204
 20
160.2723661592826261
 30
0.0
 40
0.88888
100
AcDbArc
 50
30.0000000000000178
 51
135.0
  0
LINE
  5
17D
100
AcDbEntity
100
AcDbLine
  8
em_text
 62
256
370
-1
  6
ByLayer
 10
-150.4942604870106209
 20
160.7168138839567462
 30
0.0
 11
-148.7478060466988552
 21
157.6919506097788428
 31
0.0
  0
ARC
  5
17E
100
AcDbEntity
  8
em_text
 62
256
370
-1
  6
ByLayer
100
AcDbCircle
 10
-149.5176108862293631
 20
157.2474903143175027
 30
0.0
 40
0.88888
100
AcDbArc
 50
315.0
 51
30.0000000000000178
  0
LINE
  5
17F
100
AcDbEntity
100
AcDbLine
  8
em_text
 62
256
370
-1
  6
ByLayer
 10
-148.8890778105682671
 20
156.6189572386564066
 30
0.0
 11
-150.9209356327115472
 21
154.5870994165131265
 31
0.0
  0
LINE
  5
180
100
AcDbEntity
100
AcDbLine
  8
em_text
 62
256
370
-1
  6
ByLayer
 10
-145.9737557476956056
 20
155.8915417221748214
 30
0.0
 11
-149.9736997884095615
 21
162.8198104195235487
 31
0.0
  0
LINE
  5
181
100
AcDbEntity
100
AcDbLine
  8
em_text
 62
256
370
-1
  6
ByLayer
 10
-149.9736997884095615
 20
162.8198104195235487
 30
0.0
 11
-148.2787459777245545
 21
164.5147642302085558
 31
0.0
  0
ARC
  5
182
100
AcDbEntity
  8
em_text
 62
256
370
-1
  6
ByLayer
100
AcDbCircle
 10
-147.6502129020634584
 20
163.8862311545474597
 30
0.0
 40
0.88888
100
AcDbArc
 50
30.0000000000000178
 51
135.0
  0
LINE
  5
183
100
AcDbEntity
100
AcDbLine
  8
em_text
 62
256
370
-1
  6
ByLayer
 10
-146.8803954917457872
 20
164.3306788792215798
 30
0.0
 11
-145.13394105143405
 21
161.3058156050436764
 31
0.0
  0
ARC
  5
184
100
AcDbEntity
  8
em_text
 62
256
370
-1
  6
ByLayer
100
AcDbCircle
 10
-145.9037458909645295
 20
160.8613553095823363
 30
0.0
 40
0.88888
100
AcDbArc
 50
315.0
 51
30.0000000000000178
  0
LINE
  5
185
100
AcDbEntity
100
AcDbLine
  8
em_text
 62
256
370
-1
  6
ByLayer
 10
-145.2752128153034334
 20
160.2328222339212402
 30
0.0
 11
-147.3070706374467136
 21
158.2009644117779601
 31
0.0
  0
LINE
  5
186
100
AcDbEntity
100
AcDbLine
  8
em_text
 62
256
370
-1
  6
ByLayer
 10
-141.179048197963084
 20
164.3289868512615897
 30
0.0
 11
-142.8740786904500908
 21
162.6339563587745829
 31
0.0
  0
ARC
  5
187
100
AcDbEntity
  8
em_text
 62
256
370
-1
  6
ByLayer
100
AcDbCircle
 10
-143.5026180515048111
 20
163.2624957198292748
 30
0.0
 40
0.8888888888888888
100
AcDbArc
 50
210.0
 51
315.0
  0
LINE
  5
188
100
AcDbEntity
100
AcDbLine
  8
em_text
 62
256
370
-1
  6
ByLayer
 10
-144.2724298049682545
 20
162.8180410812221908
 30
0.0
 11
-146.0188075634779352
 21
165.8429810372021223
 31
0.0
  0
ARC
  5
189
100
AcDbEntity
  8
em_text
 62
256
370
-1
  6
ByLayer
100
AcDbCircle
 10
-145.2489901531602641
 20
166.2874287618762423
 30
0.0
 40
0.8888888888888888
100
AcDbArc
 50
135.0
 51
210.0
  0
LINE
  5
18A
100
AcDbEntity
100
AcDbLine
  8
em_text
 62
256
370
-1
  6
ByLayer
 10
-145.8776124814106083
 20
166.9158977265225303
 30
0.0
 11
-144.6648043006577211
 21
168.1287059072753891
 31
0.0
  0
ARC
  5
18B
100
AcDbEntity
  8
em_text
 62
256
370
-1
  6
ByLayer
100
AcDbCircle
 10
-144.036258654209405
 20
167.500160260827073
 30
0.0
 40
0.8888888888888888
100
AcDbArc
 50
30.0000000000000178
 51
135.0
  0
LINE
  5
18C
100
AcDbEntity
100
AcDbLine
  8
em_text
 62
256
370
-1
  6
ByLayer
 10
-143.266530496480982
 20
167.944543874486385
 30
0.0
 11
-142.5123568023205678
 21
166.6384032554711325
 31
0.0
  0
LINE
  5
18D
100
AcDbEntity
100
AcDbLine
  8
em_text
 62
256
370
-1
  6
ByLayer
 10
-142.5123568023205678
 20
166.6384032554711325
 30
0.0
 11
-145.0265142465394206
 21
164.1242458112523082
 31
0.0
  0
LINE
  5
18E
100
AcDbEntity
100
AcDbLine
  8
em_text
 62
256
370
-1
  6
ByLayer
 10
-140.0792576797214224
 20
165.4287773695032797
 30
0.0
 11
-142.7458868306842703
 21
170.0476233772488683
 31
0.0
  0
LINE
  5
18F
100
AcDbEntity
100
AcDbLine
  8
em_text
 62
256
370
-1
  6
ByLayer
 10
-142.7458868306842703
 20
170.0476233772488683
 30
0.0
 11
-141.6793956992519554
 21
171.1141145086812116
 31
0.0
  0
ARC
  5
190
100
AcDbEntity
  8
em_text
 62
256
370
-1
  6
ByLayer
100
AcDbCircle
 10
-141.0508563381972351
 20
170.4855751476264913
 30
0.0
 40
0.8888888888888888
100
AcDbArc
 50
30.0000000000000178
 51
135.0
  0
ARC
  5
191
100
AcDbEntity
  8
em_text
 62
256
370
-1
  6
ByLayer
100
AcDbCircle
 10
-150.6644296181571292
 20
142.6761896303238757
 30
0.0
 40
3.5751199999999996
100
AcDbArc
 50
105.1808699999999988
 51
164.4518510000000049
  0
ARC
  5
192
100
AcDbEntity
  8
em_text
 62
256
370
-1
  6
ByLayer
100
AcDbCircle
 10
-152.6362279901941861
 20
143.2247963837545228
 30
0.0
 40
1.5284177777777777
100
AcDbArc
 50
164.4518510000000049
 51
286.1073299999999904
  0
LINE
  5
193
100
AcDbEntity
100
AcDbLine
  8
em_text
 62
256
370
-1
  6
ByLayer
 10
-152.2121581401448225
 20
141.7564096423914748
 30
0.0
 11
-150.6105147688445811
 21
142.2189259880778422
 31
0.0
  0
ARC
  5
194
100
AcDbEntity
  8
em_text
 62
256
370
-1
  6
ByLayer
100
AcDbCircle
 10
-150.0534969016842695
 20
140.2899701159689982
 30
0.0
 40
2.0077599999999998
100
AcDbArc
 50
336.921447999999998
 51
106.1073110000000099
  0
ARC
  5
195
100
AcDbEntity
  8
em_text
 62
256
370
-1
  6
ByLayer
100
AcDbCircle
 10
-151.4954447633639347
 20
140.9043516279159292
 30
0.0
 40
3.5751199999999996
100
AcDbArc
 50
276.799301000000014
 51
336.921447999999998
  0
LINE
  5
196
100
AcDbEntity
100
AcDbLine
  8
em_text
 62
256
370
-1
  6
ByLayer
 10
-149.4973040365524071
 20
148.8370101523593405
 30
0.0
 11
-145.4972833140363946
 21
141.9088181368126698
 31
0.0
  0
LINE
  5
197
100
AcDbEntity
100
AcDbLine
  8
em_text
 62
256
370
-1
  6
ByLayer
 10
-148.7924518260539628
 20
145.8991247835035381
 30
0.0
 11
-146.9068337428898303
 21
147.7847428666676706
 31
0.0
  0
LINE
  5
198
100
AcDbEntity
100
AcDbLine
  8
em_text
 62
256
370
-1
  6
ByLayer
 10
-145.3021859534437397
 20
149.3893906561137612
 30
0.0
 11
-143.9214251414840646
 21
150.7701514680734363
 31
0.0
  0
ARC
  5
199
100
AcDbEntity
  8
em_text
 62
256
370
-1
  6
ByLayer
100
AcDbCircle
 10
-143.2928857804293727
 20
150.1416121070187444
 30
0.0
 40
0.8888888888888888
100
AcDbArc
 50
30.0000000000000178
 51
135.0
  0
LINE
  5
19A
100
AcDbEntity
100
AcDbLine
  8
em_text
 62
256
370
-1
  6
ByLayer
 10
-142.523074655505269
 20
150.5860661170864887
 30
0.0
 11
-140.4356690387894275
 21
146.9704324120596368
 31
0.0
  0
LINE
  5
19B
100
AcDbEntity
100
AcDbLine
  8
em_text
 62
256
370
-1
  6
ByLayer
 10
-140.4356690387894275
 20
146.9704324120596368
 30
0.0
 11
-142.1306995312764343
 21
145.27540191957263
 31
0.0
  0
ARC
  5
19C
100
AcDbEntity
  8
em_text
 62
256
370
-1
  6
ByLayer
100
AcDbCircle
 10
-142.7592388923311546
 20
145.9039412806273219
 30
0.0
 40
0.8888888888888888
100
AcDbArc
 50
210.0
 51
315.0
  0
LINE
  5
19D
100
AcDbEntity
100
AcDbLine
  8
em_text
 62
256
370
-1
  6
ByLayer
 10
-143.5290569311881939
 20
145.4594929274138337
 30
0.0
 11
-143.9421072291595749
 21
146.1749976230034349
 31
0.0
  0
ARC
  5
19E
100
AcDbEntity
  8
em_text
 62
256
370
-1
  6
ByLayer
100
AcDbCircle
 10
-143.1722961042354996
 20
146.6194516330711792
 30
0.0
 40
0.8888888888888888
100
AcDbArc
 50
135.0
 51
210.0
  0
LINE
  5
19F
100
AcDbEntity
100
AcDbLine
  8
em_text
 62
256
370
-1
  6
ByLayer
 10
-143.8008354652901915
 20
147.2479909941258995
 30
0.0
 11
-141.7689776431469113
 21
149.2798488162691797
 31
0.0
  0
LINE
  5
1A0
100
AcDbEntity
100
AcDbLine
  8
em_text
 62
256
370
-1
  6
ByLayer
 10
-140.1168895883464813
 20
154.574687021211048
 30
0.0
 11
-141.5202086779744377
 21
153.1713679315830916
 31
0.0
  0
ARC
  5
1A1
100
AcDbEntity
  8
em_text
 62
256
370
-1
  6
ByLayer
100
AcDbCircle
 10
-140.8916693169197174
 20
152.5428285705283997
 30
0.0
 40
0.8888888888888888
100
AcDbArc
 50
135.0
 51
210.0
  0
LINE
  5
1A2
100
AcDbEntity
100
AcDbLine
  8
em_text
 62
256
370
-1
  6
ByLayer
 10
-141.6614804418437927
 20
152.0983745604606554
 30
0.0
 11
-139.915102683334112
 21
149.0734346044807239
 31
0.0
  0
ARC
  5
1A3
100
AcDbEntity
  8
em_text
 62
256
370
-1
  6
ByLayer
100
AcDbCircle
 10
-139.1452909298706686
 20
149.5178892430878079
 30
0.0
 40
0.8888888888888888
100
AcDbArc
 50
210.0
 51
315.0
  0
LINE
  5
1A4
100
AcDbEntity
100
AcDbLine
  8
em_text
 62
256
370
-1
  6
ByLayer
 10
-138.5167515688159483
 20
148.889349882033116
 30
0.0
 11
-137.4502604373836334
 21
149.9558410134654309
 31
0.0
  0
LINE
  5
1A5
100
AcDbEntity
100
AcDbLine
  8
em_text
 62
256
370
-1
  6
ByLayer
 10
-140.1599030509809154
 20
158.1744111379308606
 30
0.0
 11
-136.1598823284649029
 21
151.2462191223841614
 31
0.0
  0
LINE
  5
1A6
100
AcDbEntity
100
AcDbLine
  8
em_text
 62
256
370
-1
  6
ByLayer
 10
-137.4931909328224151
 20
153.5556355265937043
 30
0.0
 11
-136.3123540352089265
 21
158.3792225743486028
 31
0.0
  0
LINE
  5
1A7
100
AcDbEntity
100
AcDbLine
  8
em_text
 62
256
370
-1
  6
ByLayer
 10
-133.6457248842460785
 20
153.7603765666029858
 30
0.0
 11
-137.0995788431310132
 21
155.163497666332205
 31
0.0
  0
LINE
  5
1A8
100
AcDbEntity
100
AcDbLine
  8
em_text
 62
256
370
-1
  6
ByLayer
 10
-136.3553486416625447
 20
161.9789655472492313
 30
0.0
 11
-133.6886742358656761
 21
157.3601522235504149
 31
0.0
  0
LINE
  5
1A9
100
AcDbEntity
100
AcDbLine
  8
em_text
 62
256
370
-1
  6
ByLayer
 10
-132.355346775327348
 20
155.0507546755217163
 30
0.0
 11
-132.5775574383378341
 21
155.4356627521411838
 31
0.0
  0
LINE
  5
1AA
100
AcDbEntity
100
AcDbLine
  8
em_text
 62
256
370
-1
  6
ByLayer
 10
0.9238217835476235
 20
23.256865915583333
 30
0.0
 11
-3.0761989389683766
 21
30.1850579311300145
 31
0.0
  0
LINE
  5
1AB
100
AcDbEntity
100
AcDbLine
  8
em_text
 62
256
370
-1
  6
ByLayer
 10
-3.0761989389683766
 20
30.1850579311300145
 30
0.0
 11
1.0316653100386675
 21
28.2216845006885357
 31
0.0
  0
LINE
  5
1AC
100
AcDbEntity
100
AcDbLine
  8
em_text
 62
256
370
-1
  6
ByLayer
 10
1.0316653100386675
 20
28.2216845006885357
 30
0.0
 11
0.6950372273598771
 21
33.9562940974582688
 31
0.0
  0
LINE
  5
1AD
100
AcDbEntity
100
AcDbLine
  8
em_text
 62
256
370
-1
  6
ByLayer
 10
0.6950372273598771
 20
33.9562940974582688
 30
0.0
 11
4.6950579498758769
 21
27.0281020819115874
 31
0.0
  0
LINE
  5
1AE
100
AcDbEntity
100
AcDbLine
  8
em_text
 62
256
370
-1
  6
ByLayer
 10
5.0921741465051502
 20
34.7106934372492759
 30
0.0
 11
4.5301562487276659
 21
34.148675539471796
 31
0.0
  0
ARC
  5
1AF
100
AcDbEntity
  8
em_text
 62
256
370
-1
  6
ByLayer
100
AcDbCircle
 10
5.4729652903097259
 20
33.2058664978897369
 30
0.0
 40
1.3333333333333333
100
AcDbArc
 50
135.0
 51
210.0
  0
LINE
  5
1B0
100
AcDbEntity
100
AcDbLine
  8
em_text
 62
256
370
-1
  6
ByLayer
 10
4.3182932292182326
 20
32.5392175382955529
 30
0.0
 11
5.6046153736400823
 21
30.3113132611244218
 31
0.0
  0
ARC
  5
1B1
100
AcDbEntity
  8
em_text
 62
256
370
-1
  6
ByLayer
100
AcDbCircle
 10
6.7592943486645511
 20
30.9779565638643497
 30
0.0
 40
1.3333333333333333
100
AcDbArc
 50
210.0
 51
315.0
  0
LINE
  5
1B2
100
AcDbEntity
100
AcDbLine
  8
em_text
 62
256
370
-1
  6
ByLayer
 10
7.7021033902466129
 20
30.035147522282287
 30
0.0
 11
8.2641212880240964
 21
30.5971654200597705
 31
0.0
  0
ARC
  5
1B3
100
AcDbEntity
  8
em_text
 62
256
370
-1
  6
ByLayer
100
AcDbCircle
 10
7.3213122464420328
 20
31.5399744616418332
 30
0.0
 40
1.3333333333333333
100
AcDbArc
 50
315.0
 51
30.0000000000000178
  0
LINE
  5
1B4
100
AcDbEntity
100
AcDbLine
  8
em_text
 62
256
370
-1
  6
ByLayer
 10
8.475991221466499
 20
32.206617764381761
 30
0.0
 11
7.1897388449137312
 21
34.4346043802091941
 31
0.0
  0
ARC
  5
1B5
100
AcDbEntity
  8
em_text
 62
256
370
-1
  6
ByLayer
100
AcDbCircle
 10
6.0349831880872102
 20
33.7678843956672168
 30
0.0
 40
1.3333333333333333
100
AcDbArc
 50
30.0000000000000178
 51
135.0
  0
LINE
  5
1B6
100
AcDbEntity
100
AcDbLine
  8
em_text
 62
256
370
-1
  6
ByLayer
 10
6.6205090865075018
 20
39.8817659566058609
 30
0.0
 11
10.6205298090235019
 21
32.9535739410591759
 31
0.0
  0
LINE
  5
1B7
100
AcDbEntity
100
AcDbLine
  8
em_text
 62
256
370
-1
  6
ByLayer
 10
7.3253612970059461
 20
36.9438805877500798
 30
0.0
 11
9.2109793801700715
 21
38.8294986709142051
 31
0.0
  0
LINE
  5
1B8
100
AcDbEntity
100
AcDbLine
  8
em_text
 62
256
370
-1
  6
ByLayer
 10
9.1679659175356605
 20
42.4292227876340107
 30
0.0
 11
13.1679866400516588
 21
35.5010307720873257
 31
0.0
  0
LINE
  5
1B9
100
AcDbEntity
100
AcDbLine
  8
em_text
 62
256
370
-1
  6
ByLayer
 10
10.5013574890888126
 20
40.1198767798329357
 30
0.0
 11
12.1963112997738001
 21
41.8148305905179214
 31
0.0
  0
ARC
  5
1BA
100
AcDbEntity
  8
em_text
 62
256
370
-1
  6
ByLayer
100
AcDbCircle
 10
12.8248506608285062
 20
41.1862912294632153
 30
0.0
 40
0.8888888888888888
100
AcDbArc
 50
30.0000000000000178
 51
135.0
  0
LINE
  5
1BB
100
AcDbEntity
100
AcDbLine
  8
em_text
 62
256
370
-1
  6
ByLayer
 10
13.5946617857525922
 20
41.6307452395309383
 30
0.0
 11
15.6821440842704956
 21
38.0151882163061643
 31
0.0
  0
LINE
  5
1BC
100
AcDbEntity
100
AcDbLine
  8
em_text
 62
256
370
-1
  6
ByLayer
 10
19.2960153649289268
 20
41.6290594969646008
 30
0.0
 11
17.600984872441888
 21
39.9340290044775656
 31
0.0
  0
ARC
  5
1BD
100
AcDbEntity
  8
em_text
 62
256
370
-1
  6
ByLayer
100
AcDbCircle
 10
16.9724455113871819
 20
40.5625683655322717
 30
0.0
 40
0.8888888888888888
100
AcDbArc
 50
210.0
 51
315.0
  0
LINE
  5
1BE
100
AcDbEntity
100
AcDbLine
  8
em_text
 62
256
370
-1
  6
ByLayer
 10
16.2026337579237314
 20
40.1181137269251806
 30
0.0
 11
14.4562559994140525
 21
43.1430536829051334
 31
0.0
  0
ARC
  5
1BF
100
AcDbEntity
  8
em_text
 62
256
370
-1
  6
ByLayer
100
AcDbCircle
 10
15.2260734097317556
 20
43.5875014075792464
 30
0.0
 40
0.8888888888888888
100
AcDbArc
 50
135.0
 51
210.0
  0
LINE
  5
1C0
100
AcDbEntity
100
AcDbLine
  8
em_text
 62
256
370
-1
  6
ByLayer
 10
14.5974510814813847
 20
44.2159703722255131
 30
0.0
 11
15.8102592622342737
 21
45.4287785529784003
 31
0.0
  0
ARC
  5
1C1
100
AcDbEntity
  8
em_text
 62
256
370
-1
  6
ByLayer
100
AcDbCircle
 10
16.4388049086825951
 20
44.8002329065300842
 30
0.0
 40
0.8888888888888888
100
AcDbArc
 50
30.0000000000000178
 51
135.0
  0
LINE
  5
1C2
100
AcDbEntity
100
AcDbLine
  8
em_text
 62
256
370
-1
  6
ByLayer
 10
17.2085330664110217
 20
45.244616520189382
 30
0.0
 11
17.9627067605714288
 21
43.9384759011741153
 31
0.0
  0
LINE
  5
1C3
100
AcDbEntity
100
AcDbLine
  8
em_text
 62
256
370
-1
  6
ByLayer
 10
17.9627067605714288
 20
43.9384759011741153
 30
0.0
 11
15.448549316352592
 21
41.4243184569552767
 31
0.0
  0
LINE
  5
1C4
100
AcDbEntity
100
AcDbLine
  8
em_text
 62
256
370
-1
  6
ByLayer
 10
20.3958058831705671
 20
42.728850015206234
 30
0.0
 11
17.7291767322077192
 21
47.347696022951844
 31
0.0
  0
LINE
  5
1C5
100
AcDbEntity
100
AcDbLine
  8
em_text
 62
256
370
-1
  6
ByLayer
 10
17.7291767322077192
 20
47.347696022951844
 30
0.0
 11
18.7956678636400447
 21
48.414187154384166
 31
0.0
  0
ARC
  5
1C6
100
AcDbEntity
  8
em_text
 62
256
370
-1
  6
ByLayer
100
AcDbCircle
 10
19.4242072246947508
 20
47.7856477933294599
 30
0.0
 40
0.8888888888888888
100
AcDbArc
 50
30.0000000000000178
 51
135.0
  0
LINE
  5
1C7
100
AcDbEntity
100
AcDbLine
  8
em_text
 62
256
370
-1
  6
ByLayer
 10
19.3811937620603381
 20
52.6424506321586918
 30
0.0
 11
23.3812144845763363
 21
45.7142586166120068
 31
0.0
  0
LINE
  5
1C8
100
AcDbEntity
100
AcDbLine
  8
em_text
 62
256
370
-1
  6
ByLayer
 10
23.3812144845763363
 20
45.7142586166120068
 30
0.0
 11
25.4130723067196165
 21
47.746116438755287
 31
0.0
  0
ARC
  5
1C9
100
AcDbEntity
  8
em_text
 62
256
370
-1
  6
ByLayer
100
AcDbCircle
 10
24.7845329456649104
 20
48.3746557998099931
 30
0.0
 40
0.8888888888888888
100
AcDbArc
 50
315.0
 51
30.0000000000000178
  0
LINE
  5
1CA
100
AcDbEntity
100
AcDbLine
  8
em_text
 62
256
370
-1
  6
ByLayer
 10
25.5543440705889964
 20
48.8191098098777232
 30
0.0
 11
23.8078896302772698
 21
51.8439730840556194
 31
0.0
  0
ARC
  5
1CB
100
AcDbEntity
  8
em_text
 62
256
370
-1
  6
ByLayer
100
AcDbCircle
 10
23.0380785053531838
 20
51.3995190739878964
 30
0.0
 40
0.8888888888888888
100
AcDbArc
 50
30.0000000000000178
 51
135.0
  0
LINE
  5
1CC
100
AcDbEntity
100
AcDbLine
  8
em_text
 62
256
370
-1
  6
ByLayer
 10
22.4095391442984777
 20
52.0280584350426025
 30
0.0
 11
20.7145853336134884
 21
50.3331046243576168
 31
0.0
  0
LINE
  5
1CD
100
AcDbEntity
100
AcDbLine
  8
em_text
 62
256
370
-1
  6
ByLayer
 10
25.613846634821325
 20
55.2323659255654462
 30
0.0
 11
25.0518287370438415
 21
54.6703480277879663
 31
0.0
  0
ARC
  5
1CE
100
AcDbEntity
  8
em_text
 62
256
370
-1
  6
ByLayer
100
AcDbCircle
 10
25.9946377786259006
 20
53.7275389862059072
 30
0.0
 40
1.3333333333333333
100
AcDbArc
 50
135.0
 51
210.0
  0
LINE
  5
1CF
100
AcDbEntity
100
AcDbLine
  8
em_text
 62
256
370
-1
  6
ByLayer
 10
24.8399657175344082
 20
53.0608900266117232
 30
0.0
 11
26.1262878619562571
 21
50.8329857494405957
 31
0.0
  0
ARC
  5
1D0
100
AcDbEntity
  8
em_text
 62
256
370
-1
  6
ByLayer
100
AcDbCircle
 10
27.2809668369807206
 20
51.4996290521805236
 30
0.0
 40
1.3333333333333333
100
AcDbArc
 50
210.0
 51
315.0
  0
LINE
  5
1D1
100
AcDbEntity
100
AcDbLine
  8
em_text
 62
256
370
-1
  6
ByLayer
 10
28.2237758785627868
 20
50.5568200105984573
 30
0.0
 11
28.7857937763402703
 21
51.1188379083759443
 31
0.0
  0
ARC
  5
1D2
100
AcDbEntity
  8
em_text
 62
256
370
-1
  6
ByLayer
100
AcDbCircle
 10
27.842984734758204
 20
52.0616469499580035
 30
0.0
 40
1.3333333333333333
100
AcDbArc
 50
315.0
 51
30.0000000000000178
  0
LINE
  5
1D3
100
AcDbEntity
100
AcDbLine
  8
em_text
 62
256
370
-1
  6
ByLayer
 10
28.9976637097826782
 20
52.7282902526979314
 30
0.0
 11
27.7114113332299041
 21
54.9562768685253644
 31
0.0
  0
ARC
  5
1D4
100
AcDbEntity
  8
em_text
 62
256
370
-1
  6
ByLayer
100
AcDbCircle
 10
26.5566556764033841
 20
54.2895568839833871
 30
0.0
 40
1.3333333333333333
100
AcDbArc
 50
30.0000000000000178
 51
135.0
  0
LINE
  5
1D5
100
AcDbEntity
100
AcDbLine
  8
em_text
 62
256
370
-1
  6
ByLayer
 10
28.1613034658494819
 20
57.7798227565936031
 30
0.0
 11
29.5420642778091604
 21
59.1605835685532782
 31
0.0
  0
ARC
  5
1D6
100
AcDbEntity
  8
em_text
 62
256
370
-1
  6
ByLayer
100
AcDbCircle
 10
30.1706036388638665
 20
58.5320442074985721
 30
0.0
 40
0.8888888888888888
100
AcDbArc
 50
30.0000000000000178
 51
135.0
  0
LINE
  5
1D7
100
AcDbEntity
100
AcDbLine
  8
em_text
 62
256
370
-1
  6
ByLayer
 10
30.9404147637879596
 20
58.9764982175663093
 30
0.0
 11
33.0278203805038117
 21
55.3608645125394787
 31
0.0
  0
LINE
  5
1D8
100
AcDbEntity
100
AcDbLine
  8
em_text
 62
256
370
-1
  6
ByLayer
 10
33.0278203805038117
 20
55.3608645125394787
 30
0.0
 11
31.332789888016773
 21
53.6658340200524435
 31
0.0
  0
ARC
  5
1D9
100
AcDbEntity
  8
em_text
 62
256
370
-1
  6
ByLayer
100
AcDbCircle
 10
30.7042505269620669
 20
54.2943733811071496
 30
0.0
 40
0.8888888888888888
100
AcDbArc
 50
210.0
 51
315.0
  0
LINE
  5
1DA
100
AcDbEntity
100
AcDbLine
  8
em_text
 62
256
370
-1
  6
ByLayer
 10
29.9344324881050063
 20
53.8499250278936756
 30
0.0
 11
29.5213821901336537
 21
54.5654297234832697
 31
0.0
  0
ARC
  5
1DB
100
AcDbEntity
  8
em_text
 62
256
370
-1
  6
ByLayer
100
AcDbCircle
 10
30.2911933150577468
 20
55.0098837335509998
 30
0.0
 40
0.8888888888888888
100
AcDbArc
 50
135.0
 51
210.0
  0
LINE
  5
1DC
100
AcDbEntity
100
AcDbLine
  8
em_text
 62
256
370
-1
  6
ByLayer
 10
29.6626539540030336
 20
55.638423094605713
 30
0.0
 11
31.6945117761463138
 21
57.6702809167489931
 31
0.0
  0
LINE
  5
1DD
100
AcDbEntity
100
AcDbLine
  8
em_text
 62
256
370
-1
  6
ByLayer
 10
34.1276108987454592
 20
56.4606550307810977
 30
0.0
 11
31.4609817477826113
 21
61.0795010385267076
 31
0.0
  0
LINE
  5
1DE
100
AcDbEntity
100
AcDbLine
  8
em_text
 62
256
370
-1
  6
ByLayer
 10
31.4609817477826113
 20
61.0795010385267076
 30
0.0
 11
32.5274728792149403
 21
62.1459921699590296
 31
0.0
  0
ARC
  5
1DF
100
AcDbEntity
  8
em_text
 62
256
370
-1
  6
ByLayer
100
AcDbCircle
 10
33.1560122402696464
 20
61.5174528089043235
 30
0.0
 40
0.8888888888888888
100
AcDbArc
 50
30.0000000000000178
 51
135.0
  0
LINE
  5
1E0
100
AcDbEntity
100
AcDbLine
  8
em_text
 62
256
370
-1
  6
ByLayer
 10
35.627156221854051
 20
68.8884130919524154
 30
0.0
 11
39.6271769443700492
 21
61.9602210764057304
 31
0.0
  0
LINE
  5
1E1
100
AcDbEntity
100
AcDbLine
  8
em_text
 62
256
370
-1
  6
ByLayer
 10
39.6271769443700492
 20
61.9602210764057304
 30
0.0
 11
37.932146451883014
 21
60.2651905839186952
 31
0.0
  0
ARC
  5
1E2
100
AcDbEntity
  8
em_text
 62
256
370
-1
  6
ByLayer
100
AcDbCircle
 10
37.3036070908283079
 20
60.8937299449734013
 30
0.0
 40
0.8888888888888888
100
AcDbArc
 50
210.0
 51
315.0
  0
LINE
  5
1E3
100
AcDbEntity
100
AcDbLine
  8
em_text
 62
256
370
-1
  6
ByLayer
 10
36.5337953373648574
 20
60.4492753063663102
 30
0.0
 11
34.7874175788551838
 21
63.4742152623462559
 31
0.0
  0
ARC
  5
1E4
100
AcDbEntity
  8
em_text
 62
256
370
-1
  6
ByLayer
100
AcDbCircle
 10
35.5572287037792663
 20
63.9186692724139789
 30
0.0
 40
0.8888888888888888
100
AcDbArc
 50
135.0
 51
210.0
  0
LINE
  5
1E5
100
AcDbEntity
100
AcDbLine
  8
em_text
 62
256
370
-1
  6
ByLayer
 10
34.9286893427245531
 20
64.5472086334686992
 30
0.0
 11
36.9605477934072013
 21
66.5790670841513332
 31
0.0
  0
LINE
  5
1E6
100
AcDbEntity
100
AcDbLine
  8
em_text
 62
256
370
-1
  6
ByLayer
 10
37.4055304050775774
 20
70.6667872751759347
 30
0.0
 11
40.0722048108744247
 21
66.0479739514770898
 31
0.0
  0
LINE
  5
1E7
100
AcDbEntity
100
AcDbLine
  8
em_text
 62
256
370
-1
  6
ByLayer
 10
41.4055322714127456
 20
63.7385764034484126
 30
0.0
 11
41.1833216084022737
 21
64.1234844800678871
 31
0.0
  0
LINE
  5
1E8
100
AcDbEntity
100
AcDbLine
  8
em_text
 62
256
370
-1
  6
ByLayer
 10
-74.6627444043125195
 20
75.3735252832786387
 30
0.0
 11
-69.1071888487569765
 21
75.3735252832786387
 31
0.0
  0
LINE
  5
1E9
100
AcDbEntity
100
AcDbLine
  8
em_text
 62
256
370
-1
  6
ByLayer
 10
-71.884966626534748
 20
75.3735252832786387
 30
0.0
 11
-74.473196626534758
 21
65.7142586166119855
 31
0.0
  0
LINE
  5
1EA
100
AcDbEntity
100
AcDbLine
  8
em_text
 62
256
370
-1
  6
ByLayer
 10
-65.9634710709792103
 20
75.3735252832786671
 30
0.0
 11
-68.5516332932014336
 21
65.7142586166119997
 31
0.0
  0
LINE
  5
1EB
100
AcDbEntity
100
AcDbLine
  8
em_text
 62
256
370
-1
  6
ByLayer
 10
-66.8261010709792203
 20
72.1537697277231018
 30
0.0
 11
-63.8298177376458753
 21
72.1537697277231018
 31
0.0
  0
ARC
  5
1EC
100
AcDbEntity
  8
em_text
 62
256
370
-1
  6
ByLayer
100
AcDbCircle
 10
-63.8298177376458753
 20
71.0426586166119876
 30
0.0
 40
1.1111111111111112
100
AcDbArc
 50
345.0
 51
90.0
  0
LINE
  5
1ED
100
AcDbEntity
100
AcDbLine
  8
em_text
 62
256
370
-1
  6
ByLayer
 10
-62.7565488487569922
 20
70.7550808388342176
 30
0.0
 11
-64.1071888487569908
 21
65.7142586166119997
 31
0.0
  0
LINE
  5
1EE
100
AcDbEntity
100
AcDbLine
  8
em_text
 62
256
370
-1
  6
ByLayer
 10
-62.1631510709792039
 20
65.7142586166119855
 30
0.0
 11
-60.4376188487569834
 21
72.1537697277230876
 31
0.0
  0
LINE
  5
1EF
100
AcDbEntity
100
AcDbLine
  8
em_text
 62
256
370
-1
  6
ByLayer
 10
-59.5749888487569805
 20
75.3735252832786387
 30
0.0
 11
-59.7187610709792054
 21
74.8368919499453114
 31
0.0
  0
LINE
  5
1F0
100
AcDbEntity
100
AcDbLine
  8
em_text
 62
256
370
-1
  6
ByLayer
 10
-59.0194332932014305
 20
65.7142586166119997
 30
0.0
 11
-57.29390107097921
 21
72.1537697277231018
 31
0.0
  0
LINE
  5
1F1
100
AcDbEntity
100
AcDbLine
  8
em_text
 62
256
370
-1
  6
ByLayer
 10
-57.29390107097921
 20
72.1537697277231018
 30
0.0
 11
-54.2976177376458722
 21
72.1537697277231018
 31
0.0
  0
ARC
  5
1F2
100
AcDbEntity
  8
em_text
 62
256
370
-1
  6
ByLayer
100
AcDbCircle
 10
-54.2976177376458722
 20
71.0426586166119876
 30
0.0
 40
1.1111111111111112
100
AcDbArc
 50
345.0
 51
90.0
  0
LINE
  5
1F3
100
AcDbEntity
100
AcDbLine
  8
em_text
 62
256
370
-1
  6
ByLayer
 10
-53.2243488487569891
 20
70.7550808388342176
 30
0.0
 11
-54.5749888487569876
 21
65.7142586166119997
 31
0.0
  0
LINE
  5
1F4
100
AcDbEntity
100
AcDbLine
  8
em_text
 62
256
370
-1
  6
ByLayer
 10
-53.4937166265347557
 20
62.4945030610564487
 30
0.0
 11
-49.9018655154236512
 21
62.4945030610564487
 31
0.0
  0
ARC
  5
1F5
100
AcDbEntity
  8
em_text
 62
256
370
-1
  6
ByLayer
100
AcDbCircle
 10
-49.9018655154236512
 20
63.6056363943897765
 30
0.0
 40
1.1111333333333333
100
AcDbArc
 50
270.0
 51
345.0
  0
LINE
  5
1F6
100
AcDbEntity
100
AcDbLine
  8
em_text
 62
256
370
-1
  6
ByLayer
 10
-48.828596626534754
 20
63.3180475055008856
 30
0.0
 11
-46.4611110709792001
 21
72.1537697277231018
 31
0.0
  0
LINE
  5
1F7
100
AcDbEntity
100
AcDbLine
  8
em_text
 62
256
370
-1
  6
ByLayer
 10
-46.4611110709792001
 20
72.1537697277231018
 30
0.0
 11
-50.0529621820903046
 21
72.1537697277231018
 31
0.0
  0
ARC
  5
1F8
100
AcDbEntity
  8
em_text
 62
256
370
-1
  6
ByLayer
100
AcDbCircle
 10
-50.0529621820903046
 20
71.042647505500895
 30
0.0
 40
1.1111111111111112
100
AcDbArc
 50
90.0
 51
165.0
  0
LINE
  5
1F9
100
AcDbEntity
100
AcDbLine
  8
em_text
 62
256
370
-1
  6
ByLayer
 10
-51.1260955154236427
 20
71.3302363943897717
 30
0.0
 11
-52.2561955154236486
 21
67.1129475055008839
 31
0.0
  0
ARC
  5
1FA
100
AcDbEntity
  8
em_text
 62
256
370
-1
  6
ByLayer
100
AcDbCircle
 10
-51.1829255154236407
 20
66.825369727723114
 30
0.0
 40
1.1111111111111112
100
AcDbArc
 50
165.0
 51
270.0
  0
LINE
  5
1FB
100
AcDbEntity
100
AcDbLine
  8
em_text
 62
256
370
-1
  6
ByLayer
 10
-51.1829255154236407
 20
65.7142586166119997
 30
0.0
 11
-48.1865066265347579
 21
65.7142586166119997
 31
0.0
  0
LINE
  5
1FC
100
AcDbEntity
100
AcDbLine
  8
em_text
 62
256
370
-1
  6
ByLayer
 10
-45.0428577376458605
 20
68.934003061056444
 30
0.0
 11
-40.5984132932014177
 21
68.934003061056444
 31
0.0
  0
LINE
  5
1FD
100
AcDbEntity
100
AcDbLine
  8
em_text
 62
256
370
-1
  6
ByLayer
 10
-34.7951910709791932
 20
75.3735252832786671
 30
0.0
 11
-35.3232121820903018
 21
75.3735252832786671
 31
0.0
  0
ARC
  5
1FE
100
AcDbEntity
  8
em_text
 62
256
370
-1
  6
ByLayer
100
AcDbCircle
 10
-35.3232121820903018
 20
72.5957475055008956
 30
0.0
 40
2.7777777777777777
100
AcDbArc
 50
90.0
 51
165.0
  0
LINE
  5
1FF
100
AcDbEntity
100
AcDbLine
  8
em_text
 62
256
370
-1
  6
ByLayer
 10
-38.0063177376458583
 20
73.3146808388342208
 30
0.0
 11
-39.2932777376458588
 21
68.5116363943897824
 31
0.0
  0
ARC
  5
200
100
AcDbEntity
  8
em_text
 62
256
370
-1
  6
ByLayer
100
AcDbCircle
 10
-37.1468077376458581
 20
67.9364808388342283
 30
0.0
 40
2.2222222222222223
100
AcDbArc
 50
165.0
 51
270.0
  0
LINE
  5
201
100
AcDbEntity
100
AcDbLine
  8
em_text
 62
256
370
-1
  6
ByLayer
 10
-37.1468077376458581
 20
65.7142586166119997
 30
0.0
 11
-36.6187855154236388
 21
65.7142586166119997
 31
0.0
  0
ARC
  5
202
100
AcDbEntity
  8
em_text
 62
256
370
-1
  6
ByLayer
100
AcDbCircle
 10
-36.6187855154236388
 20
68.4920363943897712
 30
0.0
 40
2.7777777777777777
100
AcDbArc
 50
270.0
 51
345.0
  0
LINE
  5
203
100
AcDbEntity
100
AcDbLine
  8
em_text
 62
256
370
-1
  6
ByLayer
 10
-33.9356799598680823
 20
67.7730919499453393
 30
0.0
 11
-32.6486521820903022
 21
72.5761475055008987
 31
0.0
  0
ARC
  5
204
100
AcDbEntity
  8
em_text
 62
256
370
-1
  6
ByLayer
100
AcDbCircle
 10
-34.7951910709791932
 20
73.1512919499453318
 30
0.0
 40
2.2222222222222223
100
AcDbArc
 50
345.0
 51
90.0
  0
LINE
  5
205
100
AcDbEntity
100
AcDbLine
  8
em_text
 62
256
370
-1
  6
ByLayer
 10
-31.1547155154236393
 20
68.934003061056444
 30
0.0
 11
-26.7102710709791928
 21
68.934003061056444
 31
0.0
  0
LINE
  5
206
100
AcDbEntity
100
AcDbLine
  8
em_text
 62
256
370
-1
  6
ByLayer
 10
-26.1547155154236322
 20
65.7142586166119997
 30
0.0
 11
-23.5665532932014088
 21
75.3735252832786671
 31
0.0
  0
LINE
  5
207
100
AcDbEntity
100
AcDbLine
  8
em_text
 62
256
370
-1
  6
ByLayer
 10
-23.5665532932014088
 20
75.3735252832786671
 30
0.0
 11
-21.6710732932014096
 21
70.0072586166119919
 31
0.0
  0
LINE
  5
208
100
AcDbEntity
100
AcDbLine
  8
em_text
 62
256
370
-1
  6
ByLayer
 10
-21.6710732932014096
 20
70.0072586166119919
 30
0.0
 11
-16.8998866265347409
 21
75.3735252832786671
 31
0.0
  0
LINE
  5
209
100
AcDbEntity
100
AcDbLine
  8
em_text
 62
256
370
-1
  6
ByLayer
 10
-16.8998866265347409
 20
75.3735252832786671
 30
0.0
 11
-19.4880488487569643
 21
65.7142586166119997
 31
0.0
  0
LINE
  5
20A
100
AcDbEntity
100
AcDbLine
  8
em_text
 62
256
370
-1
  6
ByLayer
 10
-14.0632432932014098
 20
72.153769727723116
 30
0.0
 11
-11.622379959868077
 21
72.153769727723116
 31
0.0
  0
ARC
  5
20B
100
AcDbEntity
  8
em_text
 62
256
370
-1
  6
ByLayer
100
AcDbCircle
 10
-11.622379959868077
 20
71.0426586166120018
 30
0.0
 40
1.1111111111111112
100
AcDbArc
 50
345.0
 51
90.0
  0
LINE
  5
20C
100
AcDbEntity
100
AcDbLine
  8
em_text
 62
256
370
-1
  6
ByLayer
 10
-10.5491110709791869
 20
70.7550808388342318
 30
0.0
 11
-11.8998866265347427
 21
65.714258616612014
 31
0.0
  0
LINE
  5
20D
100
AcDbEntity
100
AcDbLine
  8
em_text
 62
256
370
-1
  6
ByLayer
 10
-11.8998866265347427
 20
65.714258616612014
 30
0.0
 11
-14.8963055154236326
 21
65.714258616612014
 31
0.0
  0
ARC
  5
20E
100
AcDbEntity
  8
em_text
 62
256
370
-1
  6
ByLayer
100
AcDbCircle
 10
-14.8963055154236326
 20
66.8253697277231282
 30
0.0
 40
1.1111111111111112
100
AcDbArc
 50
165.0
 51
270.0
  0
LINE
  5
20F
100
AcDbEntity
100
AcDbLine
  8
em_text
 62
256
370
-1
  6
ByLayer
 10
-15.9695755154236316
 20
67.1129586166120191
 30
0.0
 11
-15.7022410709791878
 21
68.1104697277231139
 31
0.0
  0
ARC
  5
210
100
AcDbEntity
  8
em_text
 62
256
370
-1
  6
ByLayer
100
AcDbCircle
 10
-14.6289721820902994
 20
67.822891949945344
 30
0.0
 40
1.1111111111111112
100
AcDbArc
 50
90.0
 51
165.0
  0
LINE
  5
211
100
AcDbEntity
100
AcDbLine
  8
em_text
 62
256
370
-1
  6
ByLayer
 10
-14.6289721820902994
 20
68.9340030610564583
 30
0.0
 11
-11.0371210709791878
 21
68.9340030610564583
 31
0.0
  0
LINE
  5
212
100
AcDbEntity
100
AcDbLine
  8
em_text
 62
256
370
-1
  6
ByLayer
 10
-6.2564399598680795
 20
75.3735252832786387
 30
0.0
 11
-8.844602182090302
 21
65.7142586166119855
 31
0.0
  0
LINE
  5
213
100
AcDbEntity
100
AcDbLine
  8
em_text
 62
256
370
-1
  6
ByLayer
 10
-8.2301810709791905
 20
72.1537697277230876
 30
0.0
 11
-4.8968477376458566
 21
72.1537697277230876
 31
0.0
  0
LINE
  5
214
100
AcDbEntity
100
AcDbLine
  8
em_text
 62
256
370
-1
  6
ByLayer
 10
-4.3412921820902994
 20
65.7142586166120282
 30
0.0
 11
-2.6157599598680772
 21
72.1537697277231302
 31
0.0
  0
LINE
  5
215
100
AcDbEntity
100
AcDbLine
  8
em_text
 62
256
370
-1
  6
ByLayer
 10
-1.7531299598680765
 20
75.3735252832786955
 30
0.0
 11
-1.8969021820902987
 21
74.836891949945354
 31
0.0
  0
LINE
  5
216
100
AcDbEntity
100
AcDbLine
  8
em_text
 62
256
370
-1
  6
ByLayer
 10
3.8612911512430372
 20
72.153769727723045
 30
0.0
 11
1.3805500401319257
 21
72.153769727723045
 31
0.0
  0
ARC
  5
217
100
AcDbEntity
  8
em_text
 62
256
370
-1
  6
ByLayer
100
AcDbCircle
 10
1.3805500401319253
 20
71.0426586166119307
 30
0.0
 40
1.1111111111111112
100
AcDbArc
 50
90.0
 51
165.0
  0
LINE
  5
218
100
AcDbEntity
100
AcDbLine
  8
em_text
 62
256
370
-1
  6
ByLayer
 10
0.3072811512430362
 20
71.3302363943897149
 30
0.0
 11
-0.8228188487569634
 21
67.1129475055008271
 31
0.0
  0
ARC
  5
219
100
AcDbEntity
  8
em_text
 62
256
370
-1
  6
ByLayer
100
AcDbCircle
 10
0.2504511512430367
 20
66.8253697277230572
 30
0.0
 40
1.1111111111111112
100
AcDbArc
 50
165.0
 51
270.0
  0
LINE
  5
21A
100
AcDbEntity
100
AcDbLine
  8
em_text
 62
256
370
-1
  6
ByLayer
 10
0.2504511512430367
 20
65.7142586166119429
 30
0.0
 11
2.1357589290208145
 21
65.7142586166119429
 31
0.0
  0
LINE
  5
21B
100
AcDbEntity
100
AcDbLine
  8
em_text
 62
256
370
-1
  6
ByLayer
 10
-81.2445260709792194
 20
49.714258616612014
 30
0.0
 11
-78.656363848756996
 21
59.3735252832786813
 31
0.0
  0
LINE
  5
21C
100
AcDbEntity
100
AcDbLine
  8
em_text
 62
256
370
-1
  6
ByLayer
 10
-78.656363848756996
 20
59.3735252832786813
 30
0.0
 11
-76.7608838487569898
 21
54.0072586166120132
 31
0.0
  0
LINE
  5
21D
100
AcDbEntity
100
AcDbLine
  8
em_text
 62
256
370
-1
  6
ByLayer
 10
-76.7608838487569898
 20
54.0072586166120132
 30
0.0
 11
-71.9896971820903246
 21
59.3735252832786813
 31
0.0
  0
LINE
  5
21E
100
AcDbEntity
100
AcDbLine
  8
em_text
 62
256
370
-1
  6
ByLayer
 10
-71.9896971820903246
 20
59.3735252832786813
 30
0.0
 11
-74.577859404312548
 21
49.714258616612014
 31
0.0
  0
LINE
  5
21F
100
AcDbEntity
100
AcDbLine
  8
em_text
 62
256
370
-1
  6
ByLayer
 10
-67.4363394043125481
 20
56.1537697277231231
 30
0.0
 11
-68.4298560709792127
 21
56.1537697277231231
 31
0.0
  0
ARC
  5
220
100
AcDbEntity
  8
em_text
 62
256
370
-1
  6
ByLayer
100
AcDbCircle
 10
-68.4298560709792127
 20
54.4871030610564517
 30
0.0
 40
1.6666666666666667
100
AcDbArc
 50
90.0
 51
165.0
  0
LINE
  5
221
100
AcDbEntity
100
AcDbLine
  8
em_text
 62
256
370
-1
  6
ByLayer
 10
-70.0396916265347755
 20
54.918458616612007
 30
0.0
 11
-70.8719405154236455
 21
51.8122919499453403
 31
0.0
  0
ARC
  5
222
100
AcDbEntity
  8
em_text
 62
256
370
-1
  6
ByLayer
100
AcDbCircle
 10
-69.2621038487569791
 20
51.3809252832786711
 30
0.0
 40
1.6666666666666667
100
AcDbArc
 50
165.0
 51
270.0
  0
LINE
  5
223
100
AcDbEntity
100
AcDbLine
  8
em_text
 62
256
370
-1
  6
ByLayer
 10
-69.2621038487569791
 20
49.7142586166120068
 30
0.0
 11
-68.2685871820903145
 21
49.7142586166120068
 31
0.0
  0
ARC
  5
224
100
AcDbEntity
  8
em_text
 62
256
370
-1
  6
ByLayer
100
AcDbCircle
 10
-68.2685871820903145
 20
51.3809252832786711
 30
0.0
 40
1.6666666666666667
100
AcDbArc
 50
270.0
 51
345.0
  0
LINE
  5
225
100
AcDbEntity
100
AcDbLine
  8
em_text
 62
256
370
-1
  6
ByLayer
 10
-66.6587505154236482
 20
50.9495586166120091
 30
0.0
 11
-65.8263671820903227
 21
54.0557363943897897
 31
0.0
  0
ARC
  5
226
100
AcDbEntity
  8
em_text
 62
256
370
-1
  6
ByLayer
100
AcDbCircle
 10
-67.4363394043125481
 20
54.4871030610564517
 30
0.0
 40
1.6666666666666667
100
AcDbArc
 50
345.0
 51
90.0
  0
LINE
  5
227
100
AcDbEntity
100
AcDbLine
  8
em_text
 62
256
370
-1
  6
ByLayer
 10
-63.4887216265347831
 20
56.153769727723116
 30
0.0
 11
-64.8393616265347674
 21
51.1129475055008911
 31
0.0
  0
ARC
  5
228
100
AcDbEntity
  8
em_text
 62
256
370
-1
  6
ByLayer
100
AcDbCircle
 10
-63.7660916265347737
 20
50.825369727723114
 30
0.0
 40
1.1111111111111112
100
AcDbArc
 50
165.0
 51
270.0
  0
LINE
  5
229
100
AcDbEntity
100
AcDbLine
  8
em_text
 62
256
370
-1
  6
ByLayer
 10
-63.7660916265347737
 20
49.7142586166119997
 30
0.0
 11
-60.7696727376458909
 21
49.7142586166119997
 31
0.0
  0
LINE
  5
22A
100
AcDbEntity
100
AcDbLine
  8
em_text
 62
256
370
-1
  6
ByLayer
 10
-60.7696727376458909
 20
49.7142586166119997
 30
0.0
 11
-59.0442771820903332
 21
56.153769727723116
 31
0.0
  0
LINE
  5
22B
100
AcDbEntity
100
AcDbLine
  8
em_text
 62
256
370
-1
  6
ByLayer
 10
-58.4887216265347831
 20
49.7142586166120068
 30
0.0
 11
-56.7631894043125627
 21
56.1537697277231231
 31
0.0
  0
LINE
  5
22C
100
AcDbEntity
100
AcDbLine
  8
em_text
 62
256
370
-1
  6
ByLayer
 10
-56.7631894043125627
 20
56.1537697277231231
 30
0.0
 11
-53.7669060709792248
 21
56.1537697277231231
 31
0.0
  0
ARC
  5
22D
100
AcDbEntity
  8
em_text
 62
256
370
-1
  6
ByLayer
100
AcDbCircle
 10
-53.7669060709792248
 20
55.0426586166120089
 30
0.0
 40
1.1111111111111112
100
AcDbArc
 50
345.0
 51
90.0
  0
LINE
  5
22E
100
AcDbEntity
100
AcDbLine
  8
em_text
 62
256
370
-1
  6
ByLayer
 10
-52.6936371820903418
 20
54.7550808388342318
 30
0.0
 11
-54.0442771820903403
 21
49.7142586166120068
 31
0.0
  0
LINE
  5
22F
100
AcDbEntity
100
AcDbLine
  8
em_text
 62
256
370
-1
  6
ByLayer
 10
-48.4009660709792158
 20
59.3735252832786671
 30
0.0
 11
-50.9891282932014391
 21
49.7142586166119997
 31
0.0
  0
LINE
  5
230
100
AcDbEntity
100
AcDbLine
  8
em_text
 62
256
370
-1
  6
ByLayer
 10
-50.3747071820903329
 20
56.153769727723116
 30
0.0
 11
-47.0413738487569972
 21
56.153769727723116
 31
0.0
  0
LINE
  5
231
100
AcDbEntity
100
AcDbLine
  8
em_text
 62
256
370
-1
  6
ByLayer
 10
-45.6231205154236505
 20
52.934003061056444
 30
0.0
 11
-41.1786760709792077
 21
52.934003061056444
 31
0.0
  0
LINE
  5
232
100
AcDbEntity
100
AcDbLine
  8
em_text
 62
256
370
-1
  6
ByLayer
 10
-35.3754538487569903
 20
59.3735252832786671
 30
0.0
 11
-35.9034749598680989
 21
59.3735252832786671
 31
0.0
  0
ARC
  5
233
100
AcDbEntity
  8
em_text
 62
256
370
-1
  6
ByLayer
100
AcDbCircle
 10
-35.9034749598680989
 20
56.5957475055008885
 30
0.0
 40
2.7777777777777777
100
AcDbArc
 50
90.0
 51
165.0
  0
LINE
  5
234
100
AcDbEntity
100
AcDbLine
  8
em_text
 62
256
370
-1
  6
ByLayer
 10
-38.5865805154236554
 20
57.3146808388342208
 30
0.0
 11
-39.873540515423656
 21
52.5116363943897753
 31
0.0
  0
ARC
  5
235
100
AcDbEntity
  8
em_text
 62
256
370
-1
  6
ByLayer
100
AcDbCircle
 10
-37.7270705154236552
 20
51.9364808388342212
 30
0.0
 40
2.2222222222222223
100
AcDbArc
 50
165.0
 51
270.0
  0
LINE
  5
236
100
AcDbEntity
100
AcDbLine
  8
em_text
 62
256
370
-1
  6
ByLayer
 10
-37.7270705154236552
 20
49.7142586166119997
 30
0.0
 11
-37.1990482932014359
 21
49.7142586166119997
 31
0.0
  0
ARC
  5
237
100
AcDbEntity
  8
em_text
 62
256
370
-1
  6
ByLayer
100
AcDbCircle
 10
-37.1990482932014359
 20
52.4920363943897783
 30
0.0
 40
2.7777777777777777
100
AcDbArc
 50
270.0
 51
345.0
  0
LINE
  5
238
100
AcDbEntity
100
AcDbLine
  8
em_text
 62
256
370
-1
  6
ByLayer
 10
-34.5159427376458794
 20
51.7730919499453321
 30
0.0
 11
-33.2289149598681064
 21
56.5761475055008844
 31
0.0
  0
ARC
  5
239
100
AcDbEntity
  8
em_text
 62
256
370
-1
  6
ByLayer
100
AcDbCircle
 10
-35.3754538487569903
 20
57.1512919499453389
 30
0.0
 40
2.2222222222222223
100
AcDbArc
 50
345.0
 51
90.0
  0
LINE
  5
23A
100
AcDbEntity
100
AcDbLine
  8
em_text
 62
256
370
-1
  6
ByLayer
 10
-31.7349782932014364
 20
52.934003061056444
 30
0.0
 11
-27.29053384875699
 21
52.934003061056444
 31
0.0
  0
LINE
  5
23B
100
AcDbEntity
100
AcDbLine
  8
em_text
 62
256
370
-1
  6
ByLayer
 10
-26.7349782932014293
 20
49.7142586166119997
 30
0.0
 11
-24.1467482932014299
 21
59.3735252832786671
 31
0.0
  0
LINE
  5
23C
100
AcDbEntity
100
AcDbLine
  8
em_text
 62
256
370
-1
  6
ByLayer
 10
-24.1467482932014299
 20
59.3735252832786671
 30
0.0
 11
-21.4873116265347619
 21
59.3735141721675603
 31
0.0
  0
ARC
  5
23D
100
AcDbEntity
  8
em_text
 62
256
370
-1
  6
ByLayer
100
AcDbCircle
 10
-21.4873116265347619
 20
57.1512919499453389
 30
0.0
 40
2.2222333333333335
100
AcDbArc
 50
345.0
 51
90.0
  0
LINE
  5
23E
100
AcDbEntity
100
AcDbLine
  8
em_text
 62
256
370
-1
  6
ByLayer
 10
-19.3407727376458709
 20
56.5761363943897777
 30
0.0
 11
-19.587761626534764
 21
55.6543252832786663
 31
0.0
  0
ARC
  5
23F
100
AcDbEntity
  8
em_text
 62
256
370
-1
  6
ByLayer
100
AcDbCircle
 10
-21.7343005154236479
 20
56.2295030610564481
 30
0.0
 40
2.2222444444444447
100
AcDbArc
 50
270.0
 51
345.0
  0
LINE
  5
240
100
AcDbEntity
100
AcDbLine
  8
em_text
 62
256
370
-1
  6
ByLayer
 10
-21.7343005154236479
 20
54.007258616611999
 30
0.0
 11
-25.5846694043125424
 21
54.007258616611999
 31
0.0
  0
LINE
  5
241
100
AcDbEntity
100
AcDbLine
  8
em_text
 62
256
370
-1
  6
ByLayer
 10
-22.2513360709792067
 20
54.007258616611999
 30
0.0
 11
-21.1794227376458721
 21
49.7142586166119997
 31
0.0
  0
LINE
  5
242
100
AcDbEntity
100
AcDbLine
  8
em_text
 62
256
370
-1
  6
ByLayer
 10
-16.4284349598680919
 20
56.1537697277231018
 30
0.0
 11
-13.9875716265347592
 21
56.1537697277231018
 31
0.0
  0
ARC
  5
243
100
AcDbEntity
  8
em_text
 62
256
370
-1
  6
ByLayer
100
AcDbCircle
 10
-13.9875716265347592
 20
55.0426586166119876
 30
0.0
 40
1.1111111111111112
100
AcDbArc
 50
345.0
 51
90.0
  0
LINE
  5
244
100
AcDbEntity
100
AcDbLine
  8
em_text
 62
256
370
-1
  6
ByLayer
 10
-12.914302737645869
 20
54.7550808388342105
 30
0.0
 11
-14.2650782932014248
 21
49.7142586166119855
 31
0.0
  0
LINE
  5
245
100
AcDbEntity
100
AcDbLine
  8
em_text
 62
256
370
-1
  6
ByLayer
 10
-14.2650782932014248
 20
49.7142586166119855
 30
0.0
 11
-17.2614971820903165
 21
49.7142586166119855
 31
0.0
  0
ARC
  5
246
100
AcDbEntity
  8
em_text
 62
256
370
-1
  6
ByLayer
100
AcDbCircle
 10
-17.2614971820903165
 20
50.8253697277230998
 30
0.0
 40
1.1111111111111112
100
AcDbArc
 50
165.0
 51
270.0
  0
LINE
  5
247
100
AcDbEntity
100
AcDbLine
  8
em_text
 62
256
370
-1
  6
ByLayer
 10
-18.3347671820903138
 20
51.1129586166119907
 30
0.0
 11
-18.0674327376458663
 21
52.1104697277230997
 31
0.0
  0
ARC
  5
248
100
AcDbEntity
  8
em_text
 62
256
370
-1
  6
ByLayer
100
AcDbCircle
 10
-16.9941638487569797
 20
51.8228919499453227
 30
0.0
 40
1.1111111111111112
100
AcDbArc
 50
90.0
 51
165.0
  0
LINE
  5
249
100
AcDbEntity
100
AcDbLine
  8
em_text
 62
256
370
-1
  6
ByLayer
 10
-16.9941638487569797
 20
52.9340030610564298
 30
0.0
 11
-13.4023127376458699
 21
52.9340030610564298
 31
0.0
  0
LINE
  5
24A
100
AcDbEntity
100
AcDbLine
  8
em_text
 62
256
370
-1
  6
ByLayer
 10
-12.3209049598680949
 20
49.7142586166119855
 30
0.0
 11
-10.5953727376458726
 21
56.1537697277231018
 31
0.0
  0
LINE
  5
24B
100
AcDbEntity
100
AcDbLine
  8
em_text
 62
256
370
-1
  6
ByLayer
 10
-10.5953727376458726
 20
56.1537697277231018
 30
0.0
 11
-5.376867182090316
 21
56.1537697277231018
 31
0.0
  0
ARC
  5
24C
100
AcDbEntity
  8
em_text
 62
256
370
-1
  6
ByLayer
100
AcDbCircle
 10
-5.376867182090316
 20
55.0426586166119876
 30
0.0
 40
1.1111111111111112
100
AcDbArc
 50
345.0
 51
90.0
  0
LINE
  5
24D
100
AcDbEntity
100
AcDbLine
  8
em_text
 62
256
370
-1
  6
ByLayer
 10
-4.3035982932014267
 20
54.7550808388342105
 30
0.0
 11
-5.6542382932014279
 21
49.7142586166119855
 31
0.0
  0
LINE
  5
24E
100
AcDbEntity
100
AcDbLine
  8
em_text
 62
256
370
-1
  6
ByLayer
 10
-7.2620394043125396
 20
56.1537697277231018
 30
0.0
 11
-8.9875716265347609
 21
49.7142586166119855
 31
0.0
  0
LINE
  5
24F
100
AcDbEntity
100
AcDbLine
  8
em_text
 62
256
370
-1
  6
ByLayer
 10
-1.4291127376458581
 20
56.1537697277231089
 30
0.0
 11
1.0117505956874746
 21
56.1537697277231089
 31
0.0
  0
ARC
  5
250
100
AcDbEntity
  8
em_text
 62
256
370
-1
  6
ByLayer
100
AcDbCircle
 10
1.0117505956874746
 20
55.0426586166119947
 30
0.0
 40
1.1111111111111112
100
AcDbArc
 50
345.0
 51
90.0
  0
LINE
  5
251
100
AcDbEntity
100
AcDbLine
  8
em_text
 62
256
370
-1
  6
ByLayer
 10
2.085019484576363
 20
54.7550808388342176
 30
0.0
 11
0.734243929020808
 21
49.7142586166119926
 31
0.0
  0
LINE
  5
252
100
AcDbEntity
100
AcDbLine
  8
em_text
 62
256
370
-1
  6
ByLayer
 10
0.734243929020808
 20
49.7142586166119926
 30
0.0
 11
-2.2621749598680809
 21
49.7142586166119926
 31
0.0
  0
ARC
  5
253
100
AcDbEntity
  8
em_text
 62
256
370
-1
  6
ByLayer
100
AcDbCircle
 10
-2.2621749598680809
 20
50.8253697277231069
 30
0.0
 40
1.1111111111111112
100
AcDbArc
 50
165.0
 51
270.0
  0
LINE
  5
254
100
AcDbEntity
100
AcDbLine
  8
em_text
 62
256
370
-1
  6
ByLayer
 10
-3.3354449598680813
 20
51.1129586166119978
 30
0.0
 11
-3.068110515423637
 21
52.1104697277231068
 31
0.0
  0
ARC
  5
255
100
AcDbEntity
  8
em_text
 62
256
370
-1
  6
ByLayer
100
AcDbCircle
 10
-1.9948416265347477
 20
51.8228919499453298
 30
0.0
 40
1.1111111111111112
100
AcDbArc
 50
90.0
 51
165.0
  0
LINE
  5
256
100
AcDbEntity
100
AcDbLine
  8
em_text
 62
256
370
-1
  6
ByLayer
 10
-1.9948416265347475
 20
52.9340030610564369
 30
0.0
 11
1.5970094845763629
 21
52.9340030610564369
 31
0.0
  0
LINE
  5
257
100
AcDbEntity
100
AcDbLine
  8
em_text
 62
256
370
-1
  6
ByLayer
 10
5.266612817909694
 20
59.3735252832786529
 30
0.0
 11
3.5411494845763603
 21
52.9340030610564298
 31
0.0
  0
LINE
  5
258
100
AcDbEntity
100
AcDbLine
  8
em_text
 62
256
370
-1
  6
ByLayer
 10
2.678417262354138
 20
49.7142586166119855
 30
0.0
 11
2.8222228179096933
 21
50.2508808388342061
 31
0.0
  0
LINE
  5
259
100
AcDbEntity
100
AcDbLine
  8
em_text
 62
256
370
-1
  6
ByLayer
 10
-113.8668787528049222
 20
61.4044797357654204
 30
0.0
 11
-116.3810361970237608
 21
58.8903222915465818
 31
0.0
  0
LINE
  5
25A
100
AcDbEntity
100
AcDbLine
  8
em_text
 62
256
370
-1
  6
ByLayer
 10
-116.3810361970237608
 20
58.8903222915465818
 30
0.0
 11
-112.3810154745077625
 21
51.9621302759998969
 31
0.0
  0
LINE
  5
25B
100
AcDbEntity
100
AcDbLine
  8
em_text
 62
256
370
-1
  6
ByLayer
 10
-112.3810154745077625
 20
51.9621302759998969
 30
0.0
 11
-109.8668580302889239
 21
54.4762877202187354
 31
0.0
  0
LINE
  5
25C
100
AcDbEntity
100
AcDbLine
  8
em_text
 62
256
370
-1
  6
ByLayer
 10
-114.6032559834964388
 20
55.811114875672537
 30
0.0
 11
-112.7176379003323063
 21
57.6967329588366695
 31
0.0
  0
LINE
  5
25D
100
AcDbEntity
100
AcDbLine
  8
em_text
 62
256
370
-1
  6
ByLayer
 10
-110.7551318542090542
 20
60.8734890550070276
 30
0.0
 11
-105.5743452590273677
 21
58.7688004914802633
 31
0.0
  0
LINE
  5
25E
100
AcDbEntity
100
AcDbLine
  8
em_text
 62
256
370
-1
  6
ByLayer
 10
-108.2409744099902156
 20
63.3876464992258661
 30
0.0
 11
-108.0885027032462062
 21
56.2546430472614247
 31
0.0
  0
LINE
  5
25F
100
AcDbEntity
100
AcDbLine
  8
em_text
 62
256
370
-1
  6
ByLayer
 10
-107.6554485115699293
 20
67.6159099770003849
 30
0.0
 11
-103.6554277890539311
 21
60.6877179614536928
 31
0.0
  0
LINE
  5
260
100
AcDbEntity
100
AcDbLine
  8
em_text
 62
256
370
-1
  6
ByLayer
 10
-106.9505963010714851
 20
64.6780246081445966
 30
0.0
 11
-105.0649782179073668
 21
66.5636426913087291
 31
0.0
  0
LINE
  5
261
100
AcDbEntity
100
AcDbLine
  8
em_text
 62
256
370
-1
  6
ByLayer
 10
-101.1079709580257742
 20
63.2351747924818497
 30
0.0
 11
-103.7746001089886221
 21
67.8540208002274596
 31
0.0
  0
LINE
  5
262
100
AcDbEntity
100
AcDbLine
  8
em_text
 62
256
370
-1
  6
ByLayer
 10
-103.7746001089886221
 20
67.8540208002274596
 30
0.0
 11
-102.7081089775563072
 21
68.9205119316597887
 31
0.0
  0
ARC
  5
263
100
AcDbEntity
  8
em_text
 62
256
370
-1
  6
ByLayer
100
AcDbCircle
 10
-102.0795696165015869
 20
68.2919725706050684
 30
0.0
 40
0.8888888888888888
100
AcDbArc
 50
30.0000000000000178
 51
135.0
  0
LINE
  5
264
100
AcDbEntity
100
AcDbLine
  8
em_text
 62
256
370
-1
  6
ByLayer
 10
-100.7892688179242526
 20
70.8393520912918291
 30
0.0
 11
-98.7017865194063546
 21
67.223795068067048
 31
0.0
  0
ARC
  5
265
100
AcDbEntity
  8
em_text
 62
256
370
-1
  6
ByLayer
100
AcDbCircle
 10
-97.931974765942897
 20
67.668249706674132
 30
0.0
 40
0.8888888888888888
100
AcDbArc
 50
210.0
 51
315.0
  0
LINE
  5
266
100
AcDbEntity
100
AcDbLine
  8
em_text
 62
256
370
-1
  6
ByLayer
 10
-97.3034354048881909
 20
67.0397103456194259
 30
0.0
 11
-95.6084049124011557
 21
68.7347408381064611
 31
0.0
  0
LINE
  5
267
100
AcDbEntity
100
AcDbLine
  8
em_text
 62
256
370
-1
  6
ByLayer
 10
-95.6084049124011557
 20
68.7347408381064611
 30
0.0
 11
-98.2751113737054141
 21
73.3535095355106534
 31
0.0
  0
LINE
  5
268
100
AcDbEntity
100
AcDbLine
  8
em_text
 62
256
370
-1
  6
ByLayer
 10
-95.8039673921209953
 20
79.4673910964493047
 30
0.0
 11
-91.8039466696049971
 21
72.5391990809026197
 31
0.0
  0
LINE
  5
269
100
AcDbEntity
100
AcDbLine
  8
em_text
 62
256
370
-1
  6
ByLayer
 10
-91.8039466696049971
 20
72.5391990809026197
 30
0.0
 11
-93.4989771620920322
 21
70.8441685884155845
 31
0.0
  0
ARC
  5
26A
100
AcDbEntity
  8
em_text
 62
256
370
-1
  6
ByLayer
100
AcDbCircle
 10
-94.1275165231467383
 20
71.4727079494702906
 30
0.0
 40
0.8888888888888888
100
AcDbArc
 50
210.0
 51
315.0
  0
LINE
  5
26B
100
AcDbEntity
100
AcDbLine
  8
em_text
 62
256
370
-1
  6
ByLayer
 10
-94.897328276610196
 20
71.0282533108632066
 30
0.0
 11
-96.6437060351198625
 21
74.0531932668431381
 31
0.0
  0
ARC
  5
26C
100
AcDbEntity
  8
em_text
 62
256
370
-1
  6
ByLayer
100
AcDbCircle
 10
-95.8738949101957729
 20
74.4976472769108824
 30
0.0
 40
0.8888888888888888
100
AcDbArc
 50
135.0
 51
210.0
  0
LINE
  5
26D
100
AcDbEntity
100
AcDbLine
  8
em_text
 62
256
370
-1
  6
ByLayer
 10
-96.502434271250479
 20
75.1261866379655885
 30
0.0
 11
-94.470575820567845
 21
77.1580450886482225
 31
0.0
  0
LINE
  5
26E
100
AcDbEntity
100
AcDbLine
  8
em_text
 62
256
370
-1
  6
ByLayer
 10
-87.5114338983434692
 20
76.8317118521641476
 30
0.0
 11
-89.2064643908305044
 21
75.1366813596771124
 31
0.0
  0
ARC
  5
26F
100
AcDbEntity
  8
em_text
 62
256
370
-1
  6
ByLayer
100
AcDbCircle
 10
-89.8350037518852105
 20
75.7652207207318185
 30
0.0
 40
0.8888888888888888
100
AcDbArc
 50
210.0
 51
315.0
  0
LINE
  5
270
100
AcDbEntity
100
AcDbLine
  8
em_text
 62
256
370
-1
  6
ByLayer
 10
-90.6048155053486681
 20
75.3207660821247345
 30
0.0
 11
-92.3511932638583346
 21
78.3457060381046659
 31
0.0
  0
ARC
  5
271
100
AcDbEntity
  8
em_text
 62
256
370
-1
  6
ByLayer
100
AcDbCircle
 10
-91.5813758535406492
 20
78.7901537627788002
 30
0.0
 40
0.8888888888888888
100
AcDbArc
 50
135.0
 51
210.0
  0
LINE
  5
272
100
AcDbEntity
100
AcDbLine
  8
em_text
 62
256
370
-1
  6
ByLayer
 10
-92.2099981817910077
 20
79.4186227274250598
 30
0.0
 11
-90.9971900010381063
 21
80.6314309081779612
 31
0.0
  0
ARC
  5
273
100
AcDbEntity
  8
em_text
 62
256
370
-1
  6
ByLayer
100
AcDbCircle
 10
-90.3686443545897902
 20
80.0028852617296451
 30
0.0
 40
0.8888888888888888
100
AcDbArc
 50
30.0000000000000178
 51
135.0
  0
LINE
  5
274
100
AcDbEntity
100
AcDbLine
  8
em_text
 62
256
370
-1
  6
ByLayer
 10
-89.5989161968613672
 20
80.4472688753889145
 30
0.0
 11
-88.844742502700953
 21
79.1411282563736478
 31
0.0
  0
LINE
  5
275
100
AcDbEntity
100
AcDbLine
  8
em_text
 62
256
370
-1
  6
ByLayer
 10
-88.844742502700953
 20
79.1411282563736478
 30
0.0
 11
-91.3588999469197915
 21
76.6269708121548092
 31
0.0
  0
LINE
  5
276
100
AcDbEntity
100
AcDbLine
  8
em_text
 62
256
370
-1
  6
ByLayer
 10
-86.4116433801018218
 20
77.9315023704057808
 30
0.0
 11
-89.0782725310646697
 21
82.5503483781513836
 31
0.0
  0
LINE
  5
277
100
AcDbEntity
100
AcDbLine
  8
em_text
 62
256
370
-1
  6
ByLayer
 10
-89.0782725310646697
 20
82.5503483781513836
 30
0.0
 11
-88.0117813996323406
 21
83.6168395095837127
 31
0.0
  0
ARC
  5
278
100
AcDbEntity
  8
em_text
 62
256
370
-1
  6
ByLayer
100
AcDbCircle
 10
-87.3832420385776345
 20
82.9883001485290066
 30
0.0
 40
0.8888888888888888
100
AcDbArc
 50
30.0000000000000178
 51
135.0
  0
LINE
  5
279
100
AcDbEntity
100
AcDbLine
  8
em_text
 62
256
370
-1
  6
ByLayer
 10
-87.4262366450312385
 20
87.8451218435390615
 30
0.0
 11
-84.7595622392343699
 21
83.2263085198402308
 31
0.0
  0
LINE
  5
27A
100
AcDbEntity
100
AcDbLine
  8
em_text
 62
256
370
-1
  6
ByLayer
 10
-83.4262347786960561
 20
80.9169109718115465
 30
0.0
 11
-83.6484454417065422
 21
81.3018190484310281
 31
0.0
  0
ENDSEC
  0
SECTION
  2
OBJECTS
  0
DICTIONARY
  5
C
100
AcDbDictionary
280
0
281
1
  3
ACAD_GROUP
350
D
  3
ACAD_LAYOUT
350
1A
  3
ACAD_MLINESTYLE
350
17
  3
ACAD_PLOTSETTINGS
350
19
  3
ACAD_PLOTSTYLENAME
350
E
  3
AcDbVariableDictionary
350
27B
  0
DICTIONARY
  5
D
100
AcDbDictionary
280
0
281
1
  0
ACDBDICTIONARYWDFLT
  5
E
100
AcDbDictionary
281
1
  3
Normal
350
F
100
AcDbDictionaryWithDefault
340
F
  0
ACDBPLACEHOLDER
  5
F
  0
DICTIONARY
  5
17
100
AcDbDictionary
280
0
281
1
  3
Standard
350
18
  0
MLINESTYLE
  5
18
100
AcDbMlineStyle
  2
STANDARD
 70
0
  3

 62
256
 51
90.0
 52
90.0
 71
2
 49
0.5
 62
256
  6
BYLAYER
 49
-0.5
 62
256
  6
BYLAYER
  0
DICTIONARY
  5
19
100
AcDbDictionary
280
0
281
1
  0
DICTIONARY
  5
1A
100
AcDbDictionary
281
1
  3
Layout1
350
1E
  3
Layout2
350
26
  3
Model
350
22
  0
LAYOUT
  5
1E
100
AcDbPlotSettings
  1

  2
C:\Program Files\AutoCAD 2002\plotters\DWF ePlot (optimized for plotting).pc3
  4

  6

 40
0.0
 41
0.0
 42
0.0
 43
0.0
 44
0.0
 45
0.0
 46
0.0
 47
0.0
 48
0.0
 49
0.0
140
0.0
141
0.0
142
1.0
143
1.0
 70
688
 72
0
 73
0
 74
5
  7

 75
16
147
1.0
148
0.0
149
0.0
100
AcDbLayout
  1
Layout1
 70
1
 71
1
 10
0.0
 20
0.0
 11
420.0
 21
297.0
 12
0.0
 22
0.0
 32
0.0
 14
100000000000000000000.0
 24
100000000000000000000.0
 34
100000000000000000000.0
 15
-100000000000000000000.0
 25
-100000000000000000000.0
 35
-100000000000000000000.0
146
0.0
 13
0.0
 23
0.0
 33
0.0
 16
1.0
 26
0.0
 36
0.0
 17
0.0
 27
1.0
 37
0.0
 76
0
330
1B
  0
LAYOUT
  5
22
100
AcDbPlotSettings
  1

  2
C:\Program Files\AutoCAD 2002\plotters\DWF ePlot (optimized for plotting).pc3
  4

  6

 40
0.0
 41
0.0
 42
0.0
 43
0.0
 44
0.0
 45
0.0
 46
0.0
 47
0.0
 48
0.0
 49
0.0
140
0.0
141
0.0
142
1.0
143
1.0
 70
1712
 72
0
 73
0
 74
0
  7

 75
0
147
1.0
148
0.0
149
0.0
100
AcDbLayout
  1
Model
 70
1
 71
0
 10
0.0
 20
0.0
 11
12.0
 21
9.0
 12
0.0
 22
0.0
 32
0.0
 14
0.0
 24
0.0
 34
0.0
 15
0.0
 25
0.0
 35
0.0
146
0.0
 13
0.0
 23
0.0
 33
0.0
 16
1.0
 26
0.0
 36
0.0
 17
0.0
 27
1.0
 37
0.0
 76
0
330
1F
  0
LAYOUT
  5
26
100
AcDbPlotSettings
  1

  2
C:\Program Files\AutoCAD 2002\plotters\DWF ePlot (optimized for plotting).pc3
  4

  6

 40
0.0
 41
0.0
 42
0.0
 43
0.0
 44
0.0
 45
0.0
 46
0.0
 47
0.0
 48
0.0
 49
0.0
140
0.0
141
0.0
142
1.0
143
1.0
 70
688
 72
0
 73
0
 74
5
  7

 75
16
147
1.0
148
0.0
149
0.0
100
AcDbLayout
  1
Layout2
 70
1
 71
2
 10
0.0
 20
0.0
 11
12.0
 21
9.0
 12
0.0
 22
0.0
 32
0.0
 14
0.0
 24
0.0
 34
0.0
 15
0.0
 25
0.0
 35
0.0
146
0.0
 13
0.0
 23
0.0
 33
0.0
 16
1.0
 26
0.0
 36
0.0
 17
0.0
 27
1.0
 37
0.0
 76
0
330
23
  0
DICTIONARY
  5
27B
100
AcDbDictionary
281
1
  3
DIMASSOC
350
27D
  3
HIDETEXT
350
27C
  0
DICTIONARYVAR
  5
27C
100
DictionaryVariables
280
0
  1
2
  0
DICTIONARYVAR
  5
27D
100
DictionaryVariables
280
0
  1
1
  0
ENDSEC
  0
EOF
