999
dxflib 2.2.0.0
  0
SECTION
  2
HEADER
  9
$ACADVER
  1
AC1015
  9
$HANDSEED
  5
FFFF
  9
$DIMASZ
 40
2.5
  9
$PLIMMIN
 10
0.0
 20
0.0
  9
$DIMEXE
 40
1.25
  9
$DIMGAP
 40
0.625
  9
$PLIMMAX
 10
210.0
 20
297.0
  9
$INSUNITS
 70
4
  9
$DIMSTYLE
  2
Standard
  9
$CLAYER
  8
em_text
  9
$DIMEXO
 40
0.625
  9
$DIMTXT
 40
2.5
  9
$CLAYER
  8
holes
  0
ENDSEC
  0
SECTION
  2
TABLES
  0
TABLE
  2
VPORT
  5
8
100
AcDbSymbolTable
 70
1
  0
VPORT
  5
30
100
AcDbSymbolTableRecord
100
AcDbViewportTableRecord
  2
*Active
 70
0
 10
0.0
 20
0.0
 11
1.0
 21
1.0
 12
286.3055555555554861
 22
148.5
 13
0.0
 23
0.0
 14
10.0
 24
10.0
 15
10.0
 25
10.0
 16
0.0
 26
0.0
 36
1.0
 17
0.0
 27
0.0
 37
0.0
 40
297.0
 41
1.92798353909465
 42
50.0
 43
0.0
 44
0.0
 50
0.0
 51
0.0
 71
0
 72
100
 73
1
 74
3
 75
1
 76
1
 77
0
 78
0
281
0
 65
1
110
0.0
120
0.0
130
0.0
111
1.0
121
0.0
131
0.0
112
0.0
122
1.0
132
0.0
 79
0
146
0.0
  0
ENDTAB
  0
TABLE
  2
LTYPE
  5
5
100
AcDbSymbolTable
 70
21
  0
LTYPE
  5
14
100
AcDbSymbolTableRecord
100
AcDbLinetypeTableRecord
  2
ByBlock
 70
0
  3

 72
65
 73
0
 40
0.0
  0
LTYPE
  5
15
100
AcDbSymbolTableRecord
100
AcDbLinetypeTableRecord
  2
ByLayer
 70
0
  3

 72
65
 73
0
 40
0.0
  0
LTYPE
  5
16
100
AcDbSymbolTableRecord
100
AcDbLinetypeTableRecord
  2
CONTINUOUS
 70
0
  3
Solid line
 72
65
 73
0
 40
0.0
  0
LTYPE
  5
31
100
AcDbSymbolTableRecord
100
AcDbLinetypeTableRecord
  2
DOT
 70
0
  3
Dot . . . . . . . . . . . . . . . . . . . . . .
 72
65
 73
2
 40
6.3499999999999996
 49
0.0
 74
0
 49
-6.3499999999999996
 74
0
  0
LTYPE
  5
32
100
AcDbSymbolTableRecord
100
AcDbLinetypeTableRecord
  2
DOT2
 70
0
  3
Dot (.5x) .....................................
 72
65
 73
2
 40
3.1749999999999998
 49
0.0
 74
0
 49
-3.1749999999999998
 74
0
  0
LTYPE
  5
33
100
AcDbSymbolTableRecord
100
AcDbLinetypeTableRecord
  2
DOTX2
 70
0
  3
Dot (2x) .  .  .  .  .  .  .  .  .  .  .  .  .
 72
65
 73
2
 40
12.6999999999999993
 49
0.0
 74
0
 49
-12.6999999999999993
 74
0
  0
LTYPE
  5
34
100
AcDbSymbolTableRecord
100
AcDbLinetypeTableRecord
  2
DASHED
 70
0
  3
Dashed __ __ __ __ __ __ __ __ __ __ __ __ __ _
 72
65
 73
2
 40
19.0500000000000007
 49
12.6999999999999993
 74
0
 49
-6.3499999999999996
 74
0
  0
LTYPE
  5
35
100
AcDbSymbolTableRecord
100
AcDbLinetypeTableRecord
  2
DASHED2
 70
0
  3
Dashed (.5x) _ _ _ _ _ _ _ _ _ _ _ _ _ _ _ _ _
 72
65
 73
2
 40
9.5250000000000004
 49
6.3499999999999996
 74
0
 49
-3.1749999999999998
 74
0
  0
LTYPE
  5
36
100
AcDbSymbolTableRecord
100
AcDbLinetypeTableRecord
  2
DASHEDX2
 70
0
  3
Dashed (2x) ____  ____  ____  ____  ____  ___
 72
65
 73
2
 40
38.1000000000000014
 49
25.3999999999999986
 74
0
 49
-12.6999999999999993
 74
0
  0
LTYPE
  5
37
100
AcDbSymbolTableRecord
100
AcDbLinetypeTableRecord
  2
DASHDOT
 70
0
  3
Dash dot __ . __ . __ . __ . __ . __ . __ . __
 72
65
 73
4
 40
25.3999999999999986
 49
12.6999999999999993
 74
0
 49
-6.3499999999999996
 74
0
 49
0.0
 74
0
 49
-6.3499999999999996
 74
0
  0
LTYPE
  5
38
100
AcDbSymbolTableRecord
100
AcDbLinetypeTableRecord
  2
DASHDOT2
 70
0
  3
Dash dot (.5x) _._._._._._._._._._._._._._._.
 72
65
 73
4
 40
12.6999999999999993
 49
6.3499999999999996
 74
0
 49
-3.1749999999999998
 74
0
 49
0.0
 74
0
 49
-3.1749999999999998
 74
0
  0
LTYPE
  5
39
100
AcDbSymbolTableRecord
100
AcDbLinetypeTableRecord
  2
DASHDOTX2
 70
0
  3
Dash dot (2x) ____  .  ____  .  ____  .  ___
 72
65
 73
4
 40
50.7999999999999972
 49
25.3999999999999986
 74
0
 49
-12.6999999999999993
 74
0
 49
0.0
 74
0
 49
-12.6999999999999993
 74
0
  0
LTYPE
  5
3A
100
AcDbSymbolTableRecord
100
AcDbLinetypeTableRecord
  2
DIVIDE
 70
0
  3
Divide ____ . . ____ . . ____ . . ____ . . ____
 72
65
 73
6
 40
31.75
 49
12.6999999999999993
 74
0
 49
-6.3499999999999996
 74
0
 49
0.0
 74
0
 49
-6.3499999999999996
 74
0
 49
0.0
 74
0
 49
-6.3499999999999996
 74
0
  0
LTYPE
  5
3B
100
AcDbSymbolTableRecord
100
AcDbLinetypeTableRecord
  2
DIVIDE2
 70
0
  3
Divide (.5x) __..__..__..__..__..__..__..__.._
 72
65
 73
6
 40
15.875
 49
6.3499999999999996
 74
0
 49
-3.1749999999999998
 74
0
 49
0.0
 74
0
 49
-3.1749999999999998
 74
0
 49
0.0
 74
0
 49
-3.1749999999999998
 74
0
  0
LTYPE
  5
3C
100
AcDbSymbolTableRecord
100
AcDbLinetypeTableRecord
  2
DIVIDEX2
 70
0
  3
Divide (2x) ________  .  .  ________  .  .  _
 72
65
 73
6
 40
63.5
 49
25.3999999999999986
 74
0
 49
-12.6999999999999993
 74
0
 49
0.0
 74
0
 49
-12.6999999999999993
 74
0
 49
0.0
 74
0
 49
-12.6999999999999993
 74
0
  0
LTYPE
  5
3D
100
AcDbSymbolTableRecord
100
AcDbLinetypeTableRecord
  2
CENTER
 70
0
  3
Center ____ _ ____ _ ____ _ ____ _ ____ _ ____
 72
65
 73
4
 40
50.7999999999999972
 49
31.75
 74
0
 49
-6.3499999999999996
 74
0
 49
6.3499999999999996
 74
0
 49
-6.3499999999999996
 74
0
  0
LTYPE
  5
3E
100
AcDbSymbolTableRecord
100
AcDbLinetypeTableRecord
  2
CENTER2
 70
0
  3
Center (.5x) ___ _ ___ _ ___ _ ___ _ ___ _ ___
 72
65
 73
4
 40
28.5749999999999993
 49
19.0500000000000007
 74
0
 49
-3.1749999999999998
 74
0
 49
3.1749999999999998
 74
0
 49
-3.1749999999999998
 74
0
  0
LTYPE
  5
3F
100
AcDbSymbolTableRecord
100
AcDbLinetypeTableRecord
  2
CENTERX2
 70
0
  3
Center (2x) ________  __  ________  __  _____
 72
65
 73
4
 40
101.5999999999999943
 49
63.5
 74
0
 49
-12.6999999999999993
 74
0
 49
12.6999999999999993
 74
0
 49
-12.6999999999999993
 74
0
  0
LTYPE
  5
40
100
AcDbSymbolTableRecord
100
AcDbLinetypeTableRecord
  2
BORDER
 70
0
  3
Border __ __ . __ __ . __ __ . __ __ . __ __ .
 72
65
 73
6
 40
44.4500000000000028
 49
12.6999999999999993
 74
0
 49
-6.3499999999999996
 74
0
 49
12.6999999999999993
 74
0
 49
-6.3499999999999996
 74
0
 49
0.0
 74
0
 49
-6.3499999999999996
 74
0
  0
LTYPE
  5
41
100
AcDbSymbolTableRecord
100
AcDbLinetypeTableRecord
  2
BORDER2
 70
0
  3
Border (.5x) __.__.__.__.__.__.__.__.__.__.__.
 72
65
 73
6
 40
22.2250000000000014
 49
6.3499999999999996
 74
0
 49
-3.1749999999999998
 74
0
 49
6.3499999999999996
 74
0
 49
-3.1749999999999998
 74
0
 49
0.0
 74
0
 49
-3.1749999999999998
 74
0
  0
LTYPE
  5
42
100
AcDbSymbolTableRecord
100
AcDbLinetypeTableRecord
  2
BORDERX2
 70
0
  3
Border (2x) ____  ____  .  ____  ____  .  ___
 72
65
 73
6
 40
88.9000000000000057
 49
25.3999999999999986
 74
0
 49
-12.6999999999999993
 74
0
 49
25.3999999999999986
 74
0
 49
-12.6999999999999993
 74
0
 49
0.0
 74
0
 49
-12.6999999999999993
 74
0
  0
ENDTAB
  0
TABLE
  2
LAYER
  5
2
100
AcDbSymbolTable
 70
4
  0
LAYER
  5
10
100
AcDbSymbolTableRecord
100
AcDbLayerTableRecord
  2
0
 70
0
 62
7
420
0
  6
CONTINUOUS
370
25
390
F
  0
LAYER
  5
43
100
AcDbSymbolTableRecord
100
AcDbLayerTableRecord
  2
em_text
 70
0
 62
1
420
16711680
  6
CONTINUOUS
370
0
390
F
  0
LAYER
  5
44
100
AcDbSymbolTableRecord
100
AcDbLayerTableRecord
  2
l3
 70
0
 62
7
420
0
  6
CONTINUOUS
370
0
390
F
  0
LAYER
  5
45
100
AcDbSymbolTableRecord
100
AcDbLayerTableRecord
  2
holes
 70
0
 62
7
420
0
  6
CONTINUOUS
370
0
390
F
  0
ENDTAB
  0
TABLE
  2
STYLE
  5
3
100
AcDbSymbolTable
 70
1
  0
STYLE
  5
11
100
AcDbSymbolTableRecord
100
AcDbTextStyleTableRecord
  2
Standard
 70
0
 40
0.0
 41
0.75
 50
0.0
 71
0
 42
2.5
  3
txt
  4

  0
ENDTAB
  0
TABLE
  2
VIEW
  5
6
100
AcDbSymbolTable
 70
0
  0
ENDTAB
  0
TABLE
  2
UCS
  5
7
100
AcDbSymbolTable
 70
0
  0
ENDTAB
  0
TABLE
  2
APPID
  5
9
100
AcDbSymbolTable
 70
1
  0
APPID
  5
12
100
AcDbSymbolTableRecord
100
AcDbRegAppTableRecord
  2
ACAD
 70
0
  0
ENDTAB
  0
TABLE
  2
DIMSTYLE
  5
A
100
AcDbSymbolTable
 70
1
100
AcDbDimStyleTable
 71
0
  0
DIMSTYLE
105
27
100
AcDbSymbolTableRecord
100
AcDbDimStyleTableRecord
  2
Standard
 41
2.5
 42
0.625
 43
3.75
 44
1.25
 70
0
 73
0
 74
0
 77
1
 78
8
140
2.5
141
2.5
143
0.03937007874016
147
0.625
171
3
172
1
271
2
272
2
274
3
278
44
283
0
284
8
340
11
  0
ENDTAB
  0
TABLE
  2
BLOCK_RECORD
  5
1
100
AcDbSymbolTable
 70
1
  0
BLOCK_RECORD
  5
1F
100
AcDbSymbolTableRecord
100
AcDbBlockTableRecord
  2
*Model_Space
340
22
  0
BLOCK_RECORD
  5
1B
100
AcDbSymbolTableRecord
100
AcDbBlockTableRecord
  2
*Paper_Space
340
1E
  0
BLOCK_RECORD
  5
23
100
AcDbSymbolTableRecord
100
AcDbBlockTableRecord
  2
*Paper_Space0
340
26
  0
ENDTAB
  0
ENDSEC
  0
SECTION
  2
BLOCKS
  0
BLOCK
  5
20
100
AcDbEntity
  8
0
100
AcDbBlockBegin
  2
*Model_Space
 70
0
 10
0.0
 20
0.0
 30
0.0
  3
*Model_Space
  1

  0
ENDBLK
  5
21
100
AcDbEntity
  8
0
100
AcDbBlockEnd
  0
BLOCK
  5
1C
100
AcDbEntity
 67
1
  8
0
100
AcDbBlockBegin
  2
*Paper_Space
 70
0
 10
0.0
 20
0.0
 30
0.0
  3
*Paper_Space
  1

  0
ENDBLK
  5
1D
100
AcDbEntity
 67
1
  8
0
100
AcDbBlockEnd
  0
BLOCK
  5
24
100
AcDbEntity
  8
0
100
AcDbBlockBegin
  2
*Paper_Space0
 70
0
 10
0.0
 20
0.0
 30
0.0
  3
*Paper_Space0
  1

  0
ENDBLK
  5
25
100
AcDbEntity
  8
0
100
AcDbBlockEnd
  0
ENDSEC
  0
SECTION
  2
ENTITIES
  0
ARC
  5
46
100
AcDbEntity
  8
l3
 62
256
370
-1
  6
ByLayer
100
AcDbCircle
 10
-149.0804602500755891
 20
260.7208126170226024
 30
0.0
 40
7.5
100
AcDbArc
 50
269.9815555897807258
 51
359.981555589780271
  0
ARC
  5
47
100
AcDbEntity
  8
l3
 62
256
370
-1
  6
ByLayer
100
AcDbCircle
 10
75.8455785312245325
 20
260.7208126170224887
 30
0.0
 40
7.5
100
AcDbArc
 50
180.018444410219729
 51
270.0184444102192742
  0
ARC
  5
48
100
AcDbEntity
  8
l3
 62
256
370
-1
  6
ByLayer
100
AcDbCircle
 10
75.8821823659992845
 20
30.7321414742211658
 30
0.0
 40
7.5
100
AcDbArc
 50
90.0001450512299641
 51
180.0001450510921472
  0
ARC
  5
49
100
AcDbEntity
  8
l3
 62
256
370
-1
  6
ByLayer
100
AcDbCircle
 10
-149.1170640848505968
 20
30.7321414742214216
 30
0.0
 40
7.5
100
AcDbArc
 50
359.9998549489079096
 51
89.9998549487700217
  0
ARC
  5
4A
100
AcDbEntity
  8
l3
 62
256
370
-1
  6
ByLayer
100
AcDbCircle
 10
-110.6185359214230459
 20
149.2082300869164158
 30
0.0
 40
5.0
100
AcDbArc
 50
180.0
 51
270.0
  0
ARC
  5
4B
100
AcDbEntity
  8
l3
 62
256
370
-1
  6
ByLayer
100
AcDbCircle
 10
37.3814640785769541
 20
149.2082300869163589
 30
0.0
 40
5.0
100
AcDbArc
 50
270.0
 51
0.0
  0
CIRCLE
  5
4C
100
AcDbEntity
100
AcDbCircle
  8
holes
 62
256
370
-1
  6
ByLayer
 10
100.3823884631316616
 20
187.4285770300738534
 30
0.0
 40
1.5
  0
CIRCLE
  5
4D
100
AcDbEntity
100
AcDbCircle
  8
holes
 62
256
370
-1
  6
ByLayer
 10
100.3822688693298062
 20
234.6685770299224885
 30
0.0
 40
1.5
  0
CIRCLE
  5
4E
100
AcDbEntity
100
AcDbCircle
  8
holes
 62
256
370
-1
  6
ByLayer
 10
53.1422688694811569
 20
234.668457436120633
 30
0.0
 40
1.5
  0
CIRCLE
  5
4F
100
AcDbEntity
100
AcDbCircle
  8
holes
 62
256
370
-1
  6
ByLayer
 10
53.1423884632830266
 20
187.4284574362720548
 30
0.0
 40
1.5
  0
CIRCLE
  5
50
100
AcDbEntity
100
AcDbCircle
  8
holes
 62
256
370
-1
  6
ByLayer
 10
100.3825612209865881
 20
119.1885770302922793
 30
0.0
 40
1.5
  0
CIRCLE
  5
51
100
AcDbEntity
100
AcDbCircle
  8
holes
 62
256
370
-1
  6
ByLayer
 10
100.3824416271847326
 20
166.4285770301410992
 30
0.0
 40
1.5
  0
CIRCLE
  5
52
100
AcDbEntity
100
AcDbCircle
  8
holes
 62
256
370
-1
  6
ByLayer
 10
53.1424416273360976
 20
166.42845743633913
 30
0.0
 40
1.5
  0
CIRCLE
  5
53
100
AcDbEntity
100
AcDbCircle
  8
holes
 62
256
370
-1
  6
ByLayer
 10
53.1425612211379672
 20
119.1884574364905376
 30
0.0
 40
1.5
  0
CIRCLE
  5
54
100
AcDbEntity
100
AcDbCircle
  8
holes
 62
256
370
-1
  6
ByLayer
 10
-165.7335167936319635
 20
49.7042509961340784
 30
0.0
 40
1.5
  0
CIRCLE
  5
55
100
AcDbEntity
100
AcDbCircle
  8
holes
 62
256
370
-1
  6
ByLayer
 10
-145.7335167936320204
 20
49.7042509961341068
 30
0.0
 40
1.5
  0
CIRCLE
  5
56
100
AcDbEntity
100
AcDbCircle
  8
holes
 62
256
370
-1
  6
ByLayer
 10
-145.7335167936320204
 20
69.7042509961342063
 30
0.0
 40
1.5
  0
CIRCLE
  5
57
100
AcDbEntity
100
AcDbCircle
  8
holes
 62
256
370
-1
  6
ByLayer
 10
-165.7335167936319635
 20
69.7042509961340926
 30
0.0
 40
1.5
  0
CIRCLE
  5
58
100
AcDbEntity
100
AcDbCircle
  8
holes
 62
256
370
-1
  6
ByLayer
 10
-165.7335167936302582
 20
221.7072432276254403
 30
0.0
 40
1.5
  0
CIRCLE
  5
59
100
AcDbEntity
100
AcDbCircle
  8
holes
 62
256
370
-1
  6
ByLayer
 10
-145.7335167936302582
 20
221.7072432276253551
 30
0.0
 40
1.5
  0
CIRCLE
  5
5A
100
AcDbEntity
100
AcDbCircle
  8
holes
 62
256
370
-1
  6
ByLayer
 10
-145.733516793630173
 20
241.7072432276255256
 30
0.0
 40
1.5
  0
CIRCLE
  5
5B
100
AcDbEntity
100
AcDbCircle
  8
holes
 62
256
370
-1
  6
ByLayer
 10
-165.7335167936301445
 20
241.7072432276255256
 30
0.0
 40
1.5
  0
CIRCLE
  5
5C
100
AcDbEntity
100
AcDbCircle
  8
holes
 62
256
370
-1
  6
ByLayer
 10
98.3716329125498419
 20
96.7084872288852466
 30
0.0
 40
2.0
  0
CIRCLE
  5
5D
100
AcDbEntity
100
AcDbCircle
  8
holes
 62
256
370
-1
  6
ByLayer
 10
92.4981723518916965
 20
49.7045778685880038
 30
0.0
 40
1.5
  0
CIRCLE
  5
5E
100
AcDbEntity
100
AcDbCircle
  8
holes
 62
256
370
-1
  6
ByLayer
 10
72.4981723519558159
 20
49.7045272361571477
 30
0.0
 40
1.5
  0
CIRCLE
  5
5F
100
AcDbEntity
100
AcDbCircle
  8
holes
 62
256
370
-1
  6
ByLayer
 10
72.4981217195249314
 20
69.7045272360932557
 30
0.0
 40
1.5
  0
CIRCLE
  5
60
100
AcDbEntity
100
AcDbCircle
  8
holes
 62
256
370
-1
  6
ByLayer
 10
92.4981217194608689
 20
69.7045778685242254
 30
0.0
 40
1.5
  0
CIRCLE
  5
61
100
AcDbEntity
100
AcDbCircle
  8
holes
 62
256
370
-1
  6
ByLayer
 10
92.4977369054088854
 20
221.707570099528283
 30
0.0
 40
1.5
  0
CIRCLE
  5
62
100
AcDbEntity
100
AcDbCircle
  8
holes
 62
256
370
-1
  6
ByLayer
 10
72.4977369054729621
 20
221.7075194670973985
 30
0.0
 40
1.5
  0
CIRCLE
  5
63
100
AcDbEntity
100
AcDbCircle
  8
holes
 62
256
370
-1
  6
ByLayer
 10
72.4976862730419924
 20
241.7075194670332792
 30
0.0
 40
1.5
  0
CIRCLE
  5
64
100
AcDbEntity
100
AcDbCircle
  8
holes
 62
256
370
-1
  6
ByLayer
 10
92.4976862729779157
 20
241.7075700994642773
 30
0.0
 40
1.5
  0
CIRCLE
  5
65
100
AcDbEntity
100
AcDbCircle
  8
holes
 62
256
370
-1
  6
ByLayer
 10
-123.6174408594255851
 20
160.6382134073496388
 30
0.0
 40
1.5
  0
CIRCLE
  5
66
100
AcDbEntity
100
AcDbCircle
  8
holes
 62
256
370
-1
  6
ByLayer
 10
-123.6174408594256136
 20
141.6382134073496957
 30
0.0
 40
1.5
  0
CIRCLE
  5
67
100
AcDbEntity
100
AcDbCircle
  8
holes
 62
256
370
-1
  6
ByLayer
 10
-124.3743920478206633
 20
188.1509038951729167
 30
0.0
 40
1.5
  0
CIRCLE
  5
68
100
AcDbEntity
100
AcDbCircle
  8
holes
 62
256
370
-1
  6
ByLayer
 10
-124.3745116416225187
 20
235.3909038950215233
 30
0.0
 40
1.5
  0
CIRCLE
  5
69
100
AcDbEntity
100
AcDbCircle
  8
holes
 62
256
370
-1
  6
ByLayer
 10
-171.6145116414712106
 20
235.3907843012196679
 30
0.0
 40
1.5
  0
CIRCLE
  5
6A
100
AcDbEntity
100
AcDbCircle
  8
holes
 62
256
370
-1
  6
ByLayer
 10
-171.6143920476692415
 20
188.1507843013710612
 30
0.0
 40
1.5
  0
CIRCLE
  5
6B
100
AcDbEntity
100
AcDbCircle
  8
holes
 62
256
370
-1
  6
ByLayer
 10
-124.3742401505284079
 20
128.1509038953655022
 30
0.0
 40
1.5
  0
CIRCLE
  5
6C
100
AcDbEntity
100
AcDbCircle
  8
holes
 62
256
370
-1
  6
ByLayer
 10
-124.3743597443302633
 20
175.3909038952141088
 30
0.0
 40
1.5
  0
CIRCLE
  5
6D
100
AcDbEntity
100
AcDbCircle
  8
holes
 62
256
370
-1
  6
ByLayer
 10
-171.6143597441788984
 20
175.3907843014121966
 30
0.0
 40
1.5
  0
CIRCLE
  5
6E
100
AcDbEntity
100
AcDbCircle
  8
holes
 62
256
370
-1
  6
ByLayer
 10
-171.6142401503770429
 20
128.1507843015637604
 30
0.0
 40
1.5
  0
LINE
  5
6F
100
AcDbEntity
100
AcDbLine
  8
l3
 62
256
370
-1
  6
ByLayer
 10
-110.6185359214230459
 20
144.2082300869164158
 30
0.0
 11
37.3814640785769541
 21
144.2082300869163589
 31
0.0
  0
CIRCLE
  5
70
100
AcDbEntity
100
AcDbCircle
  8
holes
 62
256
370
-1
  6
ByLayer
 10
-31.2218154242899573
 20
31.2847707571604303
 30
0.0
 40
1.5
  0
CIRCLE
  5
71
100
AcDbEntity
100
AcDbCircle
  8
holes
 62
256
370
-1
  6
ByLayer
 10
-31.2218154242899857
 20
124.2847707571605582
 30
0.0
 40
1.5
  0
CIRCLE
  5
72
100
AcDbEntity
100
AcDbCircle
  8
holes
 62
256
370
-1
  6
ByLayer
 10
-109.2218154242903552
 20
31.284770757160544
 30
0.0
 40
1.5
  0
CIRCLE
  5
73
100
AcDbEntity
100
AcDbCircle
  8
holes
 62
256
370
-1
  6
ByLayer
 10
-109.221815424290412
 20
124.284770757160544
 30
0.0
 40
1.5
  0
CIRCLE
  5
74
100
AcDbEntity
100
AcDbCircle
  8
holes
 62
256
370
-1
  6
ByLayer
 10
-10.9369672469349268
 20
32.6785391302916679
 30
0.0
 40
1.5
  0
CIRCLE
  5
75
100
AcDbEntity
100
AcDbCircle
  8
holes
 62
256
370
-1
  6
ByLayer
 10
-10.9490516872519663
 20
97.0785379964898141
 30
0.0
 40
1.5
  0
CIRCLE
  5
76
100
AcDbEntity
100
AcDbCircle
  8
holes
 62
256
370
-1
  6
ByLayer
 10
51.2009472185585821
 20
97.090200231981953
 30
0.0
 40
1.5
  0
CIRCLE
  5
77
100
AcDbEntity
100
AcDbCircle
  8
holes
 62
256
370
-1
  6
ByLayer
 10
51.2130316588755647
 20
32.6902013657838921
 30
0.0
 40
1.5
  0
LINE
  5
78
100
AcDbEntity
100
AcDbLine
  8
l3
 62
256
370
-1
  6
ByLayer
 10
-141.5804606386871853
 20
260.7183982494121892
 30
0.0
 11
-141.5722555798269582
 21
286.2066205085095589
 31
0.0
  0
LINE
  5
79
100
AcDbEntity
100
AcDbLine
  8
l3
 62
256
370
-1
  6
ByLayer
 10
-115.6185359214230175
 20
286.2066205085096726
 30
0.0
 11
-115.6185359214230459
 21
149.2082300869165579
 31
0.0
  0
LINE
  5
7A
100
AcDbEntity
100
AcDbLine
  8
l3
 62
256
370
-1
  6
ByLayer
 10
-141.5722555798269582
 20
286.2066205085095589
 30
0.0
 11
-115.6185359214230175
 21
286.2066205085096726
 31
0.0
  0
LINE
  5
7B
100
AcDbEntity
100
AcDbLine
  8
l3
 62
256
370
-1
  6
ByLayer
 10
42.3814640785769541
 20
149.2082300869164726
 30
0.0
 11
42.3814640785771246
 21
286.2066205085100137
 31
0.0
  0
LINE
  5
7C
100
AcDbEntity
100
AcDbLine
  8
l3
 62
256
370
-1
  6
ByLayer
 10
68.345578919835944
 20
260.7183982494122461
 30
0.0
 11
68.345578919835944
 21
286.2066205085101274
 31
0.0
  0
LINE
  5
7D
100
AcDbEntity
100
AcDbLine
  8
l3
 62
256
370
-1
  6
ByLayer
 10
42.3814640785771246
 20
286.2066205085100137
 30
0.0
 11
68.345578919835944
 21
286.2066205085101274
 31
0.0
  0
LINE
  5
7E
100
AcDbEntity
100
AcDbLine
  8
l3
 62
256
370
-1
  6
ByLayer
 10
105.3794279084147547
 20
253.2303196381488419
 30
0.0
 11
75.847992898834633
 21
253.2208130056340849
 31
0.0
  0
LINE
  5
7F
100
AcDbEntity
100
AcDbLine
  8
l3
 62
256
370
-1
  6
ByLayer
 10
105.379563981871641
 20
38.2322161504517695
 30
0.0
 11
75.8821633788499099
 21
38.2321414741970926
 31
0.0
  0
LINE
  5
80
100
AcDbEntity
100
AcDbLine
  8
l3
 62
256
370
-1
  6
ByLayer
 10
105.3794279084147547
 20
253.2303196381488419
 30
0.0
 11
105.379563981871641
 21
38.2322161504517695
 31
0.0
  0
LINE
  5
81
100
AcDbEntity
100
AcDbLine
  8
l3
 62
256
370
-1
  6
ByLayer
 10
68.3821823660232155
 20
30.7321224870595131
 30
0.0
 11
68.3822469523037739
 21
5.2202998044158164
 31
0.0
  0
LINE
  5
82
100
AcDbEntity
100
AcDbLine
  8
l3
 62
256
370
-1
  6
ByLayer
 10
-141.6170640848745848
 20
30.7321224870592999
 30
0.0
 11
-141.6171286711551147
 21
5.2202998044155056
 31
0.0
  0
LINE
  5
83
100
AcDbEntity
100
AcDbLine
  8
l3
 62
256
370
-1
  6
ByLayer
 10
68.3822469523037739
 20
5.2202998044158164
 30
0.0
 11
-141.6171286711551147
 21
5.2202998044155056
 31
0.0
  0
LINE
  5
84
100
AcDbEntity
100
AcDbLine
  8
l3
 62
256
370
-1
  6
ByLayer
 10
-178.6185763695646926
 20
38.2322161609097577
 30
0.0
 11
-149.1170450977012365
 21
38.2321414741974195
 31
0.0
  0
LINE
  5
85
100
AcDbEntity
100
AcDbLine
  8
l3
 62
256
370
-1
  6
ByLayer
 10
-178.616785812094605
 20
253.2303204352720627
 30
0.0
 11
-149.0828746176857749
 21
253.2208130056340565
 31
0.0
  0
LINE
  5
86
100
AcDbEntity
100
AcDbLine
  8
l3
 62
256
370
-1
  6
ByLayer
 10
-178.6178936508726736
 20
120.2084872288851045
 30
0.0
 11
-178.616785812094605
 21
253.2303204352720627
 31
0.0
  0
LINE
  5
87
100
AcDbEntity
100
AcDbLine
  8
l3
 62
256
370
-1
  6
ByLayer
 10
-178.6178936508726736
 20
120.2084872288851045
 30
0.0
 11
-125.2335167936315372
 21
120.2084872288851187
 31
0.0
  0
LINE
  5
88
100
AcDbEntity
100
AcDbLine
  8
l3
 62
256
370
-1
  6
ByLayer
 10
-125.2335167936315372
 20
120.2084872288851187
 30
0.0
 11
-125.2335167936315656
 21
73.2084872288851187
 31
0.0
  0
LINE
  5
89
100
AcDbEntity
100
AcDbLine
  8
l3
 62
256
370
-1
  6
ByLayer
 10
-178.6185763695646926
 20
38.2322161609097577
 30
0.0
 11
-178.6182850785151857
 21
73.2084872288851471
 31
0.0
  0
LINE
  5
8A
100
AcDbEntity
100
AcDbLine
  8
l3
 62
256
370
-1
  6
ByLayer
 10
-178.6182850785151857
 20
73.2084872288851471
 30
0.0
 11
-125.2335167936315656
 21
73.2084872288851187
 31
0.0
  0
LINE
  5
8B
100
AcDbEntity
100
AcDbLine
  8
em_text
 62
256
370
-1
  6
ByLayer
 10
-106.1111111111111143
 20
80.7777777777779136
 30
0.0
 11
-106.1111111111111143
 21
83.0000000000001279
 31
0.0
  0
LINE
  5
8C
100
AcDbEntity
100
AcDbLine
  8
em_text
 62
256
370
-1
  6
ByLayer
 10
-98.3333333333333428
 20
83.0000000000001279
 30
0.0
 11
-98.3333333333333428
 21
80.7777777777779136
 31
0.0
  0
LINE
  5
8D
100
AcDbEntity
100
AcDbLine
  8
em_text
 62
256
370
-1
  6
ByLayer
 10
-106.1111111111111143
 20
83.0000000000001279
 30
0.0
 11
-98.3333333333333428
 21
83.0000000000001279
 31
0.0
  0
LINE
  5
8E
100
AcDbEntity
100
AcDbLine
  8
em_text
 62
256
370
-1
  6
ByLayer
 10
-103.8888888888888999
 20
73.0000000000001279
 30
0.0
 11
-100.5555555555555571
 21
73.0000000000001279
 31
0.0
  0
LINE
  5
8F
100
AcDbEntity
100
AcDbLine
  8
em_text
 62
256
370
-1
  6
ByLayer
 10
-102.2222222222222285
 20
83.0000000000001279
 30
0.0
 11
-102.2222222222222285
 21
73.0000000000001279
 31
0.0
  0
LINE
  5
90
100
AcDbEntity
100
AcDbLine
  8
em_text
 62
256
370
-1
  6
ByLayer
 10
-94.4444444444444429
 20
73.0
 30
0.0
 11
-91.1111111111111143
 21
73.0
 31
0.0
  0
LINE
  5
91
100
AcDbEntity
100
AcDbLine
  8
em_text
 62
256
370
-1
  6
ByLayer
 10
-94.4444444444444429
 20
83.0
 30
0.0
 11
-92.2222222222222285
 21
83.0
 31
0.0
  0
LINE
  5
92
100
AcDbEntity
100
AcDbLine
  8
em_text
 62
256
370
-1
  6
ByLayer
 10
-85.5555555555555571
 20
73.0
 30
0.0
 11
-88.8888888888888857
 21
73.0
 31
0.0
  0
LINE
  5
93
100
AcDbEntity
100
AcDbLine
  8
em_text
 62
256
370
-1
  6
ByLayer
 10
-92.7777777777777715
 20
83.0
 30
0.0
 11
-92.7777777777777715
 21
73.0
 31
0.0
  0
ARC
  5
94
100
AcDbEntity
  8
em_text
 62
256
370
-1
  6
ByLayer
100
AcDbCircle
 10
-89.4444444444444429
 20
77.4444444444444429
 30
0.0
 40
2.2222222222222223
100
AcDbArc
 50
0.0
 51
121.0545879999999954
  0
LINE
  5
95
100
AcDbEntity
100
AcDbLine
  8
em_text
 62
256
370
-1
  6
ByLayer
 10
-87.2222222222222285
 20
77.4444444444444429
 30
0.0
 11
-87.2222222222222285
 21
73.0
 31
0.0
  0
LINE
  5
96
100
AcDbEntity
100
AcDbLine
  8
em_text
 62
256
370
-1
  6
ByLayer
 10
-92.7777777777777715
 20
78.03125
 30
0.0
 11
-90.5908200000000079
 21
79.348163333333332
 31
0.0
  0
LINE
  5
97
100
AcDbEntity
100
AcDbLine
  8
em_text
 62
256
370
-1
  6
ByLayer
 10
-73.8888888888888999
 20
73.0000000000000142
 30
0.0
 11
-80.5555555555555571
 21
73.0000000000000142
 31
0.0
  0
LINE
  5
98
100
AcDbEntity
100
AcDbLine
  8
em_text
 62
256
370
-1
  6
ByLayer
 10
-77.2222222222222285
 20
73.0000000000000142
 30
0.0
 11
-77.2222222222222285
 21
79.6666666666666856
 31
0.0
  0
LINE
  5
99
100
AcDbEntity
100
AcDbLine
  8
em_text
 62
256
370
-1
  6
ByLayer
 10
-77.2222222222222285
 20
79.6666666666666856
 30
0.0
 11
-79.4444444444444571
 21
79.6666666666666856
 31
0.0
  0
LINE
  5
9A
100
AcDbEntity
100
AcDbLine
  8
em_text
 62
256
370
-1
  6
ByLayer
 10
-77.2222222222222285
 20
81.8888888888888999
 30
0.0
 11
-77.2222222222222285
 21
83.0000000000000142
 31
0.0
  0
LINE
  5
9B
100
AcDbEntity
100
AcDbLine
  8
em_text
 62
256
370
-1
  6
ByLayer
 10
-68.3333333333333286
 20
79.6666666666666714
 30
0.0
 11
-68.3333333333333286
 21
73.0
 31
0.0
  0
LINE
  5
9C
100
AcDbEntity
100
AcDbLine
  8
em_text
 62
256
370
-1
  6
ByLayer
 10
-70.0
 20
79.6666666666666714
 30
0.0
 11
-68.3333333333333286
 21
79.6666666666666714
 31
0.0
  0
LINE
  5
9D
100
AcDbEntity
100
AcDbLine
  8
em_text
 62
256
370
-1
  6
ByLayer
 10
-70.0
 20
73.0
 30
0.0
 11
-66.6666666666666714
 21
73.0
 31
0.0
  0
LINE
  5
9E
100
AcDbEntity
100
AcDbLine
  8
em_text
 62
256
370
-1
  6
ByLayer
 10
-61.1111111111111143
 20
73.0
 30
0.0
 11
-64.4444444444444429
 21
73.0
 31
0.0
  0
LINE
  5
9F
100
AcDbEntity
100
AcDbLine
  8
em_text
 62
256
370
-1
  6
ByLayer
 10
-62.7777777777777786
 20
76.8888888888888857
 30
0.0
 11
-62.7777777777777786
 21
73.0
 31
0.0
  0
LINE
  5
A0
100
AcDbEntity
100
AcDbLine
  8
em_text
 62
256
370
-1
  6
ByLayer
 10
-68.3333333333333286
 20
78.1441022222222301
 30
0.0
 11
-67.3912222222222255
 21
78.9736288888888964
 31
0.0
  0
ARC
  5
A1
100
AcDbEntity
  8
em_text
 62
256
370
-1
  6
ByLayer
100
AcDbCircle
 10
-65.5555555555555571
 20
76.8888888888888857
 30
0.0
 40
2.7777777777777777
100
AcDbArc
 50
0.0
 51
131.3658140000000003
  0
ARC
  5
A2
100
AcDbEntity
  8
em_text
 62
256
370
-1
  6
ByLayer
100
AcDbCircle
 10
-53.8888888888888857
 20
76.3333333333333286
 30
0.0
 40
3.3333333333333335
100
AcDbArc
 50
0.0
 51
180.0
  0
ARC
  5
A3
100
AcDbEntity
  8
em_text
 62
256
370
-1
  6
ByLayer
100
AcDbCircle
 10
-53.8888888888888857
 20
76.3333333333333286
 30
0.0
 40
3.3333333333333335
100
AcDbArc
 50
180.0
 51
0.0
  0
LINE
  5
A4
100
AcDbEntity
100
AcDbLine
  8
em_text
 62
256
370
-1
  6
ByLayer
 10
-48.3333333333333357
 20
79.6666666666666714
 30
0.0
 11
-50.5555555555555571
 21
79.6666666666666714
 31
0.0
  0
LINE
  5
A5
100
AcDbEntity
100
AcDbLine
  8
em_text
 62
256
370
-1
  6
ByLayer
 10
-50.5555555555555571
 20
79.6666666666666714
 30
0.0
 11
-50.5555555555555571
 21
71.8888888888888857
 31
0.0
  0
ARC
  5
A6
100
AcDbEntity
  8
em_text
 62
256
370
-1
  6
ByLayer
100
AcDbCircle
 10
-52.7777777777777786
 20
71.8888888888888857
 30
0.0
 40
2.2222222222222223
100
AcDbArc
 50
270.0
 51
0.0
  0
LINE
  5
A7
100
AcDbEntity
100
AcDbLine
  8
em_text
 62
256
370
-1
  6
ByLayer
 10
-52.7777777777777786
 20
69.6666666666666714
 30
0.0
 11
-56.1111111111111143
 21
69.6666666666666714
 31
0.0
  0
LINE
  5
A8
100
AcDbEntity
100
AcDbLine
  8
em_text
 62
256
370
-1
  6
ByLayer
 10
-43.3333333333333357
 20
77.4444444444444429
 30
0.0
 11
-36.6666666666666643
 21
77.4444444444444429
 31
0.0
  0
LINE
  5
A9
100
AcDbEntity
100
AcDbLine
  8
em_text
 62
256
370
-1
  6
ByLayer
 10
-32.2222222222222214
 20
76.3333333333333286
 30
0.0
 11
-32.2222222222222214
 21
79.6666666666666714
 31
0.0
  0
ARC
  5
AA
100
AcDbEntity
  8
em_text
 62
256
370
-1
  6
ByLayer
100
AcDbCircle
 10
-28.8888888888888928
 20
79.6666666666666714
 30
0.0
 40
3.3333333333333335
100
AcDbArc
 50
90.0
 51
180.0
  0
ARC
  5
AB
100
AcDbEntity
  8
em_text
 62
256
370
-1
  6
ByLayer
100
AcDbCircle
 10
-28.8888888888888928
 20
76.3333333333333286
 30
0.0
 40
3.3333333333333335
100
AcDbArc
 50
180.0
 51
270.0
  0
LINE
  5
AC
100
AcDbEntity
100
AcDbLine
  8
em_text
 62
256
370
-1
  6
ByLayer
 10
-28.8888888888888928
 20
83.0
 30
0.0
 11
-27.7777777777777786
 21
83.0
 31
0.0
  0
LINE
  5
AD
100
AcDbEntity
100
AcDbLine
  8
em_text
 62
256
370
-1
  6
ByLayer
 10
-27.7777777777777786
 20
73.0
 30
0.0
 11
-28.8888888888888928
 21
73.0
 31
0.0
  0
LINE
  5
AE
100
AcDbEntity
100
AcDbLine
  8
em_text
 62
256
370
-1
  6
ByLayer
 10
-24.4444444444444464
 20
79.6666666666666714
 30
0.0
 11
-24.4444444444444464
 21
76.3333333333333286
 31
0.0
  0
ARC
  5
AF
100
AcDbEntity
  8
em_text
 62
256
370
-1
  6
ByLayer
100
AcDbCircle
 10
-27.7777777777777786
 20
79.6666666666666714
 30
0.0
 40
3.3333333333333335
100
AcDbArc
 50
0.0
 51
90.0
  0
ARC
  5
B0
100
AcDbEntity
  8
em_text
 62
256
370
-1
  6
ByLayer
100
AcDbCircle
 10
-27.7777777777777786
 20
76.3333333333333286
 30
0.0
 40
3.3333333333333335
100
AcDbArc
 50
270.0
 51
0.0
  0
LINE
  5
B1
100
AcDbEntity
100
AcDbLine
  8
em_text
 62
256
370
-1
  6
ByLayer
 10
-19.4444444444444429
 20
77.4444444444444429
 30
0.0
 11
-12.7777777777777768
 21
77.4444444444444429
 31
0.0
  0
LINE
  5
B2
100
AcDbEntity
100
AcDbLine
  8
em_text
 62
256
370
-1
  6
ByLayer
 10
-9.4444444444444429
 20
73.0
 30
0.0
 11
-6.1111111111111089
 21
73.0
 31
0.0
  0
LINE
  5
B3
100
AcDbEntity
100
AcDbLine
  8
em_text
 62
256
370
-1
  6
ByLayer
 10
-2.7777777777777759
 20
73.0
 30
0.0
 11
0.5555555555555571
 21
73.0
 31
0.0
  0
LINE
  5
B4
100
AcDbEntity
100
AcDbLine
  8
em_text
 62
256
370
-1
  6
ByLayer
 10
-9.4444444444444429
 20
83.0
 30
0.0
 11
-6.1111111111111098
 21
83.0
 31
0.0
  0
LINE
  5
B5
100
AcDbEntity
100
AcDbLine
  8
em_text
 62
256
370
-1
  6
ByLayer
 10
-2.7777777777777759
 20
83.0
 30
0.0
 11
0.5555555555555571
 21
83.0
 31
0.0
  0
LINE
  5
B6
100
AcDbEntity
100
AcDbLine
  8
em_text
 62
256
370
-1
  6
ByLayer
 10
-8.3333333333333321
 20
73.0
 30
0.0
 11
-8.3333333333333321
 21
83.0
 31
0.0
  0
LINE
  5
B7
100
AcDbEntity
100
AcDbLine
  8
em_text
 62
256
370
-1
  6
ByLayer
 10
-0.5555555555555536
 20
83.0
 30
0.0
 11
-0.5555555555555536
 21
73.0
 31
0.0
  0
LINE
  5
B8
100
AcDbEntity
100
AcDbLine
  8
em_text
 62
256
370
-1
  6
ByLayer
 10
-8.3333333333333321
 20
83.0
 30
0.0
 11
-4.4444444444444429
 21
76.0555555555555571
 31
0.0
  0
LINE
  5
B9
100
AcDbEntity
100
AcDbLine
  8
em_text
 62
256
370
-1
  6
ByLayer
 10
-4.4444444444444429
 20
76.0555555555555571
 30
0.0
 11
-0.5555555555555536
 21
83.0
 31
0.0
  0
LINE
  5
BA
100
AcDbEntity
100
AcDbLine
  8
em_text
 62
256
370
-1
  6
ByLayer
 10
13.3333333333333375
 20
72.9999999999999716
 30
0.0
 11
11.1111111111111143
 21
72.9999999999999716
 31
0.0
  0
ARC
  5
BB
100
AcDbEntity
  8
em_text
 62
256
370
-1
  6
ByLayer
100
AcDbCircle
 10
6.8107100000000038
 20
75.2182077777777494
 30
0.0
 40
2.2222222222222223
100
AcDbArc
 50
99.5002819999999986
 51
263.4212340000000268
  0
ARC
  5
BC
100
AcDbEntity
  8
em_text
 62
256
370
-1
  6
ByLayer
100
AcDbCircle
 10
8.2166888888888892
 20
66.8161266666666478
 30
0.0
 40
10.7407522222222234
100
AcDbArc
 50
74.3666460000000029
 51
99.5001680000000022
  0
ARC
  5
BD
100
AcDbEntity
  8
em_text
 62
256
370
-1
  6
ByLayer
100
AcDbCircle
 10
7.1872288888888924
 20
78.4840733333332992
 30
0.0
 40
5.5087299999999999
100
AcDbArc
 50
263.4211429999999723
 51
315.4216309999999908
  0
ARC
  5
BE
100
AcDbEntity
  8
em_text
 62
256
370
-1
  6
ByLayer
100
AcDbCircle
 10
8.8888888888888928
 20
78.098287777777756
 30
0.0
 40
2.2222222222222223
100
AcDbArc
 50
0.0
 51
90.0
  0
ARC
  5
BF
100
AcDbEntity
  8
em_text
 62
256
370
-1
  6
ByLayer
100
AcDbCircle
 10
8.8888888888888928
 20
75.1985411111110693
 30
0.0
 40
5.1219688888888895
100
AcDbArc
 50
90.0
 51
130.6012880000000109
  0
LINE
  5
C0
100
AcDbEntity
100
AcDbLine
  8
em_text
 62
256
370
-1
  6
ByLayer
 10
11.1111111111111143
 20
78.098287777777756
 30
0.0
 11
11.1111111111111143
 21
72.9999999999999716
 31
0.0
  0
LINE
  5
C1
100
AcDbEntity
100
AcDbLine
  8
em_text
 62
256
370
-1
  6
ByLayer
 10
18.3333333333333393
 20
79.6666666666666714
 30
0.0
 11
23.8888888888888928
 21
79.6666666666666714
 31
0.0
  0
LINE
  5
C2
100
AcDbEntity
100
AcDbLine
  8
em_text
 62
256
370
-1
  6
ByLayer
 10
19.44444444444445
 20
81.8888888888888857
 30
0.0
 11
19.44444444444445
 21
75.2222222222222285
 31
0.0
  0
ARC
  5
C3
100
AcDbEntity
  8
em_text
 62
256
370
-1
  6
ByLayer
100
AcDbCircle
 10
21.6666666666666714
 20
75.2222222222222285
 30
0.0
 40
2.2222222222222223
100
AcDbArc
 50
180.0
 51
290.7968440000000214
  0
LINE
  5
C4
100
AcDbEntity
100
AcDbLine
  8
em_text
 62
256
370
-1
  6
ByLayer
 10
25.0000000000000071
 20
74.1111111111111143
 30
0.0
 11
22.4556477777777843
 21
73.1447822222221902
 31
0.0
  0
LINE
  5
C5
100
AcDbEntity
100
AcDbLine
  8
em_text
 62
256
370
-1
  6
ByLayer
 10
36.6666666666666714
 20
72.9999999999999858
 30
0.0
 11
30.0000000000000036
 21
72.9999999999999858
 31
0.0
  0
LINE
  5
C6
100
AcDbEntity
100
AcDbLine
  8
em_text
 62
256
370
-1
  6
ByLayer
 10
33.3333333333333357
 20
72.9999999999999858
 30
0.0
 11
33.3333333333333357
 21
79.6666666666666572
 31
0.0
  0
LINE
  5
C7
100
AcDbEntity
100
AcDbLine
  8
em_text
 62
256
370
-1
  6
ByLayer
 10
33.3333333333333357
 20
79.6666666666666572
 30
0.0
 11
31.1111111111111143
 21
79.6666666666666572
 31
0.0
  0
LINE
  5
C8
100
AcDbEntity
100
AcDbLine
  8
em_text
 62
256
370
-1
  6
ByLayer
 10
33.3333333333333357
 20
81.8888888888888715
 30
0.0
 11
33.3333333333333357
 21
82.9999999999999858
 31
0.0
  0
LINE
  5
C9
100
AcDbEntity
100
AcDbLine
  8
em_text
 62
256
370
-1
  6
ByLayer
 10
48.3333333333333357
 20
79.6666666666666146
 30
0.0
 11
48.3333333333333357
 21
77.444444444444386
 31
0.0
  0
LINE
  5
CA
100
AcDbEntity
100
AcDbLine
  8
em_text
 62
256
370
-1
  6
ByLayer
 10
48.3333333333333357
 20
77.444444444444386
 30
0.0
 11
47.6666933333333347
 21
78.3333422222221714
 31
0.0
  0
LINE
  5
CB
100
AcDbEntity
100
AcDbLine
  8
em_text
 62
256
370
-1
  6
ByLayer
 10
48.3333333333333357
 20
74.1111111111110574
 30
0.0
 11
46.2820099999999996
 21
73.2564111111110634
 31
0.0
  0
ARC
  5
CC
100
AcDbEntity
  8
em_text
 62
256
370
-1
  6
ByLayer
100
AcDbCircle
 10
45.0
 20
76.3333333333332718
 30
0.0
 40
3.3333333333333335
100
AcDbArc
 50
36.8700070000000011
 51
292.6197510000000079
  0
LINE
  5
CD
100
AcDbEntity
100
AcDbLine
  8
em_text
 62
256
370
-1
  6
ByLayer
 10
-105.0
 20
57.0000000000000284
 30
0.0
 11
-101.6666666666666714
 21
57.0000000000000284
 31
0.0
  0
LINE
  5
CE
100
AcDbEntity
100
AcDbLine
  8
em_text
 62
256
370
-1
  6
ByLayer
 10
-98.3333333333333286
 20
57.0000000000000284
 30
0.0
 11
-95.0
 21
57.0000000000000284
 31
0.0
  0
LINE
  5
CF
100
AcDbEntity
100
AcDbLine
  8
em_text
 62
256
370
-1
  6
ByLayer
 10
-105.0
 20
67.0000000000000284
 30
0.0
 11
-101.6666666666666714
 21
67.0000000000000284
 31
0.0
  0
LINE
  5
D0
100
AcDbEntity
100
AcDbLine
  8
em_text
 62
256
370
-1
  6
ByLayer
 10
-98.3333333333333286
 20
67.0000000000000284
 30
0.0
 11
-95.0
 21
67.0000000000000284
 31
0.0
  0
LINE
  5
D1
100
AcDbEntity
100
AcDbLine
  8
em_text
 62
256
370
-1
  6
ByLayer
 10
-103.8888888888888857
 20
57.0000000000000284
 30
0.0
 11
-103.8888888888888857
 21
67.0000000000000284
 31
0.0
  0
LINE
  5
D2
100
AcDbEntity
100
AcDbLine
  8
em_text
 62
256
370
-1
  6
ByLayer
 10
-96.1111111111111143
 20
67.0000000000000284
 30
0.0
 11
-96.1111111111111143
 21
57.0000000000000284
 31
0.0
  0
LINE
  5
D3
100
AcDbEntity
100
AcDbLine
  8
em_text
 62
256
370
-1
  6
ByLayer
 10
-103.8888888888888857
 20
67.0000000000000284
 30
0.0
 11
-100.0
 21
60.0555555555555856
 31
0.0
  0
LINE
  5
D4
100
AcDbEntity
100
AcDbLine
  8
em_text
 62
256
370
-1
  6
ByLayer
 10
-100.0
 20
60.0555555555555856
 30
0.0
 11
-96.1111111111111143
 21
67.0000000000000284
 31
0.0
  0
ARC
  5
D5
100
AcDbEntity
  8
em_text
 62
256
370
-1
  6
ByLayer
100
AcDbCircle
 10
-86.6666666666666856
 20
60.3333333333333641
 30
0.0
 40
3.3333333333333335
100
AcDbArc
 50
0.0
 51
180.0
  0
ARC
  5
D6
100
AcDbEntity
  8
em_text
 62
256
370
-1
  6
ByLayer
100
AcDbCircle
 10
-86.6666666666666856
 20
60.3333333333333641
 30
0.0
 40
3.3333333333333335
100
AcDbArc
 50
180.0
 51
0.0
  0
LINE
  5
D7
100
AcDbEntity
100
AcDbLine
  8
em_text
 62
256
370
-1
  6
ByLayer
 10
-77.7777777777777715
 20
63.6666666666667069
 30
0.0
 11
-77.7777777777777715
 21
59.2222222222222641
 31
0.0
  0
LINE
  5
D8
100
AcDbEntity
100
AcDbLine
  8
em_text
 62
256
370
-1
  6
ByLayer
 10
-72.2222222222222285
 20
63.6666666666667069
 30
0.0
 11
-72.2222222222222285
 21
57.0000000000000426
 31
0.0
  0
LINE
  5
D9
100
AcDbEntity
100
AcDbLine
  8
em_text
 62
256
370
-1
  6
ByLayer
 10
-72.2222222222222285
 20
57.0000000000000426
 30
0.0
 11
-70.0
 21
57.0000000000000426
 31
0.0
  0
LINE
  5
DA
100
AcDbEntity
100
AcDbLine
  8
em_text
 62
256
370
-1
  6
ByLayer
 10
-72.2222222222222285
 20
58.1111111111111569
 30
0.0
 11
-74.7665744444444442
 21
57.1447844444445039
 31
0.0
  0
ARC
  5
DB
100
AcDbEntity
  8
em_text
 62
256
370
-1
  6
ByLayer
100
AcDbCircle
 10
-75.5555555555555571
 20
59.2222222222222641
 30
0.0
 40
2.2222222222222223
100
AcDbArc
 50
180.0
 51
290.7968440000000214
  0
LINE
  5
DC
100
AcDbEntity
100
AcDbLine
  8
em_text
 62
256
370
-1
  6
ByLayer
 10
-79.4444444444444429
 20
63.6666666666667069
 30
0.0
 11
-77.7777777777777715
 21
63.6666666666667069
 31
0.0
  0
LINE
  5
DD
100
AcDbEntity
100
AcDbLine
  8
em_text
 62
256
370
-1
  6
ByLayer
 10
-73.8888888888888857
 20
63.6666666666667069
 30
0.0
 11
-72.2222222222222285
 21
63.6666666666667069
 31
0.0
  0
LINE
  5
DE
100
AcDbEntity
100
AcDbLine
  8
em_text
 62
256
370
-1
  6
ByLayer
 10
-64.4444444444444571
 20
63.6666666666666927
 30
0.0
 11
-64.4444444444444571
 21
57.0000000000000284
 31
0.0
  0
LINE
  5
DF
100
AcDbEntity
100
AcDbLine
  8
em_text
 62
256
370
-1
  6
ByLayer
 10
-66.1111111111111285
 20
63.6666666666666927
 30
0.0
 11
-64.4444444444444571
 21
63.6666666666666927
 31
0.0
  0
LINE
  5
E0
100
AcDbEntity
100
AcDbLine
  8
em_text
 62
256
370
-1
  6
ByLayer
 10
-66.1111111111111285
 20
57.0000000000000284
 30
0.0
 11
-62.7777777777777999
 21
57.0000000000000284
 31
0.0
  0
LINE
  5
E1
100
AcDbEntity
100
AcDbLine
  8
em_text
 62
256
370
-1
  6
ByLayer
 10
-57.2222222222222427
 20
57.0000000000000284
 30
0.0
 11
-60.5555555555555713
 21
57.0000000000000284
 31
0.0
  0
LINE
  5
E2
100
AcDbEntity
100
AcDbLine
  8
em_text
 62
256
370
-1
  6
ByLayer
 10
-58.888888888888907
 20
60.8888888888889142
 30
0.0
 11
-58.888888888888907
 21
57.0000000000000284
 31
0.0
  0
LINE
  5
E3
100
AcDbEntity
100
AcDbLine
  8
em_text
 62
256
370
-1
  6
ByLayer
 10
-64.4444444444444571
 20
62.1441022222222514
 30
0.0
 11
-63.5023333333333468
 21
62.9736288888889177
 31
0.0
  0
ARC
  5
E4
100
AcDbEntity
  8
em_text
 62
256
370
-1
  6
ByLayer
100
AcDbCircle
 10
-61.6666666666666856
 20
60.8888888888889142
 30
0.0
 40
2.7777777777777777
100
AcDbArc
 50
0.0
 51
131.3658140000000003
  0
LINE
  5
E5
100
AcDbEntity
100
AcDbLine
  8
em_text
 62
256
370
-1
  6
ByLayer
 10
-52.2222222222222285
 20
63.6666666666666714
 30
0.0
 11
-46.6666666666666714
 21
63.6666666666666714
 31
0.0
  0
LINE
  5
E6
100
AcDbEntity
100
AcDbLine
  8
em_text
 62
256
370
-1
  6
ByLayer
 10
-51.1111111111111143
 20
65.8888888888888857
 30
0.0
 11
-51.1111111111111143
 21
59.2222222222222285
 31
0.0
  0
ARC
  5
E7
100
AcDbEntity
  8
em_text
 62
256
370
-1
  6
ByLayer
100
AcDbCircle
 10
-48.8888888888888928
 20
59.2222222222222285
 30
0.0
 40
2.2222222222222223
100
AcDbArc
 50
180.0
 51
290.7968440000000214
  0
LINE
  5
E8
100
AcDbEntity
100
AcDbLine
  8
em_text
 62
256
370
-1
  6
ByLayer
 10
-45.5555555555555571
 20
58.1111111111111214
 30
0.0
 11
-48.099907777777787
 21
57.1447822222222541
 31
0.0
  0
LINE
  5
E9
100
AcDbEntity
100
AcDbLine
  8
em_text
 62
256
370
-1
  6
ByLayer
 10
-40.5555555555555642
 20
61.44444444444445
 30
0.0
 11
-33.8888888888888928
 21
61.44444444444445
 31
0.0
  0
LINE
  5
EA
100
AcDbEntity
100
AcDbLine
  8
em_text
 62
256
370
-1
  6
ByLayer
 10
-29.4444444444444535
 20
60.3333333333333357
 30
0.0
 11
-29.4444444444444535
 21
63.6666666666666643
 31
0.0
  0
ARC
  5
EB
100
AcDbEntity
  8
em_text
 62
256
370
-1
  6
ByLayer
100
AcDbCircle
 10
-26.1111111111111214
 20
63.6666666666666643
 30
0.0
 40
3.3333333333333335
100
AcDbArc
 50
90.0
 51
180.0
  0
ARC
  5
EC
100
AcDbEntity
  8
em_text
 62
256
370
-1
  6
ByLayer
100
AcDbCircle
 10
-26.1111111111111214
 20
60.3333333333333357
 30
0.0
 40
3.3333333333333335
100
AcDbArc
 50
180.0
 51
270.0
  0
LINE
  5
ED
100
AcDbEntity
100
AcDbLine
  8
em_text
 62
256
370
-1
  6
ByLayer
 10
-26.1111111111111214
 20
67.0
 30
0.0
 11
-25.0000000000000071
 21
67.0
 31
0.0
  0
LINE
  5
EE
100
AcDbEntity
100
AcDbLine
  8
em_text
 62
256
370
-1
  6
ByLayer
 10
-25.0000000000000071
 20
57.0
 30
0.0
 11
-26.1111111111111214
 21
57.0
 31
0.0
  0
LINE
  5
EF
100
AcDbEntity
100
AcDbLine
  8
em_text
 62
256
370
-1
  6
ByLayer
 10
-21.666666666666675
 20
63.6666666666666643
 30
0.0
 11
-21.666666666666675
 21
60.3333333333333357
 31
0.0
  0
ARC
  5
F0
100
AcDbEntity
  8
em_text
 62
256
370
-1
  6
ByLayer
100
AcDbCircle
 10
-25.0000000000000071
 20
63.6666666666666643
 30
0.0
 40
3.3333333333333335
100
AcDbArc
 50
0.0
 51
90.0
  0
ARC
  5
F1
100
AcDbEntity
  8
em_text
 62
256
370
-1
  6
ByLayer
100
AcDbCircle
 10
-25.0000000000000071
 20
60.3333333333333357
 30
0.0
 40
3.3333333333333335
100
AcDbArc
 50
270.0
 51
0.0
  0
LINE
  5
F2
100
AcDbEntity
100
AcDbLine
  8
em_text
 62
256
370
-1
  6
ByLayer
 10
-16.666666666666675
 20
61.4444444444444358
 30
0.0
 11
-10.0000000000000089
 21
61.4444444444444358
 31
0.0
  0
LINE
  5
F3
100
AcDbEntity
100
AcDbLine
  8
em_text
 62
256
370
-1
  6
ByLayer
 10
-6.1111111111111089
 20
57.0
 30
0.0
 11
-2.777777777777775
 21
57.0
 31
0.0
  0
LINE
  5
F4
100
AcDbEntity
100
AcDbLine
  8
em_text
 62
256
370
-1
  6
ByLayer
 10
-4.9999999999999973
 20
57.0
 30
0.0
 11
-4.9999999999999982
 21
67.0
 31
0.0
  0
LINE
  5
F5
100
AcDbEntity
100
AcDbLine
  8
em_text
 62
256
370
-1
  6
ByLayer
 10
-6.1111111111111081
 20
67.0
 30
0.0
 11
-0.5555555555555518
 21
67.0
 31
0.0
  0
LINE
  5
F6
100
AcDbEntity
100
AcDbLine
  8
em_text
 62
256
370
-1
  6
ByLayer
 10
-4.9999999999999964
 20
61.4444444444444429
 30
0.0
 11
-0.5555555555555527
 21
61.4444444444444429
 31
0.0
  0
ARC
  5
F7
100
AcDbEntity
  8
em_text
 62
256
370
-1
  6
ByLayer
100
AcDbCircle
 10
-0.5555555555555527
 20
64.2222222222222285
 30
0.0
 40
2.7777777777777777
100
AcDbArc
 50
270.0
 51
90.0
  0
LINE
  5
F8
100
AcDbEntity
100
AcDbLine
  8
em_text
 62
256
370
-1
  6
ByLayer
 10
2.7777777777777803
 20
57.0
 30
0.0
 11
-0.5555555555555527
 21
57.0
 31
0.0
  0
LINE
  5
F9
100
AcDbEntity
100
AcDbLine
  8
em_text
 62
256
370
-1
  6
ByLayer
 10
1.1111111111111143
 20
57.0
 30
0.0
 11
-1.1111111111111089
 21
61.4444444444444429
 31
0.0
  0
LINE
  5
FA
100
AcDbEntity
100
AcDbLine
  8
em_text
 62
256
370
-1
  6
ByLayer
 10
15.5555555555555589
 20
57.0000000000000071
 30
0.0
 11
13.3333333333333357
 21
57.0000000000000071
 31
0.0
  0
ARC
  5
FB
100
AcDbEntity
  8
em_text
 62
256
370
-1
  6
ByLayer
100
AcDbCircle
 10
9.032932222222227
 20
59.2182077777777849
 30
0.0
 40
2.2222222222222223
100
AcDbArc
 50
99.5002819999999986
 51
263.4212340000000268
  0
ARC
  5
FC
100
AcDbEntity
  8
em_text
 62
256
370
-1
  6
ByLayer
100
AcDbCircle
 10
10.4389111111111141
 20
50.8161266666666762
 30
0.0
 40
10.7407522222222234
100
AcDbArc
 50
74.3666460000000029
 51
99.5001680000000022
  0
ARC
  5
FD
100
AcDbEntity
  8
em_text
 62
256
370
-1
  6
ByLayer
100
AcDbCircle
 10
9.4094511111111139
 20
62.4840733333333418
 30
0.0
 40
5.5087299999999999
100
AcDbArc
 50
263.4211429999999723
 51
315.4216309999999908
  0
ARC
  5
FE
100
AcDbEntity
  8
em_text
 62
256
370
-1
  6
ByLayer
100
AcDbCircle
 10
11.1111111111111143
 20
62.0982877777777844
 30
0.0
 40
2.2222222222222223
100
AcDbArc
 50
0.0
 51
90.0
  0
ARC
  5
FF
100
AcDbEntity
  8
em_text
 62
256
370
-1
  6
ByLayer
100
AcDbCircle
 10
11.1111111111111143
 20
59.1985411111111191
 30
0.0
 40
5.1219688888888895
100
AcDbArc
 50
90.0
 51
130.6012880000000109
  0
LINE
  5
100
100
AcDbEntity
100
AcDbLine
  8
em_text
 62
256
370
-1
  6
ByLayer
 10
13.3333333333333357
 20
62.0982877777777844
 30
0.0
 11
13.3333333333333357
 21
57.0000000000000071
 31
0.0
  0
LINE
  5
101
100
AcDbEntity
100
AcDbLine
  8
em_text
 62
256
370
-1
  6
ByLayer
 10
22.222222222222225
 20
56.9999999999999929
 30
0.0
 11
18.8888888888888928
 21
56.9999999999999929
 31
0.0
  0
LINE
  5
102
100
AcDbEntity
100
AcDbLine
  8
em_text
 62
256
370
-1
  6
ByLayer
 10
18.8888888888888928
 20
63.6666666666666572
 30
0.0
 11
20.5555555555555607
 21
63.6666666666666572
 31
0.0
  0
LINE
  5
103
100
AcDbEntity
100
AcDbLine
  8
em_text
 62
256
370
-1
  6
ByLayer
 10
20.5555555555555607
 20
63.6666666666666572
 30
0.0
 11
20.5555555555555607
 21
56.9999999999999929
 31
0.0
  0
LINE
  5
104
100
AcDbEntity
100
AcDbLine
  8
em_text
 62
256
370
-1
  6
ByLayer
 10
23.8888888888888928
 20
56.9999999999999929
 30
0.0
 11
23.8888888888888928
 21
62.55555555555555
 31
0.0
  0
LINE
  5
105
100
AcDbEntity
100
AcDbLine
  8
em_text
 62
256
370
-1
  6
ByLayer
 10
27.2222222222222285
 20
62.55555555555555
 30
0.0
 11
27.2222222222222285
 21
56.9999999999999929
 31
0.0
  0
LINE
  5
106
100
AcDbEntity
100
AcDbLine
  8
em_text
 62
256
370
-1
  6
ByLayer
 10
25.5555555555555607
 20
56.9999999999999929
 30
0.0
 11
23.8888888888888928
 21
56.9999999999999929
 31
0.0
  0
LINE
  5
107
100
AcDbEntity
100
AcDbLine
  8
em_text
 62
256
370
-1
  6
ByLayer
 10
28.8888888888888928
 20
56.9999999999999929
 30
0.0
 11
27.2222222222222285
 21
56.9999999999999929
 31
0.0
  0
LINE
  5
108
100
AcDbEntity
100
AcDbLine
  8
em_text
 62
256
370
-1
  6
ByLayer
 10
23.8888888888888928
 20
62.0644999999999953
 30
0.0
 11
25.3721788888888931
 21
63.3853544444444381
 31
0.0
  0
LINE
  5
109
100
AcDbEntity
100
AcDbLine
  8
em_text
 62
256
370
-1
  6
ByLayer
 10
20.5555555555555607
 20
62.0644999999999953
 30
0.0
 11
22.0388455555555609
 21
63.3853544444444381
 31
0.0
  0
ARC
  5
10A
100
AcDbEntity
  8
em_text
 62
256
370
-1
  6
ByLayer
100
AcDbCircle
 10
22.7777777777777821
 20
62.55555555555555
 30
0.0
 40
1.1111111111111112
100
AcDbArc
 50
0.0
 51
131.6871030000000076
  0
ARC
  5
10B
100
AcDbEntity
  8
em_text
 62
256
370
-1
  6
ByLayer
100
AcDbCircle
 10
26.1111111111111143
 20
62.55555555555555
 30
0.0
 40
1.1111111111111112
100
AcDbArc
 50
0.0
 51
131.6871030000000076
  0
LINE
  5
10C
100
AcDbEntity
100
AcDbLine
  8
em_text
 62
256
370
-1
  6
ByLayer
 10
41.6666666666666572
 20
56.9999999999999432
 30
0.0
 11
39.4444444444444358
 21
56.9999999999999432
 31
0.0
  0
ARC
  5
10D
100
AcDbEntity
  8
em_text
 62
256
370
-1
  6
ByLayer
100
AcDbCircle
 10
35.1440433333333218
 20
59.2182077777777209
 30
0.0
 40
2.2222222222222223
100
AcDbArc
 50
99.5002819999999986
 51
263.4212340000000268
  0
ARC
  5
10E
100
AcDbEntity
  8
em_text
 62
256
370
-1
  6
ByLayer
100
AcDbCircle
 10
36.5500222222222177
 20
50.8161266666666123
 30
0.0
 40
10.7407522222222234
100
AcDbArc
 50
74.3666460000000029
 51
99.5001680000000022
  0
ARC
  5
10F
100
AcDbEntity
  8
em_text
 62
256
370
-1
  6
ByLayer
100
AcDbCircle
 10
35.5205622222222104
 20
62.4840733333332707
 30
0.0
 40
5.5087299999999999
100
AcDbArc
 50
263.4211429999999723
 51
315.4216309999999908
  0
ARC
  5
110
100
AcDbEntity
  8
em_text
 62
256
370
-1
  6
ByLayer
100
AcDbCircle
 10
37.2222222222222143
 20
62.0982877777777205
 30
0.0
 40
2.2222222222222223
100
AcDbArc
 50
0.0
 51
90.0
  0
ARC
  5
111
100
AcDbEntity
  8
em_text
 62
256
370
-1
  6
ByLayer
100
AcDbCircle
 10
37.2222222222222143
 20
59.1985411111110551
 30
0.0
 40
5.1219688888888895
100
AcDbArc
 50
90.0
 51
130.6012880000000109
  0
LINE
  5
112
100
AcDbEntity
100
AcDbLine
  8
em_text
 62
256
370
-1
  6
ByLayer
 10
39.4444444444444358
 20
62.0982877777777205
 30
0.0
 11
39.4444444444444358
 21
56.9999999999999432
 31
0.0
  0
LINE
  5
113
100
AcDbEntity
100
AcDbLine
  8
em_text
 62
256
370
-1
  6
ByLayer
 10
45.0
 20
67.0
 30
0.0
 11
45.0
 21
59.2222222222222214
 31
0.0
  0
LINE
  5
114
100
AcDbEntity
100
AcDbLine
  8
em_text
 62
256
370
-1
  6
ByLayer
 10
45.0
 20
58.1111111111111143
 30
0.0
 11
45.0
 21
57.0
 31
0.0
  0
ENDSEC
  0
SECTION
  2
OBJECTS
  0
DICTIONARY
  5
C
100
AcDbDictionary
280
0
281
1
  3
ACAD_GROUP
350
D
  3
ACAD_LAYOUT
350
1A
  3
ACAD_MLINESTYLE
350
17
  3
ACAD_PLOTSETTINGS
350
19
  3
ACAD_PLOTSTYLENAME
350
E
  3
AcDbVariableDictionary
350
115
  0
DICTIONARY
  5
D
100
AcDbDictionary
280
0
281
1
  0
ACDBDICTIONARYWDFLT
  5
E
100
AcDbDictionary
281
1
  3
Normal
350
F
100
AcDbDictionaryWithDefault
340
F
  0
ACDBPLACEHOLDER
  5
F
  0
DICTIONARY
  5
17
100
AcDbDictionary
280
0
281
1
  3
Standard
350
18
  0
MLINESTYLE
  5
18
100
AcDbMlineStyle
  2
STANDARD
 70
0
  3

 62
256
 51
90.0
 52
90.0
 71
2
 49
0.5
 62
256
  6
BYLAYER
 49
-0.5
 62
256
  6
BYLAYER
  0
DICTIONARY
  5
19
100
AcDbDictionary
280
0
281
1
  0
DICTIONARY
  5
1A
100
AcDbDictionary
281
1
  3
Layout1
350
1E
  3
Layout2
350
26
  3
Model
350
22
  0
LAYOUT
  5
1E
100
AcDbPlotSettings
  1

  2
C:\Program Files\AutoCAD 2002\plotters\DWF ePlot (optimized for plotting).pc3
  4

  6

 40
0.0
 41
0.0
 42
0.0
 43
0.0
 44
0.0
 45
0.0
 46
0.0
 47
0.0
 48
0.0
 49
0.0
140
0.0
141
0.0
142
1.0
143
1.0
 70
688
 72
0
 73
0
 74
5
  7

 75
16
147
1.0
148
0.0
149
0.0
100
AcDbLayout
  1
Layout1
 70
1
 71
1
 10
0.0
 20
0.0
 11
420.0
 21
297.0
 12
0.0
 22
0.0
 32
0.0
 14
100000000000000000000.0
 24
100000000000000000000.0
 34
100000000000000000000.0
 15
-100000000000000000000.0
 25
-100000000000000000000.0
 35
-100000000000000000000.0
146
0.0
 13
0.0
 23
0.0
 33
0.0
 16
1.0
 26
0.0
 36
0.0
 17
0.0
 27
1.0
 37
0.0
 76
0
330
1B
  0
LAYOUT
  5
22
100
AcDbPlotSettings
  1

  2
C:\Program Files\AutoCAD 2002\plotters\DWF ePlot (optimized for plotting).pc3
  4

  6

 40
0.0
 41
0.0
 42
0.0
 43
0.0
 44
0.0
 45
0.0
 46
0.0
 47
0.0
 48
0.0
 49
0.0
140
0.0
141
0.0
142
1.0
143
1.0
 70
1712
 72
0
 73
0
 74
0
  7

 75
0
147
1.0
148
0.0
149
0.0
100
AcDbLayout
  1
Model
 70
1
 71
0
 10
0.0
 20
0.0
 11
12.0
 21
9.0
 12
0.0
 22
0.0
 32
0.0
 14
0.0
 24
0.0
 34
0.0
 15
0.0
 25
0.0
 35
0.0
146
0.0
 13
0.0
 23
0.0
 33
0.0
 16
1.0
 26
0.0
 36
0.0
 17
0.0
 27
1.0
 37
0.0
 76
0
330
1F
  0
LAYOUT
  5
26
100
AcDbPlotSettings
  1

  2
C:\Program Files\AutoCAD 2002\plotters\DWF ePlot (optimized for plotting).pc3
  4

  6

 40
0.0
 41
0.0
 42
0.0
 43
0.0
 44
0.0
 45
0.0
 46
0.0
 47
0.0
 48
0.0
 49
0.0
140
0.0
141
0.0
142
1.0
143
1.0
 70
688
 72
0
 73
0
 74
5
  7

 75
16
147
1.0
148
0.0
149
0.0
100
AcDbLayout
  1
Layout2
 70
1
 71
2
 10
0.0
 20
0.0
 11
12.0
 21
9.0
 12
0.0
 22
0.0
 32
0.0
 14
0.0
 24
0.0
 34
0.0
 15
0.0
 25
0.0
 35
0.0
146
0.0
 13
0.0
 23
0.0
 33
0.0
 16
1.0
 26
0.0
 36
0.0
 17
0.0
 27
1.0
 37
0.0
 76
0
330
23
  0
DICTIONARY
  5
115
100
AcDbDictionary
281
1
  3
DIMASSOC
350
117
  3
HIDETEXT
350
116
  0
DICTIONARYVAR
  5
116
100
DictionaryVariables
280
0
  1
2
  0
DICTIONARYVAR
  5
117
100
DictionaryVariables
280
0
  1
1
  0
ENDSEC
  0
EOF
