999
dxflib 2.2.0.0
  0
SECTION
  2
HEADER
  9
$ACADVER
  1
AC1015
  9
$HANDSEED
  5
FFFF
  9
$DIMASZ
 40
2.5
  9
$PLIMMIN
 10
0.0
 20
0.0
  9
$DIMEXE
 40
1.25
  9
$DIMGAP
 40
0.625
  9
$PLIMMAX
 10
210.0
 20
297.0
  9
$INSUNITS
 70
4
  9
$DIMSTYLE
  2
Standard
  9
$CLAYER
  8
0
  9
$DIMEXO
 40
0.625
  9
$DIMTXT
 40
2.5
  9
$CLAYER
  8
em_text
  0
ENDSEC
  0
SECTION
  2
TABLES
  0
TABLE
  2
VPORT
  5
8
100
AcDbSymbolTable
 70
1
  0
VPORT
  5
30
100
AcDbSymbolTableRecord
100
AcDbViewportTableRecord
  2
*Active
 70
0
 10
0.0
 20
0.0
 11
1.0
 21
1.0
 12
286.3055555555554861
 22
148.5
 13
0.0
 23
0.0
 14
10.0
 24
10.0
 15
10.0
 25
10.0
 16
0.0
 26
0.0
 36
1.0
 17
0.0
 27
0.0
 37
0.0
 40
297.0
 41
1.92798353909465
 42
50.0
 43
0.0
 44
0.0
 50
0.0
 51
0.0
 71
0
 72
100
 73
1
 74
3
 75
1
 76
1
 77
0
 78
0
281
0
 65
1
110
0.0
120
0.0
130
0.0
111
1.0
121
0.0
131
0.0
112
0.0
122
1.0
132
0.0
 79
0
146
0.0
  0
ENDTAB
  0
TABLE
  2
LTYPE
  5
5
100
AcDbSymbolTable
 70
21
  0
LTYPE
  5
14
100
AcDbSymbolTableRecord
100
AcDbLinetypeTableRecord
  2
ByBlock
 70
0
  3

 72
65
 73
0
 40
0.0
  0
LTYPE
  5
15
100
AcDbSymbolTableRecord
100
AcDbLinetypeTableRecord
  2
ByLayer
 70
0
  3

 72
65
 73
0
 40
0.0
  0
LTYPE
  5
16
100
AcDbSymbolTableRecord
100
AcDbLinetypeTableRecord
  2
CONTINUOUS
 70
0
  3
Solid line
 72
65
 73
0
 40
0.0
  0
LTYPE
  5
31
100
AcDbSymbolTableRecord
100
AcDbLinetypeTableRecord
  2
DOT
 70
0
  3
Dot . . . . . . . . . . . . . . . . . . . . . .
 72
65
 73
2
 40
6.3499999999999996
 49
0.0
 74
0
 49
-6.3499999999999996
 74
0
  0
LTYPE
  5
32
100
AcDbSymbolTableRecord
100
AcDbLinetypeTableRecord
  2
DOT2
 70
0
  3
Dot (.5x) .....................................
 72
65
 73
2
 40
3.1749999999999998
 49
0.0
 74
0
 49
-3.1749999999999998
 74
0
  0
LTYPE
  5
33
100
AcDbSymbolTableRecord
100
AcDbLinetypeTableRecord
  2
DOTX2
 70
0
  3
Dot (2x) .  .  .  .  .  .  .  .  .  .  .  .  .
 72
65
 73
2
 40
12.6999999999999993
 49
0.0
 74
0
 49
-12.6999999999999993
 74
0
  0
LTYPE
  5
34
100
AcDbSymbolTableRecord
100
AcDbLinetypeTableRecord
  2
DASHED
 70
0
  3
Dashed __ __ __ __ __ __ __ __ __ __ __ __ __ _
 72
65
 73
2
 40
19.0500000000000007
 49
12.6999999999999993
 74
0
 49
-6.3499999999999996
 74
0
  0
LTYPE
  5
35
100
AcDbSymbolTableRecord
100
AcDbLinetypeTableRecord
  2
DASHED2
 70
0
  3
Dashed (.5x) _ _ _ _ _ _ _ _ _ _ _ _ _ _ _ _ _
 72
65
 73
2
 40
9.5250000000000004
 49
6.3499999999999996
 74
0
 49
-3.1749999999999998
 74
0
  0
LTYPE
  5
36
100
AcDbSymbolTableRecord
100
AcDbLinetypeTableRecord
  2
DASHEDX2
 70
0
  3
Dashed (2x) ____  ____  ____  ____  ____  ___
 72
65
 73
2
 40
38.1000000000000014
 49
25.3999999999999986
 74
0
 49
-12.6999999999999993
 74
0
  0
LTYPE
  5
37
100
AcDbSymbolTableRecord
100
AcDbLinetypeTableRecord
  2
DASHDOT
 70
0
  3
Dash dot __ . __ . __ . __ . __ . __ . __ . __
 72
65
 73
4
 40
25.3999999999999986
 49
12.6999999999999993
 74
0
 49
-6.3499999999999996
 74
0
 49
0.0
 74
0
 49
-6.3499999999999996
 74
0
  0
LTYPE
  5
38
100
AcDbSymbolTableRecord
100
AcDbLinetypeTableRecord
  2
DASHDOT2
 70
0
  3
Dash dot (.5x) _._._._._._._._._._._._._._._.
 72
65
 73
4
 40
12.6999999999999993
 49
6.3499999999999996
 74
0
 49
-3.1749999999999998
 74
0
 49
0.0
 74
0
 49
-3.1749999999999998
 74
0
  0
LTYPE
  5
39
100
AcDbSymbolTableRecord
100
AcDbLinetypeTableRecord
  2
DASHDOTX2
 70
0
  3
Dash dot (2x) ____  .  ____  .  ____  .  ___
 72
65
 73
4
 40
50.7999999999999972
 49
25.3999999999999986
 74
0
 49
-12.6999999999999993
 74
0
 49
0.0
 74
0
 49
-12.6999999999999993
 74
0
  0
LTYPE
  5
3A
100
AcDbSymbolTableRecord
100
AcDbLinetypeTableRecord
  2
DIVIDE
 70
0
  3
Divide ____ . . ____ . . ____ . . ____ . . ____
 72
65
 73
6
 40
31.75
 49
12.6999999999999993
 74
0
 49
-6.3499999999999996
 74
0
 49
0.0
 74
0
 49
-6.3499999999999996
 74
0
 49
0.0
 74
0
 49
-6.3499999999999996
 74
0
  0
LTYPE
  5
3B
100
AcDbSymbolTableRecord
100
AcDbLinetypeTableRecord
  2
DIVIDE2
 70
0
  3
Divide (.5x) __..__..__..__..__..__..__..__.._
 72
65
 73
6
 40
15.875
 49
6.3499999999999996
 74
0
 49
-3.1749999999999998
 74
0
 49
0.0
 74
0
 49
-3.1749999999999998
 74
0
 49
0.0
 74
0
 49
-3.1749999999999998
 74
0
  0
LTYPE
  5
3C
100
AcDbSymbolTableRecord
100
AcDbLinetypeTableRecord
  2
DIVIDEX2
 70
0
  3
Divide (2x) ________  .  .  ________  .  .  _
 72
65
 73
6
 40
63.5
 49
25.3999999999999986
 74
0
 49
-12.6999999999999993
 74
0
 49
0.0
 74
0
 49
-12.6999999999999993
 74
0
 49
0.0
 74
0
 49
-12.6999999999999993
 74
0
  0
LTYPE
  5
3D
100
AcDbSymbolTableRecord
100
AcDbLinetypeTableRecord
  2
CENTER
 70
0
  3
Center ____ _ ____ _ ____ _ ____ _ ____ _ ____
 72
65
 73
4
 40
50.7999999999999972
 49
31.75
 74
0
 49
-6.3499999999999996
 74
0
 49
6.3499999999999996
 74
0
 49
-6.3499999999999996
 74
0
  0
LTYPE
  5
3E
100
AcDbSymbolTableRecord
100
AcDbLinetypeTableRecord
  2
CENTER2
 70
0
  3
Center (.5x) ___ _ ___ _ ___ _ ___ _ ___ _ ___
 72
65
 73
4
 40
28.5749999999999993
 49
19.0500000000000007
 74
0
 49
-3.1749999999999998
 74
0
 49
3.1749999999999998
 74
0
 49
-3.1749999999999998
 74
0
  0
LTYPE
  5
3F
100
AcDbSymbolTableRecord
100
AcDbLinetypeTableRecord
  2
CENTERX2
 70
0
  3
Center (2x) ________  __  ________  __  _____
 72
65
 73
4
 40
101.5999999999999943
 49
63.5
 74
0
 49
-12.6999999999999993
 74
0
 49
12.6999999999999993
 74
0
 49
-12.6999999999999993
 74
0
  0
LTYPE
  5
40
100
AcDbSymbolTableRecord
100
AcDbLinetypeTableRecord
  2
BORDER
 70
0
  3
Border __ __ . __ __ . __ __ . __ __ . __ __ .
 72
65
 73
6
 40
44.4500000000000028
 49
12.6999999999999993
 74
0
 49
-6.3499999999999996
 74
0
 49
12.6999999999999993
 74
0
 49
-6.3499999999999996
 74
0
 49
0.0
 74
0
 49
-6.3499999999999996
 74
0
  0
LTYPE
  5
41
100
AcDbSymbolTableRecord
100
AcDbLinetypeTableRecord
  2
BORDER2
 70
0
  3
Border (.5x) __.__.__.__.__.__.__.__.__.__.__.
 72
65
 73
6
 40
22.2250000000000014
 49
6.3499999999999996
 74
0
 49
-3.1749999999999998
 74
0
 49
6.3499999999999996
 74
0
 49
-3.1749999999999998
 74
0
 49
0.0
 74
0
 49
-3.1749999999999998
 74
0
  0
LTYPE
  5
42
100
AcDbSymbolTableRecord
100
AcDbLinetypeTableRecord
  2
BORDERX2
 70
0
  3
Border (2x) ____  ____  .  ____  ____  .  ___
 72
65
 73
6
 40
88.9000000000000057
 49
25.3999999999999986
 74
0
 49
-12.6999999999999993
 74
0
 49
25.3999999999999986
 74
0
 49
-12.6999999999999993
 74
0
 49
0.0
 74
0
 49
-12.6999999999999993
 74
0
  0
ENDTAB
  0
TABLE
  2
LAYER
  5
2
100
AcDbSymbolTable
 70
6
  0
LAYER
  5
10
100
AcDbSymbolTableRecord
100
AcDbLayerTableRecord
  2
0
 70
0
 62
7
420
0
  6
CONTINUOUS
370
25
390
F
  0
LAYER
  5
43
100
AcDbSymbolTableRecord
100
AcDbLayerTableRecord
  2
em_drawings
 70
0
 62
5
420
255
  6
CONTINUOUS
370
0
390
F
  0
LAYER
  5
44
100
AcDbSymbolTableRecord
100
AcDbLayerTableRecord
  2
em_text
 70
0
 62
1
420
16711680
  6
CONTINUOUS
370
0
390
F
  0
LAYER
  5
45
100
AcDbSymbolTableRecord
100
AcDbLayerTableRecord
  2
l3
 70
0
 62
7
420
0
  6
CONTINUOUS
370
0
390
F
  0
LAYER
  5
46
100
AcDbSymbolTableRecord
100
AcDbLayerTableRecord
  2
holes
 70
0
 62
7
420
0
  6
CONTINUOUS
370
0
390
F
  0
LAYER
  5
47
100
AcDbSymbolTableRecord
100
AcDbLayerTableRecord
  2
Drawings
 70
0
 62
5
420
255
  6
CONTINUOUS
370
0
390
F
  0
ENDTAB
  0
TABLE
  2
STYLE
  5
3
100
AcDbSymbolTable
 70
1
  0
STYLE
  5
11
100
AcDbSymbolTableRecord
100
AcDbTextStyleTableRecord
  2
Standard
 70
0
 40
0.0
 41
0.75
 50
0.0
 71
0
 42
2.5
  3
txt
  4

  0
ENDTAB
  0
TABLE
  2
VIEW
  5
6
100
AcDbSymbolTable
 70
0
  0
ENDTAB
  0
TABLE
  2
UCS
  5
7
100
AcDbSymbolTable
 70
0
  0
ENDTAB
  0
TABLE
  2
APPID
  5
9
100
AcDbSymbolTable
 70
1
  0
APPID
  5
12
100
AcDbSymbolTableRecord
100
AcDbRegAppTableRecord
  2
ACAD
 70
0
  0
ENDTAB
  0
TABLE
  2
DIMSTYLE
  5
A
100
AcDbSymbolTable
 70
1
100
AcDbDimStyleTable
 71
0
  0
DIMSTYLE
105
27
100
AcDbSymbolTableRecord
100
AcDbDimStyleTableRecord
  2
Standard
 41
2.5
 42
0.625
 43
3.75
 44
1.25
 70
0
 73
0
 74
0
 77
1
 78
8
140
2.5
141
2.5
143
0.03937007874016
147
0.625
171
3
172
1
271
2
272
2
274
3
278
44
283
0
284
8
340
11
  0
ENDTAB
  0
TABLE
  2
BLOCK_RECORD
  5
1
100
AcDbSymbolTable
 70
1
  0
BLOCK_RECORD
  5
1F
100
AcDbSymbolTableRecord
100
AcDbBlockTableRecord
  2
*Model_Space
340
22
  0
BLOCK_RECORD
  5
1B
100
AcDbSymbolTableRecord
100
AcDbBlockTableRecord
  2
*Paper_Space
340
1E
  0
BLOCK_RECORD
  5
23
100
AcDbSymbolTableRecord
100
AcDbBlockTableRecord
  2
*Paper_Space0
340
26
  0
ENDTAB
  0
ENDSEC
  0
SECTION
  2
BLOCKS
  0
BLOCK
  5
20
100
AcDbEntity
  8
0
100
AcDbBlockBegin
  2
*Model_Space
 70
0
 10
0.0
 20
0.0
 30
0.0
  3
*Model_Space
  1

  0
ENDBLK
  5
21
100
AcDbEntity
  8
0
100
AcDbBlockEnd
  0
BLOCK
  5
1C
100
AcDbEntity
 67
1
  8
0
100
AcDbBlockBegin
  2
*Paper_Space
 70
0
 10
0.0
 20
0.0
 30
0.0
  3
*Paper_Space
  1

  0
ENDBLK
  5
1D
100
AcDbEntity
 67
1
  8
0
100
AcDbBlockEnd
  0
BLOCK
  5
24
100
AcDbEntity
  8
0
100
AcDbBlockBegin
  2
*Paper_Space0
 70
0
 10
0.0
 20
0.0
 30
0.0
  3
*Paper_Space0
  1

  0
ENDBLK
  5
25
100
AcDbEntity
  8
0
100
AcDbBlockEnd
  0
ENDSEC
  0
SECTION
  2
ENTITIES
  0
MTEXT
  5
48
100
AcDbEntity
100
AcDbMText
  8
em_drawings
 62
256
370
-1
  6
ByLayer
 10
250.0
 20
220.0
 30
0.0
 40
8.0
 41
100.0
 71
5
 72
2
  1
This\~is\~a\~mounting\~board\~that\~allows\~your\Pelectronics\~to\~hang\~upside-down\~inside\Pyour\~Thing-O-Matic.\~Like\~a\~bat!\~It's\~a\Pbat-board.
  7
normal
 50
0.0
 73
1
 44
1.0
  0
LINE
  5
49
100
AcDbEntity
100
AcDbLine
  8
Drawings
 62
256
370
-1
  6
ByLayer
 10
105.3822562112060552
 20
239.6685896880141513
 30
0.0
 11
105.3824011212233529
 21
182.4285896881976612
 31
0.0
  0
LINE
  5
4A
100
AcDbEntity
100
AcDbLine
  8
Drawings
 62
256
370
-1
  6
ByLayer
 10
48.1422562113894514
 20
239.6684447779968821
 30
0.0
 11
105.3822562112060552
 21
239.6685896880141513
 31
0.0
  0
LINE
  5
4B
100
AcDbEntity
100
AcDbLine
  8
Drawings
 62
256
370
-1
  6
ByLayer
 10
105.3824011212233529
 20
182.4285896881976612
 30
0.0
 11
48.1424011214067775
 21
182.4284447781803635
 31
0.0
  0
LINE
  5
4C
100
AcDbEntity
100
AcDbLine
  8
Drawings
 62
256
370
-1
  6
ByLayer
 10
48.1424011214067775
 20
182.4284447781803635
 30
0.0
 11
48.1422562113894514
 21
239.6684447779968821
 31
0.0
  0
LINE
  5
4D
100
AcDbEntity
100
AcDbLine
  8
Drawings
 62
256
370
-1
  6
ByLayer
 10
105.3824289690609532
 20
171.4285896882326199
 30
0.0
 11
105.3825738790783078
 21
114.1885896884161582
 31
0.0
  0
LINE
  5
4E
100
AcDbEntity
100
AcDbLine
  8
Drawings
 62
256
370
-1
  6
ByLayer
 10
48.1424289692443779
 20
171.4284447782153791
 30
0.0
 11
105.3824289690609532
 21
171.4285896882326199
 31
0.0
  0
LINE
  5
4F
100
AcDbEntity
100
AcDbLine
  8
Drawings
 62
256
370
-1
  6
ByLayer
 10
105.3825738790783078
 20
114.1885896884161582
 30
0.0
 11
48.1425738792617324
 21
114.1884447783988605
 31
0.0
  0
LINE
  5
50
100
AcDbEntity
100
AcDbLine
  8
Drawings
 62
256
370
-1
  6
ByLayer
 10
48.1425738792617324
 20
114.1884447783988605
 30
0.0
 11
48.1424289692443779
 21
171.4284447782153791
 31
0.0
  0
LINE
  5
51
100
AcDbEntity
100
AcDbLine
  8
l3
 62
256
370
-1
  6
ByLayer
 10
-126.2335167936315372
 20
119.2084872288851187
 30
0.0
 11
-126.2335167936315656
 21
74.2084872288851187
 31
0.0
  0
LINE
  5
52
100
AcDbEntity
100
AcDbLine
  8
l3
 62
256
370
-1
  6
ByLayer
 10
-180.6179019791897531
 20
119.2084872288851045
 30
0.0
 11
-126.2335167936315372
 21
119.2084872288851187
 31
0.0
  0
LINE
  5
53
100
AcDbEntity
100
AcDbLine
  8
l3
 62
256
370
-1
  6
ByLayer
 10
-180.6182767503368609
 20
74.2084872288851471
 30
0.0
 11
-126.2335167936315656
 21
74.2084872288851187
 31
0.0
  0
LINE
  5
54
100
AcDbEntity
100
AcDbLine
  8
Drawings
 62
256
370
-1
  6
ByLayer
 10
-119.3745242997462697
 20
240.3909165531132146
 30
0.0
 11
-119.374379389728972
 21
183.1509165532966961
 31
0.0
  0
LINE
  5
55
100
AcDbEntity
100
AcDbLine
  8
Drawings
 62
256
370
-1
  6
ByLayer
 10
-176.6145242995629019
 20
240.3907716430959169
 30
0.0
 11
-119.3745242997462697
 21
240.3909165531132146
 31
0.0
  0
LINE
  5
56
100
AcDbEntity
100
AcDbLine
  8
Drawings
 62
256
370
-1
  6
ByLayer
 10
-119.374379389728972
 20
183.1509165532966961
 30
0.0
 11
-176.6143793895454905
 21
183.1507716432794552
 31
0.0
  0
LINE
  5
57
100
AcDbEntity
100
AcDbLine
  8
Drawings
 62
256
370
-1
  6
ByLayer
 10
-176.6143793895454905
 20
183.1507716432794552
 30
0.0
 11
-176.6145242995629019
 21
240.3907716430959169
 31
0.0
  0
LINE
  5
58
100
AcDbEntity
100
AcDbLine
  8
Drawings
 62
256
370
-1
  6
ByLayer
 10
-119.3743724024540143
 20
180.3909165533058001
 30
0.0
 11
-119.3742274924366598
 21
123.15091655348931
 31
0.0
  0
LINE
  5
59
100
AcDbEntity
100
AcDbLine
  8
Drawings
 62
256
370
-1
  6
ByLayer
 10
-176.6143724022705896
 20
180.3907716432884172
 30
0.0
 11
-119.3743724024540143
 21
180.3909165533058001
 31
0.0
  0
LINE
  5
5A
100
AcDbEntity
100
AcDbLine
  8
Drawings
 62
256
370
-1
  6
ByLayer
 10
-119.3742274924366598
 20
123.15091655348931
 30
0.0
 11
-176.614227492253292
 21
123.1507716434719839
 31
0.0
  0
LINE
  5
5B
100
AcDbEntity
100
AcDbLine
  8
Drawings
 62
256
370
-1
  6
ByLayer
 10
-176.614227492253292
 20
123.1507716434719839
 30
0.0
 11
-176.6143724022705896
 21
180.3907716432884172
 31
0.0
  0
LINE
  5
5C
100
AcDbEntity
100
AcDbLine
  8
l3
 62
256
370
-1
  6
ByLayer
 10
-180.6183537439681572
 20
253.2309647714100151
 30
0.0
 11
-149.0828746176857749
 21
253.2208130056340565
 31
0.0
  0
ARC
  5
5D
100
AcDbEntity
  8
l3
 62
256
370
-1
  6
ByLayer
100
AcDbCircle
 10
-149.0804602500755891
 20
260.7208126170226024
 30
0.0
 40
7.5
100
AcDbArc
 50
269.9815555897807258
 51
359.981555589780271
  0
LINE
  5
5E
100
AcDbEntity
100
AcDbLine
  8
l3
 62
256
370
-1
  6
ByLayer
 10
-141.5804606386871853
 20
260.7183982494121892
 30
0.0
 11
-141.5716117484308825
 21
288.2066205085095589
 31
0.0
  0
LINE
  5
5F
100
AcDbEntity
100
AcDbLine
  8
l3
 62
256
370
-1
  6
ByLayer
 10
68.345578919835944
 20
260.7183982494123029
 30
0.0
 11
68.3367300295797548
 21
288.2066205085101274
 31
0.0
  0
ARC
  5
60
100
AcDbEntity
  8
l3
 62
256
370
-1
  6
ByLayer
100
AcDbCircle
 10
75.8455785312245325
 20
260.7208126170224887
 30
0.0
 40
7.5
100
AcDbArc
 50
180.018444410219729
 51
270.0184444102192742
  0
LINE
  5
61
100
AcDbEntity
100
AcDbLine
  8
l3
 62
256
370
-1
  6
ByLayer
 10
107.3810343218874266
 20
253.2309639866745954
 30
0.0
 11
75.847992898834633
 21
253.2208130056340849
 31
0.0
  0
LINE
  5
62
100
AcDbEntity
100
AcDbLine
  8
l3
 62
256
370
-1
  6
ByLayer
 10
107.3795544883000161
 20
38.2322212136708117
 30
0.0
 11
75.8821633788499099
 21
38.2321414741970926
 31
0.0
  0
ARC
  5
63
100
AcDbEntity
  8
l3
 62
256
370
-1
  6
ByLayer
100
AcDbCircle
 10
75.8821823659992845
 20
30.7321414742211658
 30
0.0
 40
7.5
100
AcDbArc
 50
90.0001450512299641
 51
180.0001450510921472
  0
LINE
  5
64
100
AcDbEntity
100
AcDbLine
  8
l3
 62
256
370
-1
  6
ByLayer
 10
68.3821823660232155
 20
30.7321224870595131
 30
0.0
 11
68.3822520155789562
 21
3.2202871463079532
 31
0.0
  0
LINE
  5
65
100
AcDbEntity
100
AcDbLine
  8
l3
 62
256
370
-1
  6
ByLayer
 10
-141.6170640848745848
 20
30.7321224870592999
 30
0.0
 11
-141.617133734430297
 21
3.2202871463075553
 31
0.0
  0
ARC
  5
66
100
AcDbEntity
  8
l3
 62
256
370
-1
  6
ByLayer
100
AcDbCircle
 10
-149.1170640848505968
 20
30.7321414742214216
 30
0.0
 40
7.5
100
AcDbArc
 50
359.9998549489079096
 51
89.9998549487700217
  0
LINE
  5
67
100
AcDbEntity
100
AcDbLine
  8
l3
 62
256
370
-1
  6
ByLayer
 10
-180.6186053527347894
 20
38.2322212242262367
 30
0.0
 11
-149.1170450977012365
 21
38.2321414741974195
 31
0.0
  0
LINE
  5
68
100
AcDbEntity
100
AcDbLine
  8
l3
 62
256
370
-1
  6
ByLayer
 10
-180.6179019791897531
 20
119.2084872288851045
 30
0.0
 11
-180.6167858068019996
 21
253.2309642666665184
 31
0.0
  0
LINE
  5
69
100
AcDbEntity
100
AcDbLine
  8
l3
 62
256
370
-1
  6
ByLayer
 10
-180.6185763695918922
 20
38.2322212241528661
 30
0.0
 11
-180.6182767503368609
 21
74.2084872288851471
 31
0.0
  0
LINE
  5
6A
100
AcDbEntity
100
AcDbLine
  8
l3
 62
256
370
-1
  6
ByLayer
 10
68.3822520155469107
 20
3.2202998044158164
 30
0.0
 11
-141.6171337343982657
 21
3.2202998044155038
 31
0.0
  0
LINE
  5
6B
100
AcDbEntity
100
AcDbLine
  8
l3
 62
256
370
-1
  6
ByLayer
 10
107.3794279080076706
 20
253.2309634695447471
 30
0.0
 11
107.3795639818688414
 21
38.2322212136948565
 31
0.0
  0
LINE
  5
6C
100
AcDbEntity
100
AcDbLine
  8
l3
 62
256
370
-1
  6
ByLayer
 10
-115.6185359214230175
 20
288.208230086916501
 30
0.0
 11
-115.6185359214230459
 21
149.2082300869165579
 31
0.0
  0
ARC
  5
6D
100
AcDbEntity
  8
l3
 62
256
370
-1
  6
ByLayer
100
AcDbCircle
 10
-110.6185359214230459
 20
149.2082300869164158
 30
0.0
 40
5.0
100
AcDbArc
 50
180.0
 51
270.0
  0
LINE
  5
6E
100
AcDbEntity
100
AcDbLine
  8
l3
 62
256
370
-1
  6
ByLayer
 10
42.3814640785769541
 20
149.2082300869164726
 30
0.0
 11
42.3814640785771246
 21
288.208230086916501
 31
0.0
  0
ARC
  5
6F
100
AcDbEntity
  8
l3
 62
256
370
-1
  6
ByLayer
100
AcDbCircle
 10
37.3814640785769541
 20
149.2082300869163589
 30
0.0
 40
5.0
100
AcDbArc
 50
270.0
 51
0.0
  0
LINE
  5
70
100
AcDbEntity
100
AcDbLine
  8
l3
 62
256
370
-1
  6
ByLayer
 10
-141.5716117484308825
 20
288.2066205085095589
 30
0.0
 11
-115.6185359214229607
 21
288.2066205085096726
 31
0.0
  0
LINE
  5
71
100
AcDbEntity
100
AcDbLine
  8
l3
 62
256
370
-1
  6
ByLayer
 10
42.3814640785771388
 20
288.2066205085100137
 30
0.0
 11
68.3367300295797548
 21
288.2066205085101274
 31
0.0
  0
CIRCLE
  5
72
100
AcDbEntity
100
AcDbCircle
  8
holes
 62
256
370
-1
  6
ByLayer
 10
100.3823884631316616
 20
187.4285770300738534
 30
0.0
 40
1.5
  0
CIRCLE
  5
73
100
AcDbEntity
100
AcDbCircle
  8
holes
 62
256
370
-1
  6
ByLayer
 10
100.3822688693298062
 20
234.6685770299224885
 30
0.0
 40
1.5
  0
CIRCLE
  5
74
100
AcDbEntity
100
AcDbCircle
  8
holes
 62
256
370
-1
  6
ByLayer
 10
53.1422688694811569
 20
234.668457436120633
 30
0.0
 40
1.5
  0
CIRCLE
  5
75
100
AcDbEntity
100
AcDbCircle
  8
holes
 62
256
370
-1
  6
ByLayer
 10
53.1423884632830266
 20
187.4284574362720548
 30
0.0
 40
1.5
  0
CIRCLE
  5
76
100
AcDbEntity
100
AcDbCircle
  8
holes
 62
256
370
-1
  6
ByLayer
 10
100.3825612209865881
 20
119.1885770302922793
 30
0.0
 40
1.5
  0
CIRCLE
  5
77
100
AcDbEntity
100
AcDbCircle
  8
holes
 62
256
370
-1
  6
ByLayer
 10
100.3824416271847326
 20
166.4285770301410992
 30
0.0
 40
1.5
  0
CIRCLE
  5
78
100
AcDbEntity
100
AcDbCircle
  8
holes
 62
256
370
-1
  6
ByLayer
 10
53.1424416273360976
 20
166.42845743633913
 30
0.0
 40
1.5
  0
CIRCLE
  5
79
100
AcDbEntity
100
AcDbCircle
  8
holes
 62
256
370
-1
  6
ByLayer
 10
53.1425612211379672
 20
119.1884574364905376
 30
0.0
 40
1.5
  0
CIRCLE
  5
7A
100
AcDbEntity
100
AcDbCircle
  8
holes
 62
256
370
-1
  6
ByLayer
 10
-165.7335167936319635
 20
49.7042509961340784
 30
0.0
 40
1.5
  0
CIRCLE
  5
7B
100
AcDbEntity
100
AcDbCircle
  8
holes
 62
256
370
-1
  6
ByLayer
 10
-145.7335167936320204
 20
49.7042509961341068
 30
0.0
 40
1.5
  0
CIRCLE
  5
7C
100
AcDbEntity
100
AcDbCircle
  8
holes
 62
256
370
-1
  6
ByLayer
 10
-145.7335167936320204
 20
69.7042509961342063
 30
0.0
 40
1.5
  0
CIRCLE
  5
7D
100
AcDbEntity
100
AcDbCircle
  8
holes
 62
256
370
-1
  6
ByLayer
 10
-165.7335167936319635
 20
69.7042509961340926
 30
0.0
 40
1.5
  0
CIRCLE
  5
7E
100
AcDbEntity
100
AcDbCircle
  8
holes
 62
256
370
-1
  6
ByLayer
 10
-165.7335167936302582
 20
221.7072432276254403
 30
0.0
 40
1.5
  0
CIRCLE
  5
7F
100
AcDbEntity
100
AcDbCircle
  8
holes
 62
256
370
-1
  6
ByLayer
 10
-145.7335167936302582
 20
221.7072432276253551
 30
0.0
 40
1.5
  0
CIRCLE
  5
80
100
AcDbEntity
100
AcDbCircle
  8
holes
 62
256
370
-1
  6
ByLayer
 10
-145.733516793630173
 20
241.7072432276255256
 30
0.0
 40
1.5
  0
CIRCLE
  5
81
100
AcDbEntity
100
AcDbCircle
  8
holes
 62
256
370
-1
  6
ByLayer
 10
-165.7335167936301445
 20
241.7072432276255256
 30
0.0
 40
1.5
  0
CIRCLE
  5
82
100
AcDbEntity
100
AcDbCircle
  8
holes
 62
256
370
-1
  6
ByLayer
 10
98.3716329125498419
 20
96.7084872288852466
 30
0.0
 40
2.0
  0
CIRCLE
  5
83
100
AcDbEntity
100
AcDbCircle
  8
holes
 62
256
370
-1
  6
ByLayer
 10
92.4981723518916965
 20
49.7045778685880038
 30
0.0
 40
1.5
  0
CIRCLE
  5
84
100
AcDbEntity
100
AcDbCircle
  8
holes
 62
256
370
-1
  6
ByLayer
 10
72.4981723519558159
 20
49.7045272361571477
 30
0.0
 40
1.5
  0
CIRCLE
  5
85
100
AcDbEntity
100
AcDbCircle
  8
holes
 62
256
370
-1
  6
ByLayer
 10
72.4981217195249314
 20
69.7045272360932557
 30
0.0
 40
1.5
  0
CIRCLE
  5
86
100
AcDbEntity
100
AcDbCircle
  8
holes
 62
256
370
-1
  6
ByLayer
 10
92.4981217194608689
 20
69.7045778685242254
 30
0.0
 40
1.5
  0
CIRCLE
  5
87
100
AcDbEntity
100
AcDbCircle
  8
holes
 62
256
370
-1
  6
ByLayer
 10
92.4977369054088854
 20
221.707570099528283
 30
0.0
 40
1.5
  0
CIRCLE
  5
88
100
AcDbEntity
100
AcDbCircle
  8
holes
 62
256
370
-1
  6
ByLayer
 10
72.4977369054729621
 20
221.7075194670973985
 30
0.0
 40
1.5
  0
CIRCLE
  5
89
100
AcDbEntity
100
AcDbCircle
  8
holes
 62
256
370
-1
  6
ByLayer
 10
72.4976862730419924
 20
241.7075194670332792
 30
0.0
 40
1.5
  0
CIRCLE
  5
8A
100
AcDbEntity
100
AcDbCircle
  8
holes
 62
256
370
-1
  6
ByLayer
 10
92.4976862729779157
 20
241.7075700994642773
 30
0.0
 40
1.5
  0
CIRCLE
  5
8B
100
AcDbEntity
100
AcDbCircle
  8
holes
 62
256
370
-1
  6
ByLayer
 10
-123.6174408594255851
 20
160.6382134073496388
 30
0.0
 40
1.5
  0
CIRCLE
  5
8C
100
AcDbEntity
100
AcDbCircle
  8
holes
 62
256
370
-1
  6
ByLayer
 10
-123.6174408594256136
 20
141.6382134073496957
 30
0.0
 40
1.5
  0
CIRCLE
  5
8D
100
AcDbEntity
100
AcDbCircle
  8
holes
 62
256
370
-1
  6
ByLayer
 10
-124.3743920478206633
 20
188.1509038951729167
 30
0.0
 40
1.5
  0
CIRCLE
  5
8E
100
AcDbEntity
100
AcDbCircle
  8
holes
 62
256
370
-1
  6
ByLayer
 10
-124.3745116416225187
 20
235.3909038950215233
 30
0.0
 40
1.5
  0
CIRCLE
  5
8F
100
AcDbEntity
100
AcDbCircle
  8
holes
 62
256
370
-1
  6
ByLayer
 10
-171.6145116414712106
 20
235.3907843012196679
 30
0.0
 40
1.5
  0
CIRCLE
  5
90
100
AcDbEntity
100
AcDbCircle
  8
holes
 62
256
370
-1
  6
ByLayer
 10
-171.6143920476692415
 20
188.1507843013710612
 30
0.0
 40
1.5
  0
CIRCLE
  5
91
100
AcDbEntity
100
AcDbCircle
  8
holes
 62
256
370
-1
  6
ByLayer
 10
-124.3742401505284079
 20
128.1509038953655022
 30
0.0
 40
1.5
  0
CIRCLE
  5
92
100
AcDbEntity
100
AcDbCircle
  8
holes
 62
256
370
-1
  6
ByLayer
 10
-124.3743597443302633
 20
175.3909038952141088
 30
0.0
 40
1.5
  0
CIRCLE
  5
93
100
AcDbEntity
100
AcDbCircle
  8
holes
 62
256
370
-1
  6
ByLayer
 10
-171.6143597441788984
 20
175.3907843014121966
 30
0.0
 40
1.5
  0
CIRCLE
  5
94
100
AcDbEntity
100
AcDbCircle
  8
holes
 62
256
370
-1
  6
ByLayer
 10
-171.6142401503770429
 20
128.1507843015637604
 30
0.0
 40
1.5
  0
LINE
  5
95
100
AcDbEntity
100
AcDbLine
  8
Drawings
 62
256
370
-1
  6
ByLayer
 10
-36.6174408594256775
 20
18.2202998044156601
 30
0.0
 11
-36.6174408594256775
 21
-11.7797001955843399
 31
0.0
  0
LINE
  5
96
100
AcDbEntity
100
AcDbLine
  8
Drawings
 62
256
370
-1
  6
ByLayer
 10
-86.6174408594256704
 20
18.2202998044156779
 30
0.0
 11
-86.6174408594256704
 21
-11.7797001955843221
 31
0.0
  0
LINE
  5
97
100
AcDbEntity
100
AcDbLine
  8
Drawings
 62
256
370
-1
  6
ByLayer
 10
13.3825591405743225
 20
18.2202998044156494
 30
0.0
 11
13.3825591405743225
 21
-11.7797001955843523
 31
0.0
  0
LINE
  5
98
100
AcDbEntity
100
AcDbLine
  8
l3
 62
256
370
-1
  6
ByLayer
 10
-110.6185359214230459
 20
144.2082300869164158
 30
0.0
 11
37.3814640785769541
 21
144.2082300869163589
 31
0.0
  0
LINE
  5
99
100
AcDbEntity
100
AcDbLine
  8
Drawings
 62
256
370
-1
  6
ByLayer
 10
-26.2218154242899857
 20
129.2847707571604019
 30
0.0
 11
-114.221815424290412
 21
129.284770757160544
 31
0.0
  0
LINE
  5
9A
100
AcDbEntity
100
AcDbLine
  8
Drawings
 62
256
370
-1
  6
ByLayer
 10
-26.2218154242899857
 20
129.2847707571604019
 30
0.0
 11
-26.2218154242899573
 21
26.2847707571603877
 31
0.0
  0
LINE
  5
9B
100
AcDbEntity
100
AcDbLine
  8
Drawings
 62
256
370
-1
  6
ByLayer
 10
-114.221815424290412
 20
129.284770757160544
 30
0.0
 11
-114.221815424290412
 21
26.2847707571605582
 31
0.0
  0
LINE
  5
9C
100
AcDbEntity
100
AcDbLine
  8
Drawings
 62
256
370
-1
  6
ByLayer
 10
-26.2218154242899573
 20
26.2847707571603877
 30
0.0
 11
-114.221815424290412
 21
26.2847707571605582
 31
0.0
  0
CIRCLE
  5
9D
100
AcDbEntity
100
AcDbCircle
  8
holes
 62
256
370
-1
  6
ByLayer
 10
-31.2218154242899573
 20
31.2847707571604303
 30
0.0
 40
1.5
  0
CIRCLE
  5
9E
100
AcDbEntity
100
AcDbCircle
  8
holes
 62
256
370
-1
  6
ByLayer
 10
-31.2218154242899857
 20
124.2847707571605582
 30
0.0
 40
1.5
  0
CIRCLE
  5
9F
100
AcDbEntity
100
AcDbCircle
  8
holes
 62
256
370
-1
  6
ByLayer
 10
-109.2218154242903552
 20
31.284770757160544
 30
0.0
 40
1.5
  0
CIRCLE
  5
A0
100
AcDbEntity
100
AcDbCircle
  8
holes
 62
256
370
-1
  6
ByLayer
 10
-109.221815424290412
 20
124.284770757160544
 30
0.0
 40
1.5
  0
LINE
  5
A1
100
AcDbEntity
100
AcDbLine
  8
Drawings
 62
256
370
-1
  6
ByLayer
 10
-78.221815424290412
 20
129.2847707571605156
 30
0.0
 11
-78.221815424290412
 21
26.2847707571605511
 31
0.0
  0
LINE
  5
A2
100
AcDbEntity
100
AcDbLine
  8
Drawings
 62
256
370
-1
  6
ByLayer
 10
-44.2218154242899857
 20
129.2847707571604019
 30
0.0
 11
-44.2218154242899573
 21
26.2847707571603948
 31
0.0
  0
LINE
  5
A3
100
AcDbEntity
100
AcDbLine
  8
Drawings
 62
256
370
-1
  6
ByLayer
 10
-15.9360289259630292
 20
27.6776009853759319
 30
0.0
 11
-15.9499898321676881
 21
102.0775996755178312
 31
0.0
  0
LINE
  5
A4
100
AcDbEntity
100
AcDbLine
  8
Drawings
 62
256
370
-1
  6
ByLayer
 10
56.2139698037915139
 20
27.6911396867559461
 30
0.0
 11
-15.9360289259630292
 21
27.6776009853759319
 31
0.0
  0
LINE
  5
A5
100
AcDbEntity
100
AcDbLine
  8
Drawings
 62
256
370
-1
  6
ByLayer
 10
-15.9499898321676881
 20
102.0775996755178312
 30
0.0
 11
56.2000088975866845
 21
102.0911383768977885
 31
0.0
  0
LINE
  5
A6
100
AcDbEntity
100
AcDbLine
  8
Drawings
 62
256
370
-1
  6
ByLayer
 10
56.2000088975866845
 20
102.0911383768977885
 30
0.0
 11
56.2139698037915139
 21
27.6911396867559461
 31
0.0
  0
CIRCLE
  5
A7
100
AcDbEntity
100
AcDbCircle
  8
holes
 62
256
370
-1
  6
ByLayer
 10
-10.9369672469349268
 20
32.6785391302916679
 30
0.0
 40
1.5
  0
CIRCLE
  5
A8
100
AcDbEntity
100
AcDbCircle
  8
holes
 62
256
370
-1
  6
ByLayer
 10
-10.9490516872519663
 20
97.0785379964898141
 30
0.0
 40
1.5
  0
CIRCLE
  5
A9
100
AcDbEntity
100
AcDbCircle
  8
holes
 62
256
370
-1
  6
ByLayer
 10
51.2009472185585821
 20
97.090200231981953
 30
0.0
 40
1.5
  0
CIRCLE
  5
AA
100
AcDbEntity
100
AcDbCircle
  8
holes
 62
256
370
-1
  6
ByLayer
 10
51.2130316588755647
 20
32.6902013657838921
 30
0.0
 40
1.5
  0
MTEXT
  5
AB
100
AcDbEntity
100
AcDbMText
  8
em_text
 62
256
370
-1
  6
ByLayer
 10
-30.0
 20
70.0
 30
0.0
 40
10.0
 41
100.0
 71
5
 72
0
  1
Thing-O-Matic\PMount-O-Rama!
  7
courier
 50
0.0
 73
1
 44
1.0
  0
ENDSEC
  0
SECTION
  2
OBJECTS
  0
DICTIONARY
  5
C
100
AcDbDictionary
280
0
281
1
  3
ACAD_GROUP
350
D
  3
ACAD_LAYOUT
350
1A
  3
ACAD_MLINESTYLE
350
17
  3
ACAD_PLOTSETTINGS
350
19
  3
ACAD_PLOTSTYLENAME
350
E
  3
AcDbVariableDictionary
350
AC
  0
DICTIONARY
  5
D
100
AcDbDictionary
280
0
281
1
  0
ACDBDICTIONARYWDFLT
  5
E
100
AcDbDictionary
281
1
  3
Normal
350
F
100
AcDbDictionaryWithDefault
340
F
  0
ACDBPLACEHOLDER
  5
F
  0
DICTIONARY
  5
17
100
AcDbDictionary
280
0
281
1
  3
Standard
350
18
  0
MLINESTYLE
  5
18
100
AcDbMlineStyle
  2
STANDARD
 70
0
  3

 62
256
 51
90.0
 52
90.0
 71
2
 49
0.5
 62
256
  6
BYLAYER
 49
-0.5
 62
256
  6
BYLAYER
  0
DICTIONARY
  5
19
100
AcDbDictionary
280
0
281
1
  0
DICTIONARY
  5
1A
100
AcDbDictionary
281
1
  3
Layout1
350
1E
  3
Layout2
350
26
  3
Model
350
22
  0
LAYOUT
  5
1E
100
AcDbPlotSettings
  1

  2
C:\Program Files\AutoCAD 2002\plotters\DWF ePlot (optimized for plotting).pc3
  4

  6

 40
0.0
 41
0.0
 42
0.0
 43
0.0
 44
0.0
 45
0.0
 46
0.0
 47
0.0
 48
0.0
 49
0.0
140
0.0
141
0.0
142
1.0
143
1.0
 70
688
 72
0
 73
0
 74
5
  7

 75
16
147
1.0
148
0.0
149
0.0
100
AcDbLayout
  1
Layout1
 70
1
 71
1
 10
0.0
 20
0.0
 11
420.0
 21
297.0
 12
0.0
 22
0.0
 32
0.0
 14
100000000000000000000.0
 24
100000000000000000000.0
 34
100000000000000000000.0
 15
-100000000000000000000.0
 25
-100000000000000000000.0
 35
-100000000000000000000.0
146
0.0
 13
0.0
 23
0.0
 33
0.0
 16
1.0
 26
0.0
 36
0.0
 17
0.0
 27
1.0
 37
0.0
 76
0
330
1B
  0
LAYOUT
  5
22
100
AcDbPlotSettings
  1

  2
C:\Program Files\AutoCAD 2002\plotters\DWF ePlot (optimized for plotting).pc3
  4

  6

 40
0.0
 41
0.0
 42
0.0
 43
0.0
 44
0.0
 45
0.0
 46
0.0
 47
0.0
 48
0.0
 49
0.0
140
0.0
141
0.0
142
1.0
143
1.0
 70
1712
 72
0
 73
0
 74
0
  7

 75
0
147
1.0
148
0.0
149
0.0
100
AcDbLayout
  1
Model
 70
1
 71
0
 10
0.0
 20
0.0
 11
12.0
 21
9.0
 12
0.0
 22
0.0
 32
0.0
 14
0.0
 24
0.0
 34
0.0
 15
0.0
 25
0.0
 35
0.0
146
0.0
 13
0.0
 23
0.0
 33
0.0
 16
1.0
 26
0.0
 36
0.0
 17
0.0
 27
1.0
 37
0.0
 76
0
330
1F
  0
LAYOUT
  5
26
100
AcDbPlotSettings
  1

  2
C:\Program Files\AutoCAD 2002\plotters\DWF ePlot (optimized for plotting).pc3
  4

  6

 40
0.0
 41
0.0
 42
0.0
 43
0.0
 44
0.0
 45
0.0
 46
0.0
 47
0.0
 48
0.0
 49
0.0
140
0.0
141
0.0
142
1.0
143
1.0
 70
688
 72
0
 73
0
 74
5
  7

 75
16
147
1.0
148
0.0
149
0.0
100
AcDbLayout
  1
Layout2
 70
1
 71
2
 10
0.0
 20
0.0
 11
12.0
 21
9.0
 12
0.0
 22
0.0
 32
0.0
 14
0.0
 24
0.0
 34
0.0
 15
0.0
 25
0.0
 35
0.0
146
0.0
 13
0.0
 23
0.0
 33
0.0
 16
1.0
 26
0.0
 36
0.0
 17
0.0
 27
1.0
 37
0.0
 76
0
330
23
  0
DICTIONARY
  5
AC
100
AcDbDictionary
281
1
  3
DIMASSOC
350
AE
  3
HIDETEXT
350
AD
  0
DICTIONARYVAR
  5
AD
100
DictionaryVariables
280
0
  1
2
  0
DICTIONARYVAR
  5
AE
100
DictionaryVariables
280
0
  1
1
  0
ENDSEC
  0
EOF
