G75*
G70*
%OFA0B0*%
%FSLAX24Y24*%
%IPPOS*%
%LPD*%
%AMOC8*
5,1,8,0,0,1.08239X$1,22.5*
%
%ADD10C,0.0000*%
%ADD11C,0.0150*%
%ADD12R,0.0472X0.0551*%
%ADD13R,0.2000X0.0720*%
%ADD14R,0.0630X0.0709*%
%ADD15C,0.0200*%
D10*
X000101Y000101D02*
X000101Y020097D01*
X010771Y020097D01*
X010771Y000101D01*
X000101Y000101D01*
D11*
X003225Y012226D02*
X004076Y012226D01*
X004076Y012793D01*
X004076Y013147D02*
X004076Y013714D01*
X004076Y014067D02*
X004076Y014493D01*
X003934Y014634D01*
X003367Y014634D01*
X003225Y014493D01*
X003225Y014067D01*
X004076Y014067D01*
X003650Y013430D02*
X003650Y013147D01*
X003225Y013147D02*
X004076Y013147D01*
X003225Y013147D02*
X003225Y013714D01*
X002576Y013851D02*
X002576Y013568D01*
X002434Y013426D01*
X001725Y013426D01*
X001376Y013693D02*
X000525Y013693D01*
X000809Y013409D01*
X000525Y013126D01*
X001376Y013126D01*
X001234Y014047D02*
X001092Y014188D01*
X001092Y014614D01*
X000950Y014614D02*
X001376Y014614D01*
X001376Y014188D01*
X001234Y014047D01*
X000809Y014472D02*
X000950Y014614D01*
X000809Y014472D02*
X000809Y014188D01*
X001092Y014967D02*
X000809Y015393D01*
X000950Y015735D02*
X000809Y015876D01*
X000809Y016160D01*
X000950Y016302D01*
X001092Y016302D01*
X001092Y015735D01*
X001234Y015735D02*
X000950Y015735D01*
X001234Y015735D02*
X001376Y015876D01*
X001376Y016160D01*
X001376Y016655D02*
X000809Y016655D01*
X001092Y016655D02*
X000809Y016939D01*
X000809Y017081D01*
X000950Y017423D02*
X000950Y017848D01*
X001092Y017990D01*
X001234Y017990D01*
X001376Y017848D01*
X001376Y017423D01*
X000525Y017423D01*
X000525Y017848D01*
X000667Y017990D01*
X000809Y017990D01*
X000950Y017848D01*
X000950Y018343D02*
X001234Y018343D01*
X001376Y018485D01*
X001376Y018769D01*
X001234Y018910D01*
X000950Y018910D01*
X000809Y018769D01*
X000809Y018485D01*
X000950Y018343D01*
X000809Y019264D02*
X000809Y019548D01*
X000667Y019406D02*
X001234Y019406D01*
X001376Y019548D01*
X002009Y018915D02*
X002009Y018490D01*
X002576Y018490D01*
X002576Y019057D02*
X002150Y019057D01*
X002009Y018915D01*
X002009Y018148D02*
X002009Y018006D01*
X002292Y017723D01*
X002009Y017723D02*
X002576Y017723D01*
X002434Y017369D02*
X002150Y017369D01*
X002009Y017227D01*
X002009Y016944D01*
X002150Y016802D01*
X002434Y016802D01*
X002576Y016944D01*
X002576Y017227D01*
X002434Y017369D01*
X002576Y016448D02*
X002576Y016023D01*
X002434Y015881D01*
X002150Y015881D01*
X002009Y016023D01*
X002009Y016448D01*
X002009Y015409D02*
X002576Y015409D01*
X002576Y015267D02*
X002576Y015551D01*
X002576Y014914D02*
X002150Y014914D01*
X002009Y014772D01*
X002009Y014347D01*
X002576Y014347D01*
X002434Y013993D02*
X001725Y013993D01*
X001376Y014967D02*
X000525Y014967D01*
X001092Y014967D02*
X001376Y015393D01*
X001583Y015409D02*
X001725Y015409D01*
X002009Y015409D02*
X002009Y015267D01*
X002434Y013993D02*
X002576Y013851D01*
X003225Y015426D02*
X003225Y015851D01*
X003367Y015993D01*
X003509Y015993D01*
X003650Y015851D01*
X003650Y015426D01*
X003650Y015851D02*
X003792Y015993D01*
X003934Y015993D01*
X004076Y015851D01*
X004076Y015426D01*
X003225Y015426D01*
X003650Y016347D02*
X003934Y016347D01*
X004076Y016488D01*
X004076Y016772D01*
X003934Y016914D01*
X003650Y016914D01*
X003509Y016772D01*
X003509Y016488D01*
X003650Y016347D01*
X003934Y017267D02*
X003792Y017409D01*
X003792Y017834D01*
X003650Y017834D02*
X004076Y017834D01*
X004076Y017409D01*
X003934Y017267D01*
X003509Y017693D02*
X003650Y017834D01*
X003792Y018188D02*
X003509Y018472D01*
X003509Y018613D01*
X003650Y018955D02*
X003509Y019097D01*
X003509Y019522D01*
X003225Y019522D02*
X004076Y019522D01*
X004076Y019097D01*
X003934Y018955D01*
X003650Y018955D01*
X003509Y018188D02*
X004076Y018188D01*
X003509Y017693D02*
X003509Y017409D01*
X009676Y015501D02*
X010243Y015501D01*
X009959Y014185D02*
X009959Y013618D01*
X009676Y013901D02*
X010243Y013901D01*
X009959Y012585D02*
X009959Y012018D01*
X009676Y012301D02*
X010243Y012301D01*
X010243Y010701D02*
X009676Y010701D01*
X009676Y009101D02*
X010243Y009101D01*
X010009Y007735D02*
X010009Y007168D01*
X009726Y007451D02*
X010293Y007451D01*
X010243Y005901D02*
X009676Y005901D01*
X009959Y004635D02*
X009959Y004068D01*
X009676Y004351D02*
X010243Y004351D01*
X010243Y002701D02*
X009676Y002701D01*
X009959Y001385D02*
X009959Y000818D01*
X009676Y001101D02*
X010243Y001101D01*
X010009Y016868D02*
X010009Y017435D01*
X009726Y017151D02*
X010293Y017151D01*
X010293Y018651D02*
X009726Y018651D01*
D12*
X008341Y018701D03*
X008341Y017101D03*
X008341Y015501D03*
X008341Y013901D03*
X008341Y012301D03*
X008341Y010701D03*
X008341Y009101D03*
X008341Y007501D03*
X008341Y005901D03*
X008341Y004301D03*
X008341Y002701D03*
X008341Y001101D03*
X007160Y001101D03*
X007160Y002701D03*
X007160Y004301D03*
X007160Y005901D03*
X007160Y007501D03*
X007160Y009101D03*
X007160Y010701D03*
X007160Y012301D03*
X007160Y013901D03*
X007160Y015501D03*
X007160Y017101D03*
X007160Y018701D03*
D13*
X002051Y011101D03*
X002051Y009701D03*
X002051Y008301D03*
X002051Y006901D03*
D14*
X004350Y006901D03*
X004350Y008301D03*
X004350Y009701D03*
X004350Y011101D03*
X005452Y011101D03*
X005452Y009701D03*
X005452Y008301D03*
X005452Y006901D03*
D15*
X005751Y006601D01*
X006951Y006601D01*
X006951Y006101D01*
X007160Y005901D01*
X007351Y006101D01*
X007751Y006501D01*
X007751Y013301D01*
X007351Y013701D01*
X007160Y013901D01*
X007151Y014101D01*
X007151Y015301D01*
X007160Y015501D01*
X007151Y015701D01*
X007151Y016901D01*
X007160Y017101D01*
X007151Y017301D01*
X007151Y018501D01*
X007160Y018701D01*
X007751Y019101D02*
X007551Y019301D01*
X006551Y019301D01*
X006551Y012901D01*
X006951Y012501D01*
X007160Y012301D01*
X007151Y012101D01*
X007151Y010901D01*
X007160Y010701D01*
X007151Y010501D01*
X007151Y009301D01*
X007160Y009101D01*
X007151Y008901D01*
X007151Y008301D01*
X005452Y008301D01*
X005452Y009701D02*
X005751Y010001D01*
X006151Y010401D01*
X006151Y019501D01*
X006351Y019701D01*
X008151Y019701D01*
X008151Y018901D01*
X008341Y018701D01*
X008351Y018501D01*
X008351Y017301D01*
X008341Y017101D01*
X008551Y016901D01*
X008951Y016501D01*
X008951Y012901D01*
X008551Y012501D01*
X008341Y012301D01*
X008351Y012101D01*
X008351Y010901D01*
X008341Y010701D01*
X008551Y010501D01*
X008951Y010101D01*
X008951Y000501D01*
X007751Y000501D01*
X007351Y000901D01*
X007160Y001101D01*
X007151Y001301D01*
X007151Y002501D01*
X007160Y002701D01*
X006351Y003551D02*
X008151Y003551D01*
X008151Y002901D01*
X008341Y002701D01*
X008351Y002501D01*
X008351Y001301D01*
X008341Y001101D01*
X008151Y003551D02*
X008151Y004101D01*
X008341Y004301D01*
X008351Y004501D01*
X008351Y005701D01*
X008341Y005901D01*
X008351Y006101D01*
X008351Y007301D01*
X008341Y007501D01*
X008351Y007701D01*
X008351Y008901D01*
X008341Y009101D01*
X007151Y007701D02*
X007160Y007501D01*
X007151Y007701D02*
X007151Y008301D01*
X007160Y005901D02*
X007151Y005701D01*
X007151Y004501D01*
X007160Y004301D01*
X006351Y003551D02*
X005851Y004051D01*
X005851Y005401D01*
X005351Y005901D01*
X001101Y005901D01*
X000601Y006401D01*
X000601Y010401D01*
X004751Y010401D01*
X005151Y010801D01*
X005452Y011101D01*
X004350Y011101D02*
X002051Y011101D01*
X002051Y009701D02*
X004350Y009701D01*
X004051Y008401D02*
X004350Y008301D01*
X004051Y008401D02*
X002951Y008401D01*
X002051Y008301D01*
X002051Y006901D02*
X004350Y006901D01*
X008341Y013901D02*
X008351Y014101D01*
X008351Y015301D01*
X008341Y015501D01*
X008151Y015701D01*
X007751Y016101D01*
X007751Y019101D01*
M02*
