G75*
G70*
%OFA0B0*%
%FSLAX24Y24*%
%IPPOS*%
%LPD*%
%AMOC8*
5,1,8,0,0,1.08239X$1,22.5*
%
%ADD10C,0.0000*%
%ADD11C,0.0740*%
%ADD12C,0.0520*%
%ADD13OC8,0.0700*%
%ADD14C,0.0700*%
%ADD15C,0.0825*%
%ADD16C,0.0600*%
%ADD17OC8,0.0520*%
%ADD18OC8,0.0850*%
%ADD19OC8,0.0660*%
%ADD20C,0.0100*%
%ADD21C,0.0400*%
%ADD22C,0.0760*%
D10*
X001504Y006259D02*
X021504Y006259D01*
X021504Y029759D01*
X000504Y029759D01*
X000504Y007259D01*
X001504Y006259D01*
X000854Y008759D02*
X000856Y008809D01*
X000862Y008859D01*
X000872Y008909D01*
X000885Y008957D01*
X000902Y009005D01*
X000923Y009051D01*
X000947Y009095D01*
X000975Y009137D01*
X001006Y009177D01*
X001040Y009214D01*
X001077Y009249D01*
X001116Y009280D01*
X001157Y009309D01*
X001201Y009334D01*
X001247Y009356D01*
X001294Y009374D01*
X001342Y009388D01*
X001391Y009399D01*
X001441Y009406D01*
X001491Y009409D01*
X001542Y009408D01*
X001592Y009403D01*
X001642Y009394D01*
X001690Y009382D01*
X001738Y009365D01*
X001784Y009345D01*
X001829Y009322D01*
X001872Y009295D01*
X001912Y009265D01*
X001950Y009232D01*
X001985Y009196D01*
X002018Y009157D01*
X002047Y009116D01*
X002073Y009073D01*
X002096Y009028D01*
X002115Y008981D01*
X002130Y008933D01*
X002142Y008884D01*
X002150Y008834D01*
X002154Y008784D01*
X002154Y008734D01*
X002150Y008684D01*
X002142Y008634D01*
X002130Y008585D01*
X002115Y008537D01*
X002096Y008490D01*
X002073Y008445D01*
X002047Y008402D01*
X002018Y008361D01*
X001985Y008322D01*
X001950Y008286D01*
X001912Y008253D01*
X001872Y008223D01*
X001829Y008196D01*
X001784Y008173D01*
X001738Y008153D01*
X001690Y008136D01*
X001642Y008124D01*
X001592Y008115D01*
X001542Y008110D01*
X001491Y008109D01*
X001441Y008112D01*
X001391Y008119D01*
X001342Y008130D01*
X001294Y008144D01*
X001247Y008162D01*
X001201Y008184D01*
X001157Y008209D01*
X001116Y008238D01*
X001077Y008269D01*
X001040Y008304D01*
X001006Y008341D01*
X000975Y008381D01*
X000947Y008423D01*
X000923Y008467D01*
X000902Y008513D01*
X000885Y008561D01*
X000872Y008609D01*
X000862Y008659D01*
X000856Y008709D01*
X000854Y008759D01*
X017854Y028759D02*
X017856Y028809D01*
X017862Y028859D01*
X017872Y028909D01*
X017885Y028957D01*
X017902Y029005D01*
X017923Y029051D01*
X017947Y029095D01*
X017975Y029137D01*
X018006Y029177D01*
X018040Y029214D01*
X018077Y029249D01*
X018116Y029280D01*
X018157Y029309D01*
X018201Y029334D01*
X018247Y029356D01*
X018294Y029374D01*
X018342Y029388D01*
X018391Y029399D01*
X018441Y029406D01*
X018491Y029409D01*
X018542Y029408D01*
X018592Y029403D01*
X018642Y029394D01*
X018690Y029382D01*
X018738Y029365D01*
X018784Y029345D01*
X018829Y029322D01*
X018872Y029295D01*
X018912Y029265D01*
X018950Y029232D01*
X018985Y029196D01*
X019018Y029157D01*
X019047Y029116D01*
X019073Y029073D01*
X019096Y029028D01*
X019115Y028981D01*
X019130Y028933D01*
X019142Y028884D01*
X019150Y028834D01*
X019154Y028784D01*
X019154Y028734D01*
X019150Y028684D01*
X019142Y028634D01*
X019130Y028585D01*
X019115Y028537D01*
X019096Y028490D01*
X019073Y028445D01*
X019047Y028402D01*
X019018Y028361D01*
X018985Y028322D01*
X018950Y028286D01*
X018912Y028253D01*
X018872Y028223D01*
X018829Y028196D01*
X018784Y028173D01*
X018738Y028153D01*
X018690Y028136D01*
X018642Y028124D01*
X018592Y028115D01*
X018542Y028110D01*
X018491Y028109D01*
X018441Y028112D01*
X018391Y028119D01*
X018342Y028130D01*
X018294Y028144D01*
X018247Y028162D01*
X018201Y028184D01*
X018157Y028209D01*
X018116Y028238D01*
X018077Y028269D01*
X018040Y028304D01*
X018006Y028341D01*
X017975Y028381D01*
X017947Y028423D01*
X017923Y028467D01*
X017902Y028513D01*
X017885Y028561D01*
X017872Y028609D01*
X017862Y028659D01*
X017856Y028709D01*
X017854Y028759D01*
D11*
X020504Y027759D03*
X020504Y026759D03*
X020504Y025759D03*
X020504Y024759D03*
X020504Y023759D03*
X020504Y022759D03*
X020504Y020759D03*
X020504Y019759D03*
X020504Y018759D03*
X020504Y017759D03*
X020504Y016759D03*
X020504Y015759D03*
X017304Y010659D03*
X016304Y010659D03*
X015454Y010659D03*
X014454Y010659D03*
X012604Y010659D03*
X011604Y010659D03*
X010754Y010659D03*
X009754Y010659D03*
X003354Y007459D03*
X002354Y007459D03*
X001504Y012259D03*
X001504Y013259D03*
X001504Y014259D03*
X001504Y015259D03*
X001504Y016259D03*
X001504Y017259D03*
X001504Y018259D03*
X001504Y019259D03*
X001504Y020759D03*
X001504Y021759D03*
X001504Y022759D03*
X001504Y023759D03*
X001504Y024759D03*
X001504Y025759D03*
X001504Y026759D03*
X001504Y027759D03*
D12*
X009744Y018509D02*
X010264Y018509D01*
X010264Y017509D02*
X009744Y017509D01*
X009744Y016509D02*
X010264Y016509D01*
X010264Y015509D02*
X009744Y015509D01*
X009744Y014509D02*
X010264Y014509D01*
X010264Y013509D02*
X009744Y013509D01*
X009744Y012509D02*
X010264Y012509D01*
X012744Y012509D02*
X013264Y012509D01*
X013994Y012509D02*
X014514Y012509D01*
X014514Y013509D02*
X013994Y013509D01*
X013264Y013509D02*
X012744Y013509D01*
X012744Y014509D02*
X013264Y014509D01*
X013994Y014509D02*
X014514Y014509D01*
X014514Y015509D02*
X013994Y015509D01*
X013264Y015509D02*
X012744Y015509D01*
X012744Y016509D02*
X013264Y016509D01*
X013994Y016509D02*
X014514Y016509D01*
X014514Y017509D02*
X013994Y017509D01*
X013264Y017509D02*
X012744Y017509D01*
X012744Y018509D02*
X013264Y018509D01*
X013994Y018509D02*
X014514Y018509D01*
X014514Y019509D02*
X013994Y019509D01*
X016994Y019509D02*
X017514Y019509D01*
X017514Y018509D02*
X016994Y018509D01*
X016994Y017509D02*
X017514Y017509D01*
X017514Y016509D02*
X016994Y016509D01*
X016994Y015509D02*
X017514Y015509D01*
X017514Y014509D02*
X016994Y014509D01*
X016994Y013509D02*
X017514Y013509D01*
X017514Y012509D02*
X016994Y012509D01*
D13*
X005304Y015309D03*
D14*
X004304Y015309D03*
D15*
X006004Y008671D02*
X006004Y007846D01*
X008004Y007846D02*
X008004Y008671D01*
X010504Y008671D02*
X010504Y007846D01*
X012504Y007846D02*
X012504Y008671D01*
X014504Y008671D02*
X014504Y007846D01*
X016504Y007846D02*
X016504Y008671D01*
X005166Y022359D02*
X004341Y022359D01*
X004341Y024359D02*
X005166Y024359D01*
X005166Y026359D02*
X004341Y026359D01*
X004341Y028359D02*
X005166Y028359D01*
X009504Y028171D02*
X009504Y027346D01*
X011504Y027346D02*
X011504Y028171D01*
X013504Y028171D02*
X013504Y027346D01*
X015504Y027346D02*
X015504Y028171D01*
D16*
X005754Y019359D02*
X005154Y019359D01*
X004504Y019359D02*
X003904Y019359D01*
X003904Y018359D02*
X004504Y018359D01*
X005154Y018359D02*
X005754Y018359D01*
X005754Y017359D02*
X005154Y017359D01*
X004504Y017359D02*
X003904Y017359D01*
X002554Y011359D02*
X002554Y010759D01*
X001554Y010759D02*
X001554Y011359D01*
X018954Y011759D02*
X019554Y011759D01*
X020204Y011759D02*
X020804Y011759D01*
X020804Y012759D02*
X020204Y012759D01*
X019554Y012759D02*
X018954Y012759D01*
X018954Y013759D02*
X019554Y013759D01*
X020204Y013759D02*
X020804Y013759D01*
X020894Y009839D02*
X020894Y009239D01*
X020894Y007279D02*
X020894Y006679D01*
X019114Y006679D02*
X019114Y007279D01*
X019114Y009239D02*
X019114Y009839D01*
D17*
X007154Y011909D03*
X006154Y011909D03*
X005204Y011859D03*
X004204Y011859D03*
X004204Y013209D03*
X005204Y013209D03*
X006154Y013209D03*
X007154Y013209D03*
X003304Y010059D03*
X003304Y009059D03*
D18*
X008504Y024559D03*
X009504Y024559D03*
X010504Y024559D03*
X011504Y024559D03*
X012504Y024559D03*
X013504Y024559D03*
X014504Y024559D03*
X015504Y024559D03*
X016504Y024559D03*
X017504Y024559D03*
D19*
X008504Y018259D03*
X008504Y017259D03*
X008504Y016259D03*
X008504Y015259D03*
X008504Y014259D03*
X008504Y013259D03*
X008504Y012259D03*
X008504Y011259D03*
D20*
X008584Y010739D02*
X008344Y010739D01*
X007544Y011539D01*
X007544Y012099D01*
X006584Y013059D01*
X006584Y013379D01*
X005624Y014339D01*
X004744Y013459D01*
X004744Y013139D01*
X004424Y012819D01*
X003384Y012819D01*
X004024Y013299D02*
X004204Y013209D01*
X004024Y013299D02*
X001864Y013299D01*
X001504Y013259D01*
X001504Y014259D02*
X001704Y014579D01*
X002904Y015779D01*
X002184Y016499D01*
X001504Y016259D02*
X001304Y016579D01*
X001304Y016739D01*
X000984Y017059D01*
X000984Y028019D01*
X002264Y029299D01*
X006584Y029299D01*
X011144Y024739D01*
X011504Y024559D01*
X012184Y024819D02*
X012504Y024559D01*
X012184Y024819D02*
X010664Y026339D01*
X010024Y026339D01*
X011064Y026499D02*
X010104Y027459D01*
X010104Y028339D01*
X009704Y028739D01*
X008504Y028739D01*
X008744Y028979D02*
X008584Y029139D01*
X008424Y029139D01*
X007864Y028579D01*
X008744Y027699D01*
X008904Y026499D02*
X009064Y026499D01*
X010584Y024979D01*
X010504Y024559D01*
X009944Y025139D02*
X008984Y026099D01*
X008824Y026099D01*
X006744Y028179D01*
X005544Y028179D01*
X004754Y028359D01*
X003144Y025539D02*
X008344Y025539D01*
X009144Y024739D01*
X009504Y024559D01*
X008504Y024559D02*
X008104Y024739D01*
X007704Y025139D01*
X003064Y025139D01*
X002584Y025619D01*
X001864Y025619D01*
X001504Y025759D01*
X001504Y023759D02*
X001864Y023699D01*
X005464Y020099D01*
X005944Y020099D01*
X006744Y019299D01*
X006904Y019299D01*
X006984Y019699D02*
X006664Y019699D01*
X006024Y020339D01*
X005544Y020339D01*
X003784Y022099D01*
X003784Y022259D01*
X002984Y023059D01*
X002824Y022099D02*
X002824Y020259D01*
X002744Y019859D02*
X001864Y020739D01*
X001504Y020759D01*
X001944Y020179D02*
X003624Y018499D01*
X004204Y018359D01*
X004744Y018419D01*
X004904Y018419D01*
X005454Y018359D01*
X005454Y017359D02*
X004904Y017379D01*
X004744Y017379D01*
X004204Y017359D01*
X003304Y017219D02*
X002264Y018259D01*
X001864Y018099D02*
X001504Y018259D01*
X001864Y018099D02*
X003944Y016019D01*
X005064Y016019D01*
X005464Y015619D02*
X005304Y015309D01*
X005464Y014979D01*
X006984Y013459D01*
X006984Y013379D01*
X007154Y013209D01*
X007384Y013219D01*
X008184Y013219D01*
X008504Y013259D01*
X008504Y012259D01*
X008744Y012419D01*
X009544Y012419D01*
X010004Y012509D01*
X010504Y012499D01*
X012104Y010899D01*
X012104Y010419D01*
X012584Y009939D01*
X018824Y009939D01*
X019114Y009539D01*
X019144Y008979D01*
X019144Y007539D01*
X019114Y006979D01*
X020894Y006979D02*
X020904Y007539D01*
X020904Y008979D01*
X020894Y009539D01*
X020664Y009379D01*
X017944Y012099D01*
X016824Y012099D01*
X015944Y012979D01*
X015944Y013459D01*
X016264Y014099D02*
X016184Y014179D01*
X016264Y014099D02*
X017944Y014099D01*
X018504Y014339D02*
X018104Y014739D01*
X018504Y014339D02*
X018504Y013539D01*
X018824Y013219D01*
X018824Y012979D01*
X019254Y012759D01*
X019784Y012819D01*
X019944Y012819D01*
X020504Y012759D01*
X020504Y013759D02*
X020104Y014019D01*
X020104Y015059D01*
X019704Y015459D01*
X019704Y015779D01*
X019144Y016339D01*
X019144Y016499D01*
X017704Y017939D01*
X011864Y017939D01*
X010664Y019139D01*
X008984Y019139D01*
X008424Y019699D01*
X008344Y019299D02*
X008504Y019299D01*
X008904Y018899D01*
X010504Y018899D01*
X010664Y018739D01*
X010664Y018179D01*
X010424Y017939D01*
X010824Y017539D01*
X010984Y017539D01*
X011224Y017299D01*
X011384Y017299D01*
X012584Y016099D01*
X014744Y016099D01*
X015064Y015779D01*
X015064Y015379D02*
X014744Y015379D01*
X014254Y015509D01*
X015064Y015379D02*
X015944Y014499D01*
X016824Y015379D01*
X017254Y015509D01*
X017704Y015379D01*
X017944Y015379D01*
X018824Y014499D01*
X018664Y015139D02*
X018264Y015539D01*
X018664Y015139D02*
X019464Y015139D01*
X019944Y015539D02*
X019944Y015859D01*
X019384Y016419D01*
X019384Y016579D01*
X018184Y017779D01*
X018184Y018099D01*
X018024Y018259D01*
X018024Y018579D01*
X017704Y018899D01*
X011384Y018899D01*
X011144Y017939D02*
X012504Y016579D01*
X013004Y016509D01*
X013064Y016739D01*
X013064Y017299D01*
X013004Y017509D01*
X012024Y016099D02*
X011784Y016099D01*
X012024Y016099D02*
X012504Y015619D01*
X013004Y015509D01*
X012664Y014739D02*
X013004Y014509D01*
X012984Y014259D01*
X012984Y013699D01*
X013004Y013509D01*
X012904Y012739D02*
X013004Y012509D01*
X013384Y012339D01*
X013384Y012259D01*
X014104Y011539D01*
X016104Y011539D01*
X016104Y012339D01*
X016104Y011539D02*
X016264Y011539D01*
X016984Y010819D01*
X017304Y010659D01*
X016744Y009379D02*
X015464Y009379D01*
X014904Y008819D01*
X014504Y008259D01*
X014584Y007139D02*
X014344Y006899D01*
X011944Y006899D01*
X011784Y007059D01*
X010184Y007059D01*
X008904Y008339D01*
X008744Y008339D01*
X008004Y008259D02*
X007624Y007699D01*
X007224Y007299D01*
X003704Y007299D01*
X003354Y007459D01*
X003544Y009939D02*
X003304Y010059D01*
X003064Y010179D01*
X002184Y010179D01*
X001784Y010579D01*
X001554Y011059D01*
X003544Y009939D02*
X004504Y009939D01*
X005624Y008819D01*
X006004Y008259D01*
X007304Y008179D02*
X004264Y011219D01*
X004264Y011619D01*
X004204Y011859D01*
X005204Y013209D02*
X005384Y013059D01*
X005624Y013059D01*
X006584Y012099D01*
X006584Y011859D01*
X008744Y009699D01*
X008264Y009779D02*
X008264Y009299D01*
X010264Y007299D01*
X012024Y007299D01*
X011464Y008019D02*
X010904Y008579D01*
X010504Y008259D01*
X011464Y008499D02*
X010104Y009859D01*
X009464Y009859D01*
X008584Y010739D01*
X009224Y010419D02*
X009544Y010099D01*
X010344Y010099D01*
X011864Y008579D01*
X011864Y008419D01*
X011464Y008019D01*
X012504Y008259D02*
X012344Y009059D01*
X012024Y009379D01*
X012024Y010019D01*
X012604Y010659D02*
X012424Y010979D01*
X012184Y011219D01*
X012184Y012579D01*
X011944Y013219D02*
X011064Y014099D01*
X009544Y014099D01*
X008904Y014739D01*
X008344Y014739D01*
X008264Y014819D01*
X006184Y014819D01*
X005464Y015619D02*
X005464Y017139D01*
X005454Y017359D01*
X006504Y017539D02*
X008264Y015779D01*
X008664Y015779D01*
X008824Y015619D01*
X009544Y015619D01*
X010004Y015509D01*
X010024Y015299D01*
X010024Y014739D01*
X010004Y014509D01*
X010004Y013509D02*
X009544Y013619D01*
X009384Y013619D01*
X008824Y014179D01*
X008504Y014259D01*
X008504Y016259D02*
X008504Y017259D01*
X008664Y017779D02*
X007944Y017779D01*
X005864Y019859D01*
X002744Y019859D01*
X002424Y019219D02*
X002984Y018659D01*
X002984Y018019D01*
X003304Y017219D02*
X003304Y017139D01*
X005464Y020899D02*
X006744Y020899D01*
X008344Y019299D01*
X007384Y019299D02*
X006984Y019699D01*
X008664Y017779D02*
X009544Y016899D01*
X010504Y016899D01*
X012664Y014739D01*
X012264Y014179D02*
X010904Y015539D01*
X010344Y016099D01*
X010344Y016259D01*
X010004Y016509D01*
X010004Y017509D02*
X010024Y017699D01*
X010024Y018259D01*
X010004Y018509D01*
X011304Y014659D02*
X011304Y014339D01*
X012904Y012739D01*
X014184Y011939D02*
X014344Y011779D01*
X014904Y012339D01*
X014904Y013699D01*
X014584Y014019D01*
X014584Y014259D01*
X014254Y014509D01*
X015064Y015379D02*
X015144Y015379D01*
X015544Y015779D01*
X014744Y016579D01*
X014254Y016509D01*
X014744Y016979D02*
X016264Y015459D01*
X016264Y016019D02*
X016264Y016419D01*
X015464Y017219D01*
X015384Y017619D02*
X014744Y016979D01*
X015384Y017619D02*
X016744Y017619D01*
X017254Y017509D01*
X016504Y017059D02*
X018104Y017059D01*
X018424Y017859D02*
X019784Y016499D01*
X019944Y015539D02*
X020504Y014979D01*
X020504Y017759D02*
X020184Y017939D01*
X019304Y017939D01*
X017704Y019539D01*
X017254Y019509D01*
X017704Y019939D02*
X015064Y019939D01*
X014744Y019619D01*
X014254Y019509D01*
X017254Y016509D02*
X017224Y016259D01*
X017224Y015699D01*
X017254Y015509D01*
X015704Y014179D02*
X016824Y013059D01*
X017784Y013059D01*
X017944Y012899D01*
X019254Y011759D02*
X019784Y011779D01*
X019944Y011779D01*
X020504Y011759D01*
X018424Y017859D02*
X018424Y018339D01*
X019064Y018579D02*
X017704Y019939D01*
X018024Y020099D02*
X019064Y019059D01*
X019064Y018579D02*
X019144Y018579D01*
X019624Y018579D02*
X019624Y020499D01*
X018904Y021219D01*
X018904Y023539D01*
X018744Y023699D01*
X018744Y023859D01*
X019144Y024259D01*
X020344Y023059D01*
X020504Y022759D01*
X020504Y023759D02*
X020184Y023939D01*
X017784Y026339D01*
X015144Y026339D01*
X013864Y027139D02*
X016184Y024819D01*
X016504Y024559D01*
X016824Y024819D01*
X017464Y025459D01*
X018104Y024819D01*
X018104Y024179D01*
X018184Y024099D01*
X018024Y023779D02*
X018024Y020099D01*
X019144Y021299D02*
X020344Y020099D01*
X020504Y019759D01*
X020504Y018759D01*
X019144Y021299D02*
X019144Y023779D01*
X018024Y023779D02*
X017704Y024099D01*
X017704Y024179D01*
X017504Y024559D01*
X018504Y025939D02*
X015704Y028739D01*
X012264Y028739D01*
X011864Y028339D01*
X011504Y027759D01*
X010504Y027539D02*
X013224Y024819D01*
X013504Y024559D01*
X014504Y024559D02*
X014904Y024579D01*
X015144Y024579D01*
X015504Y024559D01*
X013864Y027139D02*
X013504Y027759D01*
X015784Y028979D02*
X008744Y028979D01*
X010504Y028019D02*
X010504Y027539D01*
X006184Y024259D02*
X004664Y022739D01*
X004754Y022359D01*
X006154Y011909D02*
X006264Y011699D01*
X006264Y010579D01*
X007544Y009299D01*
X008264Y009779D02*
X006984Y011059D01*
X006664Y011059D01*
X009224Y010419D02*
X009224Y011779D01*
X009704Y011939D02*
X009704Y010979D01*
X009754Y010659D01*
X018504Y025939D02*
X020184Y025939D01*
X020504Y025759D01*
X020504Y026759D02*
X020184Y026899D01*
X017864Y026899D01*
X015784Y028979D01*
D21*
X015144Y026339D03*
X018184Y024099D03*
X019144Y023779D03*
X019064Y019059D03*
X019144Y018579D03*
X019624Y018579D03*
X018424Y018339D03*
X018104Y017059D03*
X018264Y015539D03*
X018104Y014739D03*
X017944Y014099D03*
X018824Y014499D03*
X019464Y015139D03*
X020504Y014979D03*
X019784Y016499D03*
X017944Y012899D03*
X016104Y012339D03*
X015944Y013459D03*
X016184Y014179D03*
X015704Y014179D03*
X016264Y015459D03*
X016264Y016019D03*
X016504Y017059D03*
X015464Y017219D03*
X015064Y015779D03*
X012264Y014179D03*
X011944Y013219D03*
X012184Y012579D03*
X011304Y014659D03*
X010904Y015539D03*
X011784Y016099D03*
X011144Y017939D03*
X011384Y018899D03*
X008424Y019699D03*
X007384Y019299D03*
X006904Y019299D03*
X006504Y017539D03*
X005064Y016019D03*
X006184Y014819D03*
X003384Y012819D03*
X002184Y016499D03*
X003304Y017139D03*
X002984Y018019D03*
X002264Y018259D03*
X002424Y019219D03*
X001944Y020179D03*
X002824Y020259D03*
X002824Y022099D03*
X002984Y023059D03*
X003144Y025539D03*
X006184Y024259D03*
X005464Y020899D03*
X008904Y026499D03*
X008744Y027699D03*
X008504Y028739D03*
X010024Y026339D03*
X011064Y026499D03*
X010504Y028019D03*
X009944Y025139D03*
X009704Y011939D03*
X009224Y011779D03*
X008744Y009699D03*
X008744Y008339D03*
X007544Y009299D03*
X007304Y008179D03*
X006664Y011059D03*
X011464Y008499D03*
X012024Y007299D03*
X012024Y010019D03*
X014184Y011939D03*
X016744Y009379D03*
X014584Y007139D03*
D22*
X014504Y020559D03*
X014504Y021559D03*
X014504Y022559D03*
X014504Y023559D03*
X015504Y023559D03*
X015504Y022559D03*
X015504Y021559D03*
X015504Y020559D03*
X016504Y020559D03*
X016504Y021559D03*
X016504Y022559D03*
X016504Y023559D03*
X017504Y023559D03*
X017504Y022559D03*
X017504Y021559D03*
X017504Y020559D03*
X013504Y020559D03*
X013504Y021559D03*
X013504Y022559D03*
X013504Y023559D03*
X012504Y023559D03*
X012504Y022559D03*
X012504Y021559D03*
X012504Y020559D03*
X011504Y020559D03*
X011504Y021559D03*
X011504Y022559D03*
X011504Y023559D03*
X010504Y023559D03*
X010504Y022559D03*
X010504Y021559D03*
X010504Y020559D03*
X009504Y020559D03*
X009504Y021559D03*
X009504Y022559D03*
X009504Y023559D03*
X008504Y023559D03*
X008504Y022559D03*
X008504Y021559D03*
X008504Y020559D03*
M02*
